<mxfile host="Electron" modified="2023-06-14T20:41:15.345Z" agent="Mozilla/5.0 (Windows NT 10.0; Win64; x64) AppleWebKit/537.36 (KHTML, like Gecko) draw.io/21.2.8 Chrome/112.0.5615.165 Electron/24.2.0 Safari/537.36" etag="Vb4yw8Zzutt7uKumVq37" version="21.2.8" type="device">
  <diagram name="Page-1" id="2YBvvXClWsGukQMizWep">
    <mxGraphModel dx="1036" dy="2806" grid="0" gridSize="10" guides="1" tooltips="1" connect="1" arrows="1" fold="1" page="1" pageScale="1" pageWidth="850" pageHeight="1100" math="0" shadow="0">
      <root>
        <mxCell id="0" />
        <mxCell id="1" parent="0" />
        <mxCell id="Zykf1ZHxqBieM8WaJR_5-372" value="else" style="rounded=0;whiteSpace=wrap;html=1;align=left;" parent="1" vertex="1">
          <mxGeometry x="210" y="3730" width="310" height="76" as="geometry" />
        </mxCell>
        <mxCell id="Zykf1ZHxqBieM8WaJR_5-369" value="&amp;nbsp; if" style="rounded=0;whiteSpace=wrap;html=1;align=left;" parent="1" vertex="1">
          <mxGeometry x="210" y="3654" width="308.67" height="76" as="geometry" />
        </mxCell>
        <mxCell id="Zykf1ZHxqBieM8WaJR_5-361" value="&amp;nbsp; if" style="rounded=0;whiteSpace=wrap;html=1;align=left;" parent="1" vertex="1">
          <mxGeometry x="175" y="3085" width="1035" height="124" as="geometry" />
        </mxCell>
        <mxCell id="Zykf1ZHxqBieM8WaJR_5-365" value="else" style="rounded=0;whiteSpace=wrap;html=1;align=left;" parent="1" vertex="1">
          <mxGeometry x="192.11" y="3134" width="1007.89" height="34" as="geometry" />
        </mxCell>
        <mxCell id="Zykf1ZHxqBieM8WaJR_5-363" value="&amp;nbsp; if" style="rounded=0;whiteSpace=wrap;html=1;align=left;" parent="1" vertex="1">
          <mxGeometry x="192.11" y="3097" width="1007.89" height="34" as="geometry" />
        </mxCell>
        <mxCell id="Zykf1ZHxqBieM8WaJR_5-362" value="else" style="rounded=0;whiteSpace=wrap;html=1;align=left;" parent="1" vertex="1">
          <mxGeometry x="175" y="3211" width="1035" height="78" as="geometry" />
        </mxCell>
        <mxCell id="Zykf1ZHxqBieM8WaJR_5-360" value="else" style="rounded=0;whiteSpace=wrap;html=1;align=left;" parent="1" vertex="1">
          <mxGeometry x="175" y="2896" width="1035" height="34" as="geometry" />
        </mxCell>
        <mxCell id="Zykf1ZHxqBieM8WaJR_5-358" value="&amp;nbsp; if" style="rounded=0;whiteSpace=wrap;html=1;align=left;" parent="1" vertex="1">
          <mxGeometry x="175" y="2862" width="1035" height="34" as="geometry" />
        </mxCell>
        <mxCell id="Zykf1ZHxqBieM8WaJR_5-353" value="else" style="rounded=0;whiteSpace=wrap;html=1;align=left;" parent="1" vertex="1">
          <mxGeometry x="171.72" y="1810" width="1007.11" height="70" as="geometry" />
        </mxCell>
        <mxCell id="Zykf1ZHxqBieM8WaJR_5-352" value="if" style="rounded=0;whiteSpace=wrap;html=1;align=left;" parent="1" vertex="1">
          <mxGeometry x="170" y="1677" width="1050" height="133" as="geometry" />
        </mxCell>
        <mxCell id="Zykf1ZHxqBieM8WaJR_5-348" value="if" style="rounded=0;whiteSpace=wrap;html=1;align=left;" parent="1" vertex="1">
          <mxGeometry x="187.49999999999997" y="1682" width="1007.11" height="40" as="geometry" />
        </mxCell>
        <mxCell id="Zykf1ZHxqBieM8WaJR_5-347" value="else" style="rounded=0;whiteSpace=wrap;html=1;align=left;" parent="1" vertex="1">
          <mxGeometry x="182.89" y="1487" width="1007.11" height="40" as="geometry" />
        </mxCell>
        <mxCell id="Zykf1ZHxqBieM8WaJR_5-346" value="if" style="rounded=0;whiteSpace=wrap;html=1;align=left;" parent="1" vertex="1">
          <mxGeometry x="182.89" y="1447" width="1007.11" height="40" as="geometry" />
        </mxCell>
        <mxCell id="Zykf1ZHxqBieM8WaJR_5-233" value="else" style="rounded=0;whiteSpace=wrap;html=1;align=left;" parent="1" vertex="1">
          <mxGeometry x="98.67" y="990" width="790" height="40" as="geometry" />
        </mxCell>
        <mxCell id="Zykf1ZHxqBieM8WaJR_5-232" value="if" style="rounded=0;whiteSpace=wrap;html=1;align=left;" parent="1" vertex="1">
          <mxGeometry x="98.67" y="950" width="790" height="40" as="geometry" />
        </mxCell>
        <mxCell id="Zykf1ZHxqBieM8WaJR_5-219" value="if" style="rounded=0;whiteSpace=wrap;html=1;align=left;" parent="1" vertex="1">
          <mxGeometry x="90" y="-98" width="1530" height="40" as="geometry" />
        </mxCell>
        <mxCell id="Zykf1ZHxqBieM8WaJR_5-218" value="if" style="rounded=0;whiteSpace=wrap;html=1;align=left;" parent="1" vertex="1">
          <mxGeometry x="86.72" y="-228" width="1533.28" height="40" as="geometry" />
        </mxCell>
        <mxCell id="Zykf1ZHxqBieM8WaJR_5-217" value="else" style="rounded=0;whiteSpace=wrap;html=1;align=left;" parent="1" vertex="1">
          <mxGeometry x="86.72" y="-188" width="1533.28" height="40" as="geometry" />
        </mxCell>
        <mxCell id="Zykf1ZHxqBieM8WaJR_5-216" value="else" style="rounded=0;whiteSpace=wrap;html=1;align=left;" parent="1" vertex="1">
          <mxGeometry x="90" y="-58" width="1530" height="40" as="geometry" />
        </mxCell>
        <mxCell id="Zykf1ZHxqBieM8WaJR_5-211" value="else" style="rounded=0;whiteSpace=wrap;html=1;align=left;" parent="1" vertex="1">
          <mxGeometry x="110" y="-602.5" width="790" height="40" as="geometry" />
        </mxCell>
        <mxCell id="Zykf1ZHxqBieM8WaJR_5-210" value="if" style="rounded=0;whiteSpace=wrap;html=1;align=left;" parent="1" vertex="1">
          <mxGeometry x="110" y="-642.5" width="790" height="40" as="geometry" />
        </mxCell>
        <mxCell id="lNXAA8ya85KhI0WRaUo5-4" value="else" style="rounded=0;whiteSpace=wrap;html=1;align=left;" parent="1" vertex="1">
          <mxGeometry x="180.62" y="2392" width="790" height="34" as="geometry" />
        </mxCell>
        <mxCell id="lNXAA8ya85KhI0WRaUo5-2" value="&amp;nbsp; if" style="rounded=0;whiteSpace=wrap;html=1;align=left;" parent="1" vertex="1">
          <mxGeometry x="180" y="2348" width="790" height="34" as="geometry" />
        </mxCell>
        <mxCell id="3dBxJELoftxvtEzv0rye-1" value="" style="rounded=0;whiteSpace=wrap;html=1;" parent="1" vertex="1">
          <mxGeometry x="320" y="-900" width="120" height="40" as="geometry" />
        </mxCell>
        <mxCell id="3dBxJELoftxvtEzv0rye-3" value="" style="endArrow=none;dashed=1;html=1;rounded=0;" parent="1" edge="1">
          <mxGeometry width="50" height="50" relative="1" as="geometry">
            <mxPoint x="140" y="-520" as="sourcePoint" />
            <mxPoint x="139" y="-865" as="targetPoint" />
            <Array as="points" />
          </mxGeometry>
        </mxCell>
        <mxCell id="3dBxJELoftxvtEzv0rye-4" value="" style="endArrow=none;dashed=1;html=1;rounded=0;" parent="1" edge="1">
          <mxGeometry width="50" height="50" relative="1" as="geometry">
            <mxPoint x="380" y="-520" as="sourcePoint" />
            <mxPoint x="380" y="-860" as="targetPoint" />
          </mxGeometry>
        </mxCell>
        <mxCell id="3dBxJELoftxvtEzv0rye-5" value="Cashier" style="text;html=1;strokeColor=none;fillColor=none;align=center;verticalAlign=middle;whiteSpace=wrap;rounded=0;" parent="1" vertex="1">
          <mxGeometry x="110" y="-895" width="60" height="35" as="geometry" />
        </mxCell>
        <mxCell id="3dBxJELoftxvtEzv0rye-6" value="Front end" style="text;html=1;strokeColor=none;fillColor=none;align=center;verticalAlign=middle;whiteSpace=wrap;rounded=0;" parent="1" vertex="1">
          <mxGeometry x="350" y="-895" width="60" height="30" as="geometry" />
        </mxCell>
        <mxCell id="3dBxJELoftxvtEzv0rye-7" value="4.3&amp;nbsp; Create invoice" style="text;html=1;align=center;verticalAlign=middle;whiteSpace=wrap;rounded=0;" parent="1" vertex="1">
          <mxGeometry x="84.45" y="-1030" width="120" height="30" as="geometry" />
        </mxCell>
        <mxCell id="3dBxJELoftxvtEzv0rye-8" value="" style="endArrow=none;dashed=1;html=1;rounded=0;" parent="1" edge="1">
          <mxGeometry width="50" height="50" relative="1" as="geometry">
            <mxPoint x="140" y="40" as="sourcePoint" />
            <mxPoint x="140" y="-258" as="targetPoint" />
            <Array as="points" />
          </mxGeometry>
        </mxCell>
        <mxCell id="3dBxJELoftxvtEzv0rye-9" value="" style="endArrow=none;dashed=1;html=1;rounded=0;entryX=0.39;entryY=1.16;entryDx=0;entryDy=0;entryPerimeter=0;" parent="1" target="Zykf1ZHxqBieM8WaJR_5-224" edge="1">
          <mxGeometry width="50" height="50" relative="1" as="geometry">
            <mxPoint x="378" y="40" as="sourcePoint" />
            <mxPoint x="380" y="-325" as="targetPoint" />
          </mxGeometry>
        </mxCell>
        <mxCell id="3dBxJELoftxvtEzv0rye-10" value="" style="rounded=0;whiteSpace=wrap;html=1;" parent="1" vertex="1">
          <mxGeometry x="560" y="-900" width="120" height="40" as="geometry" />
        </mxCell>
        <mxCell id="3dBxJELoftxvtEzv0rye-11" value="Controller" style="text;html=1;strokeColor=none;fillColor=none;align=center;verticalAlign=middle;whiteSpace=wrap;rounded=0;" parent="1" vertex="1">
          <mxGeometry x="590" y="-895" width="60" height="30" as="geometry" />
        </mxCell>
        <mxCell id="3dBxJELoftxvtEzv0rye-12" value="" style="endArrow=none;dashed=1;html=1;rounded=0;" parent="1" edge="1">
          <mxGeometry width="50" height="50" relative="1" as="geometry">
            <mxPoint x="621.22" y="-78" as="sourcePoint" />
            <mxPoint x="621.22" y="-258" as="targetPoint" />
          </mxGeometry>
        </mxCell>
        <mxCell id="3dBxJELoftxvtEzv0rye-13" value="" style="rounded=0;whiteSpace=wrap;html=1;direction=south;" parent="1" vertex="1">
          <mxGeometry x="614.22" y="-238" width="20" height="240" as="geometry" />
        </mxCell>
        <mxCell id="3dBxJELoftxvtEzv0rye-15" value="" style="rounded=0;whiteSpace=wrap;html=1;" parent="1" vertex="1">
          <mxGeometry x="800" y="-900" width="120" height="40" as="geometry" />
        </mxCell>
        <mxCell id="3dBxJELoftxvtEzv0rye-16" value="Database" style="text;html=1;strokeColor=none;fillColor=none;align=center;verticalAlign=middle;whiteSpace=wrap;rounded=0;" parent="1" vertex="1">
          <mxGeometry x="830" y="-895" width="60" height="30" as="geometry" />
        </mxCell>
        <mxCell id="3dBxJELoftxvtEzv0rye-19" value="" style="endArrow=none;dashed=1;html=1;rounded=0;entryX=1;entryY=0.5;entryDx=0;entryDy=0;" parent="1" target="3dBxJELoftxvtEzv0rye-20" edge="1">
          <mxGeometry width="50" height="50" relative="1" as="geometry">
            <mxPoint x="140" y="-34.199951171875" as="sourcePoint" />
            <mxPoint x="140" y="-105" as="targetPoint" />
            <Array as="points" />
          </mxGeometry>
        </mxCell>
        <mxCell id="3dBxJELoftxvtEzv0rye-20" value="" style="rounded=0;whiteSpace=wrap;html=1;direction=south;" parent="1" vertex="1">
          <mxGeometry x="130" y="-238" width="20" height="230" as="geometry" />
        </mxCell>
        <mxCell id="3dBxJELoftxvtEzv0rye-22" value="" style="rounded=0;whiteSpace=wrap;html=1;direction=south;" parent="1" vertex="1">
          <mxGeometry x="370" y="-238" width="20" height="240" as="geometry" />
        </mxCell>
        <mxCell id="3dBxJELoftxvtEzv0rye-24" style="edgeStyle=orthogonalEdgeStyle;rounded=0;orthogonalLoop=1;jettySize=auto;html=1;entryX=0.167;entryY=1;entryDx=0;entryDy=0;entryPerimeter=0;exitX=0.167;exitY=0;exitDx=0;exitDy=0;exitPerimeter=0;" parent="1" edge="1">
          <mxGeometry relative="1" as="geometry">
            <mxPoint x="161.5" y="-1240" as="sourcePoint" />
            <mxPoint x="381.5" y="-1240" as="targetPoint" />
          </mxGeometry>
        </mxCell>
        <mxCell id="3dBxJELoftxvtEzv0rye-25" value="" style="html=1;verticalAlign=bottom;labelBackgroundColor=none;endArrow=open;endFill=0;dashed=1;rounded=0;entryX=0.5;entryY=0;entryDx=0;entryDy=0;" parent="1" edge="1">
          <mxGeometry width="160" relative="1" as="geometry">
            <mxPoint x="371.5" y="-1210" as="sourcePoint" />
            <mxPoint x="161.5" y="-1210" as="targetPoint" />
            <Array as="points" />
          </mxGeometry>
        </mxCell>
        <mxCell id="3dBxJELoftxvtEzv0rye-26" value="" style="endArrow=open;startArrow=none;endFill=0;startFill=0;endSize=8;html=1;verticalAlign=bottom;labelBackgroundColor=none;strokeWidth=1;rounded=0;" parent="1" edge="1">
          <mxGeometry width="160" relative="1" as="geometry">
            <mxPoint x="171.5" y="-1175" as="sourcePoint" />
            <mxPoint x="371.5" y="-1175" as="targetPoint" />
            <Array as="points">
              <mxPoint x="271.5" y="-1175" />
              <mxPoint x="341.5" y="-1175.5" />
            </Array>
          </mxGeometry>
        </mxCell>
        <object label="Click order&#39;s make invoice button" placeholders="1" id="3dBxJELoftxvtEzv0rye-29">
          <mxCell style="text;html=1;strokeColor=none;fillColor=none;align=center;verticalAlign=middle;whiteSpace=wrap;rounded=0;container=0;" parent="1" vertex="1">
            <mxGeometry x="181.5" y="-1205.5" width="180" height="30" as="geometry" />
          </mxCell>
        </object>
        <object label="Click view orders button" placeholders="1" id="3dBxJELoftxvtEzv0rye-30">
          <mxCell style="text;html=1;strokeColor=none;fillColor=none;align=center;verticalAlign=middle;whiteSpace=wrap;rounded=0;container=0;" parent="1" vertex="1">
            <mxGeometry x="196.5" y="-1270" width="140" height="30" as="geometry" />
          </mxCell>
        </object>
        <object label="Display unpaid orders" placeholders="1" id="3dBxJELoftxvtEzv0rye-31">
          <mxCell style="text;html=1;strokeColor=none;fillColor=none;align=center;verticalAlign=middle;whiteSpace=wrap;rounded=0;container=0;" parent="1" vertex="1">
            <mxGeometry x="181.5" y="-1236.5" width="170" height="30" as="geometry" />
          </mxCell>
        </object>
        <mxCell id="3dBxJELoftxvtEzv0rye-32" value="" style="html=1;verticalAlign=bottom;labelBackgroundColor=none;endArrow=open;endFill=0;dashed=1;rounded=0;exitX=0.5;exitY=1;exitDx=0;exitDy=0;" parent="1" edge="1">
          <mxGeometry width="160" relative="1" as="geometry">
            <mxPoint x="861.5" y="-1210" as="sourcePoint" />
            <mxPoint x="641.5" y="-1210" as="targetPoint" />
            <Array as="points" />
          </mxGeometry>
        </mxCell>
        <mxCell id="3dBxJELoftxvtEzv0rye-33" value="Send unpaid orders" style="text;html=1;strokeColor=none;fillColor=none;align=center;verticalAlign=middle;whiteSpace=wrap;rounded=0;" parent="1" vertex="1">
          <mxGeometry x="671.5" y="-1240" width="160" height="30" as="geometry" />
        </mxCell>
        <mxCell id="3dBxJELoftxvtEzv0rye-34" value="" style="html=1;verticalAlign=bottom;labelBackgroundColor=none;endArrow=open;endFill=0;dashed=1;rounded=0;entryX=0.5;entryY=0;entryDx=0;entryDy=0;exitX=0.5;exitY=1;exitDx=0;exitDy=0;" parent="1" edge="1">
          <mxGeometry width="160" relative="1" as="geometry">
            <mxPoint x="621.5" y="-1210" as="sourcePoint" />
            <mxPoint x="401.5" y="-1210" as="targetPoint" />
            <Array as="points" />
          </mxGeometry>
        </mxCell>
        <mxCell id="3dBxJELoftxvtEzv0rye-35" value="Display unpaid orders" style="text;html=1;strokeColor=none;fillColor=none;align=center;verticalAlign=middle;whiteSpace=wrap;rounded=0;" parent="1" vertex="1">
          <mxGeometry x="426.5" y="-1240" width="170" height="30" as="geometry" />
        </mxCell>
        <mxCell id="3dBxJELoftxvtEzv0rye-63" value="" style="endArrow=none;dashed=1;html=1;rounded=0;entryX=0.5;entryY=1;entryDx=0;entryDy=0;" parent="1" target="3dBxJELoftxvtEzv0rye-10" edge="1">
          <mxGeometry width="50" height="50" relative="1" as="geometry">
            <mxPoint x="620" y="-520" as="sourcePoint" />
            <mxPoint x="29.978260869565247" y="-915" as="targetPoint" />
          </mxGeometry>
        </mxCell>
        <mxCell id="3dBxJELoftxvtEzv0rye-64" value="" style="endArrow=none;dashed=1;html=1;rounded=0;entryX=0.5;entryY=1;entryDx=0;entryDy=0;" parent="1" target="3dBxJELoftxvtEzv0rye-15" edge="1">
          <mxGeometry width="50" height="50" relative="1" as="geometry">
            <mxPoint x="860" y="-530" as="sourcePoint" />
            <mxPoint x="269.97826086956525" y="-915" as="targetPoint" />
          </mxGeometry>
        </mxCell>
        <mxCell id="3dBxJELoftxvtEzv0rye-65" style="edgeStyle=orthogonalEdgeStyle;rounded=0;orthogonalLoop=1;jettySize=auto;html=1;entryX=0.167;entryY=1;entryDx=0;entryDy=0;entryPerimeter=0;exitX=0.167;exitY=0;exitDx=0;exitDy=0;exitPerimeter=0;" parent="1" edge="1">
          <mxGeometry relative="1" as="geometry">
            <mxPoint x="401.5" y="-1240" as="sourcePoint" />
            <mxPoint x="621.5" y="-1240" as="targetPoint" />
            <Array as="points">
              <mxPoint x="461.5" y="-1240" />
              <mxPoint x="461.5" y="-1240" />
            </Array>
          </mxGeometry>
        </mxCell>
        <mxCell id="3dBxJELoftxvtEzv0rye-66" style="edgeStyle=orthogonalEdgeStyle;rounded=0;orthogonalLoop=1;jettySize=auto;html=1;entryX=0.167;entryY=1;entryDx=0;entryDy=0;entryPerimeter=0;exitX=0.167;exitY=0;exitDx=0;exitDy=0;exitPerimeter=0;" parent="1" edge="1">
          <mxGeometry relative="1" as="geometry">
            <mxPoint x="641.5" y="-1240" as="sourcePoint" />
            <mxPoint x="861.5" y="-1240" as="targetPoint" />
          </mxGeometry>
        </mxCell>
        <mxCell id="3dBxJELoftxvtEzv0rye-67" value="Send" style="text;html=1;strokeColor=none;fillColor=none;align=center;verticalAlign=middle;whiteSpace=wrap;rounded=0;" parent="1" vertex="1">
          <mxGeometry x="481.5" y="-1270" width="60" height="30" as="geometry" />
        </mxCell>
        <mxCell id="3dBxJELoftxvtEzv0rye-68" value="Filter unpaid orders" style="text;html=1;strokeColor=none;fillColor=none;align=center;verticalAlign=middle;whiteSpace=wrap;rounded=0;" parent="1" vertex="1">
          <mxGeometry x="676.5" y="-1270" width="150" height="30" as="geometry" />
        </mxCell>
        <mxCell id="3dBxJELoftxvtEzv0rye-69" value="4. cashier" style="text;html=1;align=center;verticalAlign=middle;whiteSpace=wrap;rounded=0;" parent="1" vertex="1">
          <mxGeometry x="76.82" y="-1070" width="130" height="30" as="geometry" />
        </mxCell>
        <mxCell id="3dBxJELoftxvtEzv0rye-70" value="" style="rounded=0;whiteSpace=wrap;html=1;" parent="1" vertex="1">
          <mxGeometry x="320" y="759" width="120" height="40" as="geometry" />
        </mxCell>
        <mxCell id="3dBxJELoftxvtEzv0rye-72" value="" style="endArrow=none;dashed=1;html=1;rounded=0;" parent="1" source="3dBxJELoftxvtEzv0rye-74" edge="1">
          <mxGeometry width="50" height="50" relative="1" as="geometry">
            <mxPoint x="140" y="859" as="sourcePoint" />
            <mxPoint x="140" y="799" as="targetPoint" />
            <Array as="points" />
          </mxGeometry>
        </mxCell>
        <mxCell id="3dBxJELoftxvtEzv0rye-75" value="Front end" style="text;html=1;strokeColor=none;fillColor=none;align=center;verticalAlign=middle;whiteSpace=wrap;rounded=0;" parent="1" vertex="1">
          <mxGeometry x="350" y="764" width="60" height="30" as="geometry" />
        </mxCell>
        <mxCell id="3dBxJELoftxvtEzv0rye-76" value="4.6 Generate Income Report" style="text;html=1;align=center;verticalAlign=middle;whiteSpace=wrap;rounded=0;" parent="1" vertex="1">
          <mxGeometry x="110" y="699" width="160" height="30" as="geometry" />
        </mxCell>
        <mxCell id="3dBxJELoftxvtEzv0rye-78" value="" style="endArrow=none;dashed=1;html=1;rounded=0;" parent="1" source="3dBxJELoftxvtEzv0rye-91" edge="1">
          <mxGeometry width="50" height="50" relative="1" as="geometry">
            <mxPoint x="380" y="1010" as="sourcePoint" />
            <mxPoint x="380" y="810" as="targetPoint" />
          </mxGeometry>
        </mxCell>
        <mxCell id="3dBxJELoftxvtEzv0rye-79" value="" style="rounded=0;whiteSpace=wrap;html=1;" parent="1" vertex="1">
          <mxGeometry x="560" y="759" width="120" height="40" as="geometry" />
        </mxCell>
        <mxCell id="3dBxJELoftxvtEzv0rye-80" value="Controller" style="text;html=1;strokeColor=none;fillColor=none;align=center;verticalAlign=middle;whiteSpace=wrap;rounded=0;" parent="1" vertex="1">
          <mxGeometry x="590" y="764" width="60" height="30" as="geometry" />
        </mxCell>
        <mxCell id="3dBxJELoftxvtEzv0rye-81" value="" style="endArrow=none;dashed=1;html=1;rounded=0;" parent="1" edge="1">
          <mxGeometry width="50" height="50" relative="1" as="geometry">
            <mxPoint x="620" y="1070" as="sourcePoint" />
            <mxPoint x="620" y="810" as="targetPoint" />
          </mxGeometry>
        </mxCell>
        <mxCell id="3dBxJELoftxvtEzv0rye-82" value="" style="rounded=0;whiteSpace=wrap;html=1;direction=south;" parent="1" vertex="1">
          <mxGeometry x="610" y="930" width="20" height="110" as="geometry" />
        </mxCell>
        <mxCell id="3dBxJELoftxvtEzv0rye-84" value="" style="rounded=0;whiteSpace=wrap;html=1;" parent="1" vertex="1">
          <mxGeometry x="800" y="759" width="120" height="40" as="geometry" />
        </mxCell>
        <mxCell id="3dBxJELoftxvtEzv0rye-85" value="Database" style="text;html=1;strokeColor=none;fillColor=none;align=center;verticalAlign=middle;whiteSpace=wrap;rounded=0;" parent="1" vertex="1">
          <mxGeometry x="830" y="764" width="60" height="30" as="geometry" />
        </mxCell>
        <mxCell id="3dBxJELoftxvtEzv0rye-86" value="" style="endArrow=none;dashed=1;html=1;rounded=0;" parent="1" source="3dBxJELoftxvtEzv0rye-87" edge="1">
          <mxGeometry width="50" height="50" relative="1" as="geometry">
            <mxPoint x="860" y="1060" as="sourcePoint" />
            <mxPoint x="860" y="810" as="targetPoint" />
          </mxGeometry>
        </mxCell>
        <mxCell id="3dBxJELoftxvtEzv0rye-88" value="" style="endArrow=none;dashed=1;html=1;rounded=0;" parent="1" target="3dBxJELoftxvtEzv0rye-89" edge="1">
          <mxGeometry width="50" height="50" relative="1" as="geometry">
            <mxPoint x="140" y="1070" as="sourcePoint" />
            <mxPoint x="140" y="810" as="targetPoint" />
            <Array as="points" />
          </mxGeometry>
        </mxCell>
        <mxCell id="3dBxJELoftxvtEzv0rye-89" value="" style="rounded=0;whiteSpace=wrap;html=1;direction=south;" parent="1" vertex="1">
          <mxGeometry x="130" y="840" width="20" height="200" as="geometry" />
        </mxCell>
        <mxCell id="3dBxJELoftxvtEzv0rye-90" value="" style="endArrow=none;dashed=1;html=1;rounded=0;" parent="1" target="3dBxJELoftxvtEzv0rye-91" edge="1">
          <mxGeometry width="50" height="50" relative="1" as="geometry">
            <mxPoint x="380" y="1070" as="sourcePoint" />
            <mxPoint x="380" y="810" as="targetPoint" />
          </mxGeometry>
        </mxCell>
        <mxCell id="3dBxJELoftxvtEzv0rye-91" value="" style="rounded=0;whiteSpace=wrap;html=1;direction=south;" parent="1" vertex="1">
          <mxGeometry x="370" y="840" width="20" height="200" as="geometry" />
        </mxCell>
        <mxCell id="3dBxJELoftxvtEzv0rye-93" style="edgeStyle=orthogonalEdgeStyle;rounded=0;orthogonalLoop=1;jettySize=auto;html=1;entryX=0.167;entryY=1;entryDx=0;entryDy=0;entryPerimeter=0;exitX=0.167;exitY=0;exitDx=0;exitDy=0;exitPerimeter=0;" parent="1" edge="1">
          <mxGeometry relative="1" as="geometry">
            <mxPoint x="150" y="860" as="sourcePoint" />
            <mxPoint x="370" y="860" as="targetPoint" />
          </mxGeometry>
        </mxCell>
        <mxCell id="3dBxJELoftxvtEzv0rye-94" value="" style="html=1;verticalAlign=bottom;labelBackgroundColor=none;endArrow=open;endFill=0;dashed=1;rounded=0;entryX=0.5;entryY=0;entryDx=0;entryDy=0;exitX=0.5;exitY=1;exitDx=0;exitDy=0;" parent="1" edge="1">
          <mxGeometry width="160" relative="1" as="geometry">
            <mxPoint x="370" y="890" as="sourcePoint" />
            <mxPoint x="150" y="890" as="targetPoint" />
            <Array as="points" />
          </mxGeometry>
        </mxCell>
        <object label="Select generate income report option" placeholders="1" id="3dBxJELoftxvtEzv0rye-99">
          <mxCell style="text;html=1;strokeColor=none;fillColor=none;align=center;verticalAlign=middle;whiteSpace=wrap;rounded=0;container=0;" parent="1" vertex="1">
            <mxGeometry x="160" y="830" width="200" height="30" as="geometry" />
          </mxCell>
        </object>
        <object label="Display window" placeholders="1" id="3dBxJELoftxvtEzv0rye-100">
          <mxCell style="text;html=1;strokeColor=none;fillColor=none;align=center;verticalAlign=middle;whiteSpace=wrap;rounded=0;container=0;" parent="1" vertex="1">
            <mxGeometry x="170" y="863.5" width="170" height="30" as="geometry" />
          </mxCell>
        </object>
        <mxCell id="3dBxJELoftxvtEzv0rye-101" value="" style="html=1;verticalAlign=bottom;labelBackgroundColor=none;endArrow=open;endFill=0;dashed=1;rounded=0;exitX=0.5;exitY=1;exitDx=0;exitDy=0;" parent="1" edge="1">
          <mxGeometry width="160" relative="1" as="geometry">
            <mxPoint x="860" y="980" as="sourcePoint" />
            <mxPoint x="640" y="980" as="targetPoint" />
            <Array as="points" />
          </mxGeometry>
        </mxCell>
        <mxCell id="3dBxJELoftxvtEzv0rye-102" value="send report" style="text;html=1;strokeColor=none;fillColor=none;align=center;verticalAlign=middle;whiteSpace=wrap;rounded=0;" parent="1" vertex="1">
          <mxGeometry x="660" y="950" width="160" height="30" as="geometry" />
        </mxCell>
        <mxCell id="3dBxJELoftxvtEzv0rye-103" value="" style="html=1;verticalAlign=bottom;labelBackgroundColor=none;endArrow=open;endFill=0;dashed=1;rounded=0;entryX=0.5;entryY=0;entryDx=0;entryDy=0;exitX=0.5;exitY=1;exitDx=0;exitDy=0;" parent="1" edge="1">
          <mxGeometry width="160" relative="1" as="geometry">
            <mxPoint x="610" y="980" as="sourcePoint" />
            <mxPoint x="390" y="980" as="targetPoint" />
            <Array as="points" />
          </mxGeometry>
        </mxCell>
        <mxCell id="3dBxJELoftxvtEzv0rye-104" value="Display report" style="text;html=1;strokeColor=none;fillColor=none;align=center;verticalAlign=middle;whiteSpace=wrap;rounded=0;" parent="1" vertex="1">
          <mxGeometry x="415" y="950" width="170" height="30" as="geometry" />
        </mxCell>
        <mxCell id="3dBxJELoftxvtEzv0rye-134" style="edgeStyle=orthogonalEdgeStyle;rounded=0;orthogonalLoop=1;jettySize=auto;html=1;entryX=0.167;entryY=1;entryDx=0;entryDy=0;entryPerimeter=0;exitX=0.167;exitY=0;exitDx=0;exitDy=0;exitPerimeter=0;" parent="1" edge="1">
          <mxGeometry relative="1" as="geometry">
            <mxPoint x="390" y="940" as="sourcePoint" />
            <mxPoint x="610" y="940" as="targetPoint" />
          </mxGeometry>
        </mxCell>
        <mxCell id="3dBxJELoftxvtEzv0rye-135" style="edgeStyle=orthogonalEdgeStyle;rounded=0;orthogonalLoop=1;jettySize=auto;html=1;entryX=0.167;entryY=1;entryDx=0;entryDy=0;entryPerimeter=0;exitX=0.167;exitY=0;exitDx=0;exitDy=0;exitPerimeter=0;" parent="1" edge="1">
          <mxGeometry relative="1" as="geometry">
            <mxPoint x="630" y="940" as="sourcePoint" />
            <mxPoint x="850" y="940" as="targetPoint" />
          </mxGeometry>
        </mxCell>
        <mxCell id="3dBxJELoftxvtEzv0rye-136" value="Send" style="text;html=1;strokeColor=none;fillColor=none;align=center;verticalAlign=middle;whiteSpace=wrap;rounded=0;" parent="1" vertex="1">
          <mxGeometry x="475" y="910" width="60" height="30" as="geometry" />
        </mxCell>
        <mxCell id="3dBxJELoftxvtEzv0rye-137" value="generate income report" style="text;html=1;strokeColor=none;fillColor=none;align=center;verticalAlign=middle;whiteSpace=wrap;rounded=0;" parent="1" vertex="1">
          <mxGeometry x="660" y="910" width="150" height="30" as="geometry" />
        </mxCell>
        <mxCell id="3dBxJELoftxvtEzv0rye-138" value="4. cashier" style="text;html=1;align=center;verticalAlign=middle;whiteSpace=wrap;rounded=0;" parent="1" vertex="1">
          <mxGeometry x="110" y="649" width="130" height="30" as="geometry" />
        </mxCell>
        <mxCell id="3dBxJELoftxvtEzv0rye-140" value="" style="endArrow=open;startArrow=none;endFill=0;startFill=0;endSize=8;html=1;verticalAlign=bottom;labelBackgroundColor=none;strokeWidth=1;rounded=0;" parent="1" edge="1">
          <mxGeometry width="160" relative="1" as="geometry">
            <mxPoint x="170" y="-197.5" as="sourcePoint" />
            <mxPoint x="370" y="-197.5" as="targetPoint" />
            <Array as="points">
              <mxPoint x="270" y="-197.5" />
              <mxPoint x="340" y="-198" />
            </Array>
          </mxGeometry>
        </mxCell>
        <mxCell id="3dBxJELoftxvtEzv0rye-143" value="" style="endArrow=open;startArrow=none;endFill=0;startFill=0;endSize=8;html=1;verticalAlign=bottom;labelBackgroundColor=none;strokeWidth=1;rounded=0;" parent="1" edge="1">
          <mxGeometry width="160" relative="1" as="geometry">
            <mxPoint x="410" y="-197" as="sourcePoint" />
            <mxPoint x="610" y="-198" as="targetPoint" />
            <Array as="points">
              <mxPoint x="425" y="-197.5" />
              <mxPoint x="495" y="-198" />
            </Array>
          </mxGeometry>
        </mxCell>
        <mxCell id="3dBxJELoftxvtEzv0rye-144" value="" style="endArrow=open;startArrow=none;endFill=0;startFill=0;endSize=8;html=1;verticalAlign=bottom;labelBackgroundColor=none;strokeWidth=1;rounded=0;" parent="1" edge="1">
          <mxGeometry width="160" relative="1" as="geometry">
            <mxPoint x="170" y="-68.5" as="sourcePoint" />
            <mxPoint x="370" y="-68.5" as="targetPoint" />
            <Array as="points">
              <mxPoint x="340" y="-69" />
            </Array>
          </mxGeometry>
        </mxCell>
        <mxCell id="3dBxJELoftxvtEzv0rye-145" value="" style="endArrow=open;startArrow=none;endFill=0;startFill=0;endSize=8;html=1;verticalAlign=bottom;labelBackgroundColor=none;strokeWidth=1;rounded=0;" parent="1" edge="1">
          <mxGeometry width="160" relative="1" as="geometry">
            <mxPoint x="650" y="-68" as="sourcePoint" />
            <mxPoint x="1330" y="-68" as="targetPoint" />
            <Array as="points" />
          </mxGeometry>
        </mxCell>
        <object label="Send Email" placeholders="1" id="3dBxJELoftxvtEzv0rye-147">
          <mxCell style="text;html=1;strokeColor=none;fillColor=none;align=center;verticalAlign=middle;whiteSpace=wrap;rounded=0;container=0;" parent="1" vertex="1">
            <mxGeometry x="930" y="-98" width="100" height="30" as="geometry" />
          </mxCell>
        </object>
        <object label="Enter customer Email address &amp;amp; Send button" placeholders="1" id="3dBxJELoftxvtEzv0rye-148">
          <mxCell style="text;html=1;strokeColor=none;fillColor=none;align=center;verticalAlign=middle;whiteSpace=wrap;rounded=0;container=0;" parent="1" vertex="1">
            <mxGeometry x="170" y="-98" width="180" height="30" as="geometry" />
          </mxCell>
        </object>
        <object label="Send print bill" placeholders="1" id="3dBxJELoftxvtEzv0rye-149">
          <mxCell style="text;html=1;strokeColor=none;fillColor=none;align=center;verticalAlign=middle;whiteSpace=wrap;rounded=0;container=0;" parent="1" vertex="1">
            <mxGeometry x="450" y="-228" width="100" height="30" as="geometry" />
          </mxCell>
        </object>
        <object label="Enter print button" placeholders="1" id="3dBxJELoftxvtEzv0rye-150">
          <mxCell style="text;html=1;strokeColor=none;fillColor=none;align=center;verticalAlign=middle;whiteSpace=wrap;rounded=0;container=0;" parent="1" vertex="1">
            <mxGeometry x="210" y="-228" width="100" height="30" as="geometry" />
          </mxCell>
        </object>
        <mxCell id="3dBxJELoftxvtEzv0rye-153" value="" style="endArrow=none;dashed=1;html=1;rounded=0;" parent="1" target="3dBxJELoftxvtEzv0rye-87" edge="1">
          <mxGeometry width="50" height="50" relative="1" as="geometry">
            <mxPoint x="860" y="1060" as="sourcePoint" />
            <mxPoint x="860" y="810" as="targetPoint" />
          </mxGeometry>
        </mxCell>
        <mxCell id="3dBxJELoftxvtEzv0rye-87" value="" style="rounded=0;whiteSpace=wrap;html=1;direction=south;" parent="1" vertex="1">
          <mxGeometry x="850" y="930" width="20" height="110" as="geometry" />
        </mxCell>
        <object label="Fill filter area" placeholders="1" id="3dBxJELoftxvtEzv0rye-156">
          <mxCell style="text;html=1;strokeColor=none;fillColor=none;align=center;verticalAlign=middle;whiteSpace=wrap;rounded=0;container=0;" parent="1" vertex="1">
            <mxGeometry x="165" y="910" width="200" height="30" as="geometry" />
          </mxCell>
        </object>
        <mxCell id="3dBxJELoftxvtEzv0rye-158" value="" style="html=1;verticalAlign=bottom;labelBackgroundColor=none;endArrow=open;endFill=0;dashed=1;rounded=0;" parent="1" edge="1">
          <mxGeometry width="160" relative="1" as="geometry">
            <mxPoint x="360" y="980" as="sourcePoint" />
            <mxPoint x="160" y="980" as="targetPoint" />
            <Array as="points" />
          </mxGeometry>
        </mxCell>
        <mxCell id="3dBxJELoftxvtEzv0rye-159" style="edgeStyle=orthogonalEdgeStyle;rounded=0;orthogonalLoop=1;jettySize=auto;html=1;entryX=0.2;entryY=1.16;entryDx=0;entryDy=0;entryPerimeter=0;" parent="1" edge="1">
          <mxGeometry relative="1" as="geometry">
            <mxPoint x="160" y="940" as="sourcePoint" />
            <mxPoint x="367" y="940" as="targetPoint" />
          </mxGeometry>
        </mxCell>
        <mxCell id="DqrlwgRpEu3_FZxMgq2P-2" value="" style="html=1;verticalAlign=bottom;labelBackgroundColor=none;endArrow=open;endFill=0;dashed=1;rounded=0;" parent="1" edge="1">
          <mxGeometry width="160" relative="1" as="geometry">
            <mxPoint x="602.5" y="1020" as="sourcePoint" />
            <mxPoint x="397.5" y="1020" as="targetPoint" />
            <Array as="points" />
          </mxGeometry>
        </mxCell>
        <mxCell id="DqrlwgRpEu3_FZxMgq2P-3" value="" style="html=1;verticalAlign=bottom;labelBackgroundColor=none;endArrow=open;endFill=0;dashed=1;rounded=0;" parent="1" edge="1">
          <mxGeometry width="160" relative="1" as="geometry">
            <mxPoint x="842.5" y="1020" as="sourcePoint" />
            <mxPoint x="637.5" y="1020" as="targetPoint" />
            <Array as="points" />
          </mxGeometry>
        </mxCell>
        <mxCell id="DqrlwgRpEu3_FZxMgq2P-4" value="" style="html=1;verticalAlign=bottom;labelBackgroundColor=none;endArrow=open;endFill=0;dashed=1;rounded=0;" parent="1" edge="1">
          <mxGeometry width="160" relative="1" as="geometry">
            <mxPoint x="362.5" y="1020" as="sourcePoint" />
            <mxPoint x="157.5" y="1020" as="targetPoint" />
            <Array as="points" />
          </mxGeometry>
        </mxCell>
        <object label="Display error massage" placeholders="1" id="DqrlwgRpEu3_FZxMgq2P-5">
          <mxCell style="text;html=1;strokeColor=none;fillColor=none;align=center;verticalAlign=middle;whiteSpace=wrap;rounded=0;container=0;" parent="1" vertex="1">
            <mxGeometry x="195" y="990" width="135" height="30" as="geometry" />
          </mxCell>
        </object>
        <object label="error" placeholders="1" id="DqrlwgRpEu3_FZxMgq2P-6">
          <mxCell style="text;html=1;strokeColor=none;fillColor=none;align=center;verticalAlign=middle;whiteSpace=wrap;rounded=0;container=0;" parent="1" vertex="1">
            <mxGeometry x="457.5" y="990" width="100" height="30" as="geometry" />
          </mxCell>
        </object>
        <object label="error" placeholders="1" id="DqrlwgRpEu3_FZxMgq2P-7">
          <mxCell style="text;html=1;strokeColor=none;fillColor=none;align=center;verticalAlign=middle;whiteSpace=wrap;rounded=0;container=0;" parent="1" vertex="1">
            <mxGeometry x="697.5" y="990" width="100" height="30" as="geometry" />
          </mxCell>
        </object>
        <mxCell id="DqrlwgRpEu3_FZxMgq2P-8" value="" style="html=1;verticalAlign=bottom;labelBackgroundColor=none;endArrow=open;endFill=0;dashed=1;rounded=0;" parent="1" edge="1">
          <mxGeometry width="160" relative="1" as="geometry">
            <mxPoint x="600" y="-168" as="sourcePoint" />
            <mxPoint x="407.5" y="-168" as="targetPoint" />
            <Array as="points" />
          </mxGeometry>
        </mxCell>
        <mxCell id="DqrlwgRpEu3_FZxMgq2P-10" value="" style="html=1;verticalAlign=bottom;labelBackgroundColor=none;endArrow=open;endFill=0;dashed=1;rounded=0;" parent="1" edge="1">
          <mxGeometry width="160" relative="1" as="geometry">
            <mxPoint x="372.5" y="-168" as="sourcePoint" />
            <mxPoint x="167.5" y="-168" as="targetPoint" />
            <Array as="points" />
          </mxGeometry>
        </mxCell>
        <object label="Display error massage" placeholders="1" id="DqrlwgRpEu3_FZxMgq2P-11">
          <mxCell style="text;html=1;strokeColor=none;fillColor=none;align=center;verticalAlign=middle;whiteSpace=wrap;rounded=0;container=0;" parent="1" vertex="1">
            <mxGeometry x="205" y="-198" width="135" height="30" as="geometry" />
          </mxCell>
        </object>
        <object label="error" placeholders="1" id="DqrlwgRpEu3_FZxMgq2P-12">
          <mxCell style="text;html=1;strokeColor=none;fillColor=none;align=center;verticalAlign=middle;whiteSpace=wrap;rounded=0;container=0;" parent="1" vertex="1">
            <mxGeometry x="460" y="-198" width="100" height="30" as="geometry" />
          </mxCell>
        </object>
        <mxCell id="DqrlwgRpEu3_FZxMgq2P-17" value="" style="endArrow=none;dashed=1;html=1;rounded=0;" parent="1" edge="1">
          <mxGeometry width="50" height="50" relative="1" as="geometry">
            <mxPoint x="620" y="30" as="sourcePoint" />
            <mxPoint x="620" y="-65" as="targetPoint" />
          </mxGeometry>
        </mxCell>
        <mxCell id="DqrlwgRpEu3_FZxMgq2P-22" value="" style="endArrow=none;dashed=1;html=1;rounded=0;entryX=0.5;entryY=1;entryDx=0;entryDy=0;" parent="1" target="DqrlwgRpEu3_FZxMgq2P-40" edge="1">
          <mxGeometry width="50" height="50" relative="1" as="geometry">
            <mxPoint x="1100" y="20" as="sourcePoint" />
            <mxPoint x="550" y="-223" as="targetPoint" />
          </mxGeometry>
        </mxCell>
        <mxCell id="DqrlwgRpEu3_FZxMgq2P-19" value="" style="rounded=0;whiteSpace=wrap;html=1;direction=south;" parent="1" vertex="1">
          <mxGeometry x="1091.25" y="-218" width="17.5" height="70" as="geometry" />
        </mxCell>
        <mxCell id="DqrlwgRpEu3_FZxMgq2P-26" value="" style="html=1;verticalAlign=bottom;labelBackgroundColor=none;endArrow=open;endFill=0;dashed=1;rounded=0;" parent="1" edge="1">
          <mxGeometry width="160" relative="1" as="geometry">
            <mxPoint x="365" y="-38" as="sourcePoint" />
            <mxPoint x="160" y="-38" as="targetPoint" />
            <Array as="points" />
          </mxGeometry>
        </mxCell>
        <object label="Display error massage" placeholders="1" id="DqrlwgRpEu3_FZxMgq2P-27">
          <mxCell style="text;html=1;strokeColor=none;fillColor=none;align=center;verticalAlign=middle;whiteSpace=wrap;rounded=0;container=0;" parent="1" vertex="1">
            <mxGeometry x="197.5" y="-68" width="135" height="30" as="geometry" />
          </mxCell>
        </object>
        <mxCell id="DqrlwgRpEu3_FZxMgq2P-32" value="" style="rounded=0;whiteSpace=wrap;html=1;direction=south;" parent="1" vertex="1">
          <mxGeometry x="1332.5" y="-93" width="17.5" height="55" as="geometry" />
        </mxCell>
        <mxCell id="DqrlwgRpEu3_FZxMgq2P-37" value="" style="rounded=0;whiteSpace=wrap;html=1;" parent="1" vertex="1">
          <mxGeometry x="1275" y="-325.5" width="120" height="40" as="geometry" />
        </mxCell>
        <mxCell id="DqrlwgRpEu3_FZxMgq2P-38" value="Email Server" style="text;html=1;strokeColor=none;fillColor=none;align=center;verticalAlign=middle;whiteSpace=wrap;rounded=0;" parent="1" vertex="1">
          <mxGeometry x="1305" y="-320.5" width="60" height="30" as="geometry" />
        </mxCell>
        <mxCell id="DqrlwgRpEu3_FZxMgq2P-39" value="" style="rounded=0;whiteSpace=wrap;html=1;" parent="1" vertex="1">
          <mxGeometry x="1040" y="-328" width="120" height="40" as="geometry" />
        </mxCell>
        <mxCell id="DqrlwgRpEu3_FZxMgq2P-40" value="Printer" style="text;html=1;strokeColor=none;fillColor=none;align=center;verticalAlign=middle;whiteSpace=wrap;rounded=0;" parent="1" vertex="1">
          <mxGeometry x="1070" y="-323" width="50" height="35" as="geometry" />
        </mxCell>
        <mxCell id="DqrlwgRpEu3_FZxMgq2P-44" value="" style="endArrow=open;startArrow=none;endFill=0;startFill=0;endSize=8;html=1;verticalAlign=bottom;labelBackgroundColor=none;strokeWidth=1;rounded=0;entryX=0.25;entryY=1;entryDx=0;entryDy=0;" parent="1" target="DqrlwgRpEu3_FZxMgq2P-19" edge="1">
          <mxGeometry width="160" relative="1" as="geometry">
            <mxPoint x="630" y="-197" as="sourcePoint" />
            <mxPoint x="830" y="-198" as="targetPoint" />
            <Array as="points">
              <mxPoint x="645" y="-197.5" />
              <mxPoint x="715" y="-198" />
            </Array>
          </mxGeometry>
        </mxCell>
        <object label="print bill" placeholders="1" id="DqrlwgRpEu3_FZxMgq2P-45">
          <mxCell style="text;html=1;strokeColor=none;fillColor=none;align=center;verticalAlign=middle;whiteSpace=wrap;rounded=0;container=0;" parent="1" vertex="1">
            <mxGeometry x="810" y="-228" width="100" height="30" as="geometry" />
          </mxCell>
        </object>
        <mxCell id="DqrlwgRpEu3_FZxMgq2P-48" value="" style="endArrow=open;startArrow=none;endFill=0;startFill=0;endSize=8;html=1;verticalAlign=bottom;labelBackgroundColor=none;strokeWidth=1;rounded=0;" parent="1" edge="1">
          <mxGeometry width="160" relative="1" as="geometry">
            <mxPoint x="405" y="-68" as="sourcePoint" />
            <mxPoint x="605" y="-69" as="targetPoint" />
            <Array as="points">
              <mxPoint x="420" y="-68.5" />
              <mxPoint x="490" y="-69" />
            </Array>
          </mxGeometry>
        </mxCell>
        <mxCell id="DqrlwgRpEu3_FZxMgq2P-49" value="" style="html=1;verticalAlign=bottom;labelBackgroundColor=none;endArrow=open;endFill=0;dashed=1;rounded=0;" parent="1" edge="1">
          <mxGeometry width="160" relative="1" as="geometry">
            <mxPoint x="591.25" y="-39" as="sourcePoint" />
            <mxPoint x="398.75" y="-39" as="targetPoint" />
            <Array as="points" />
          </mxGeometry>
        </mxCell>
        <object label="Send Email" placeholders="1" id="DqrlwgRpEu3_FZxMgq2P-50">
          <mxCell style="text;html=1;strokeColor=none;fillColor=none;align=center;verticalAlign=middle;whiteSpace=wrap;rounded=0;container=0;" parent="1" vertex="1">
            <mxGeometry x="445" y="-108" width="100" height="30" as="geometry" />
          </mxCell>
        </object>
        <object label="error" placeholders="1" id="DqrlwgRpEu3_FZxMgq2P-51">
          <mxCell style="text;html=1;strokeColor=none;fillColor=none;align=center;verticalAlign=middle;whiteSpace=wrap;rounded=0;container=0;" parent="1" vertex="1">
            <mxGeometry x="450" y="-68" width="100" height="30" as="geometry" />
          </mxCell>
        </object>
        <mxCell id="DqrlwgRpEu3_FZxMgq2P-54" value="" style="rounded=0;whiteSpace=wrap;html=1;direction=south;" parent="1" vertex="1">
          <mxGeometry x="1572.5" y="-93" width="17.5" height="55" as="geometry" />
        </mxCell>
        <mxCell id="DqrlwgRpEu3_FZxMgq2P-56" value="" style="rounded=0;whiteSpace=wrap;html=1;" parent="1" vertex="1">
          <mxGeometry x="1490" y="-325.5" width="120" height="40" as="geometry" />
        </mxCell>
        <mxCell id="DqrlwgRpEu3_FZxMgq2P-55" value="customer&#39;s device" style="text;html=1;strokeColor=none;fillColor=none;align=center;verticalAlign=middle;whiteSpace=wrap;rounded=0;" parent="1" vertex="1">
          <mxGeometry x="1520" y="-323" width="60" height="30" as="geometry" />
        </mxCell>
        <mxCell id="DqrlwgRpEu3_FZxMgq2P-57" value="" style="endArrow=open;startArrow=none;endFill=0;startFill=0;endSize=8;html=1;verticalAlign=bottom;labelBackgroundColor=none;strokeWidth=1;rounded=0;" parent="1" edge="1">
          <mxGeometry width="160" relative="1" as="geometry">
            <mxPoint x="1360" y="-67" as="sourcePoint" />
            <mxPoint x="1560" y="-68" as="targetPoint" />
            <Array as="points">
              <mxPoint x="1375" y="-67.5" />
              <mxPoint x="1445" y="-68" />
            </Array>
          </mxGeometry>
        </mxCell>
        <object label="Display Email" placeholders="1" id="DqrlwgRpEu3_FZxMgq2P-58">
          <mxCell style="text;html=1;strokeColor=none;fillColor=none;align=center;verticalAlign=middle;whiteSpace=wrap;rounded=0;container=0;" parent="1" vertex="1">
            <mxGeometry x="1410" y="-98" width="100" height="30" as="geometry" />
          </mxCell>
        </object>
        <mxCell id="eMAFhq8CC5D41B3n5qsW-1" value="Display report" style="text;html=1;strokeColor=none;fillColor=none;align=center;verticalAlign=middle;whiteSpace=wrap;rounded=0;" parent="1" vertex="1">
          <mxGeometry x="180" y="950" width="170" height="30" as="geometry" />
        </mxCell>
        <mxCell id="eMAFhq8CC5D41B3n5qsW-2" value="" style="rounded=0;whiteSpace=wrap;html=1;" parent="1" vertex="1">
          <mxGeometry x="425.86" y="3518" width="120" height="40" as="geometry" />
        </mxCell>
        <mxCell id="eMAFhq8CC5D41B3n5qsW-6" value="Cashier" style="text;html=1;strokeColor=none;fillColor=none;align=center;verticalAlign=middle;whiteSpace=wrap;rounded=0;" parent="1" vertex="1">
          <mxGeometry x="216.56" y="3558" width="60" height="30" as="geometry" />
        </mxCell>
        <mxCell id="eMAFhq8CC5D41B3n5qsW-7" value="Front end" style="text;html=1;strokeColor=none;fillColor=none;align=center;verticalAlign=middle;whiteSpace=wrap;rounded=0;" parent="1" vertex="1">
          <mxGeometry x="455.86" y="3523" width="60" height="30" as="geometry" />
        </mxCell>
        <mxCell id="eMAFhq8CC5D41B3n5qsW-8" value="4.10 Logout" style="text;html=1;align=center;verticalAlign=middle;whiteSpace=wrap;rounded=0;" parent="1" vertex="1">
          <mxGeometry x="130.86" y="3458" width="120" height="30" as="geometry" />
        </mxCell>
        <mxCell id="eMAFhq8CC5D41B3n5qsW-9" value="" style="endArrow=none;dashed=1;html=1;rounded=0;" parent="1" source="eMAFhq8CC5D41B3n5qsW-23" edge="1">
          <mxGeometry width="50" height="50" relative="1" as="geometry">
            <mxPoint x="245.86" y="3808" as="sourcePoint" />
            <mxPoint x="245.86" y="3608" as="targetPoint" />
            <Array as="points">
              <mxPoint x="245.86" y="3568" />
            </Array>
          </mxGeometry>
        </mxCell>
        <mxCell id="eMAFhq8CC5D41B3n5qsW-10" value="" style="endArrow=none;dashed=1;html=1;rounded=0;entryX=0.5;entryY=1;entryDx=0;entryDy=0;" parent="1" source="eMAFhq8CC5D41B3n5qsW-25" target="eMAFhq8CC5D41B3n5qsW-2" edge="1">
          <mxGeometry width="50" height="50" relative="1" as="geometry">
            <mxPoint x="485.86" y="3808" as="sourcePoint" />
            <mxPoint x="485.86" y="3608" as="targetPoint" />
          </mxGeometry>
        </mxCell>
        <mxCell id="eMAFhq8CC5D41B3n5qsW-22" value="" style="endArrow=none;dashed=1;html=1;rounded=0;" parent="1" target="eMAFhq8CC5D41B3n5qsW-23" edge="1">
          <mxGeometry width="50" height="50" relative="1" as="geometry">
            <mxPoint x="245.86" y="3878" as="sourcePoint" />
            <mxPoint x="245.86" y="3568" as="targetPoint" />
            <Array as="points" />
          </mxGeometry>
        </mxCell>
        <mxCell id="eMAFhq8CC5D41B3n5qsW-23" value="" style="rounded=0;whiteSpace=wrap;html=1;direction=south;" parent="1" vertex="1">
          <mxGeometry x="235.86" y="3598" width="20" height="230" as="geometry" />
        </mxCell>
        <mxCell id="eMAFhq8CC5D41B3n5qsW-24" value="" style="endArrow=none;dashed=1;html=1;rounded=0;" parent="1" target="eMAFhq8CC5D41B3n5qsW-25" edge="1">
          <mxGeometry width="50" height="50" relative="1" as="geometry">
            <mxPoint x="485.86" y="3878" as="sourcePoint" />
            <mxPoint x="485.86" y="3568" as="targetPoint" />
          </mxGeometry>
        </mxCell>
        <mxCell id="eMAFhq8CC5D41B3n5qsW-25" value="" style="rounded=0;whiteSpace=wrap;html=1;direction=south;" parent="1" vertex="1">
          <mxGeometry x="475.86" y="3598" width="20" height="230" as="geometry" />
        </mxCell>
        <mxCell id="eMAFhq8CC5D41B3n5qsW-26" style="edgeStyle=orthogonalEdgeStyle;rounded=0;orthogonalLoop=1;jettySize=auto;html=1;entryX=0.167;entryY=1;entryDx=0;entryDy=0;entryPerimeter=0;exitX=0.167;exitY=0;exitDx=0;exitDy=0;exitPerimeter=0;" parent="1" edge="1">
          <mxGeometry relative="1" as="geometry">
            <mxPoint x="255.86" y="3618" as="sourcePoint" />
            <mxPoint x="475.86" y="3618" as="targetPoint" />
          </mxGeometry>
        </mxCell>
        <mxCell id="eMAFhq8CC5D41B3n5qsW-27" value="" style="html=1;verticalAlign=bottom;labelBackgroundColor=none;endArrow=open;endFill=0;dashed=1;rounded=0;entryX=0.5;entryY=0;entryDx=0;entryDy=0;exitX=0.5;exitY=1;exitDx=0;exitDy=0;" parent="1" edge="1">
          <mxGeometry width="160" relative="1" as="geometry">
            <mxPoint x="475.86" y="3648" as="sourcePoint" />
            <mxPoint x="255.86" y="3648" as="targetPoint" />
            <Array as="points" />
          </mxGeometry>
        </mxCell>
        <mxCell id="eMAFhq8CC5D41B3n5qsW-28" value="Close application" style="text;html=1;strokeColor=none;fillColor=none;align=center;verticalAlign=middle;whiteSpace=wrap;rounded=0;" parent="1" vertex="1">
          <mxGeometry x="298.36" y="3688" width="140" height="30" as="geometry" />
        </mxCell>
        <object label="Select Yes option&amp;nbsp;" placeholders="1" id="eMAFhq8CC5D41B3n5qsW-29">
          <mxCell style="text;html=1;strokeColor=none;fillColor=none;align=center;verticalAlign=middle;whiteSpace=wrap;rounded=0;container=0;" parent="1" vertex="1">
            <mxGeometry x="305.86" y="3653" width="100" height="30" as="geometry" />
          </mxCell>
        </object>
        <object label="Select Logout option" placeholders="1" id="eMAFhq8CC5D41B3n5qsW-30">
          <mxCell style="text;html=1;strokeColor=none;fillColor=none;align=center;verticalAlign=middle;whiteSpace=wrap;rounded=0;container=0;" parent="1" vertex="1">
            <mxGeometry x="285.86" y="3588" width="140" height="30" as="geometry" />
          </mxCell>
        </object>
        <object label="Display confirmation massage box" placeholders="1" id="eMAFhq8CC5D41B3n5qsW-31">
          <mxCell style="text;html=1;strokeColor=none;fillColor=none;align=center;verticalAlign=middle;whiteSpace=wrap;rounded=0;container=0;" parent="1" vertex="1">
            <mxGeometry x="275.86" y="3621.5" width="187.5" height="30" as="geometry" />
          </mxCell>
        </object>
        <mxCell id="eMAFhq8CC5D41B3n5qsW-64" value="4.&amp;nbsp; cashier" style="text;html=1;align=center;verticalAlign=middle;whiteSpace=wrap;rounded=0;" parent="1" vertex="1">
          <mxGeometry x="121.59" y="3410" width="130" height="30" as="geometry" />
        </mxCell>
        <object label="Select No option&amp;nbsp;" placeholders="1" id="eMAFhq8CC5D41B3n5qsW-67">
          <mxCell style="text;html=1;strokeColor=none;fillColor=none;align=center;verticalAlign=middle;whiteSpace=wrap;rounded=0;container=0;" parent="1" vertex="1">
            <mxGeometry x="290.86" y="3728" width="145" height="30" as="geometry" />
          </mxCell>
        </object>
        <mxCell id="eMAFhq8CC5D41B3n5qsW-68" value="" style="html=1;verticalAlign=bottom;labelBackgroundColor=none;endArrow=open;endFill=0;dashed=1;rounded=0;entryX=0.5;entryY=0;entryDx=0;entryDy=0;exitX=0.5;exitY=1;exitDx=0;exitDy=0;" parent="1" edge="1">
          <mxGeometry width="160" relative="1" as="geometry">
            <mxPoint x="475.86" y="3718" as="sourcePoint" />
            <mxPoint x="255.86" y="3718" as="targetPoint" />
            <Array as="points" />
          </mxGeometry>
        </mxCell>
        <mxCell id="eMAFhq8CC5D41B3n5qsW-69" style="edgeStyle=orthogonalEdgeStyle;rounded=0;orthogonalLoop=1;jettySize=auto;html=1;entryX=0.167;entryY=1;entryDx=0;entryDy=0;entryPerimeter=0;" parent="1" edge="1">
          <mxGeometry relative="1" as="geometry">
            <mxPoint x="258.36" y="3758" as="sourcePoint" />
            <mxPoint x="478.36" y="3758" as="targetPoint" />
          </mxGeometry>
        </mxCell>
        <mxCell id="eMAFhq8CC5D41B3n5qsW-70" value="" style="html=1;verticalAlign=bottom;labelBackgroundColor=none;endArrow=open;endFill=0;dashed=1;rounded=0;entryX=0.5;entryY=0;entryDx=0;entryDy=0;exitX=0.891;exitY=0.913;exitDx=0;exitDy=0;exitPerimeter=0;" parent="1" source="eMAFhq8CC5D41B3n5qsW-25" edge="1">
          <mxGeometry width="160" relative="1" as="geometry">
            <mxPoint x="478.36" y="3802" as="sourcePoint" />
            <mxPoint x="258.36" y="3802" as="targetPoint" />
            <Array as="points" />
          </mxGeometry>
        </mxCell>
        <mxCell id="eMAFhq8CC5D41B3n5qsW-71" value="Display application" style="text;html=1;strokeColor=none;fillColor=none;align=center;verticalAlign=middle;whiteSpace=wrap;rounded=0;" parent="1" vertex="1">
          <mxGeometry x="293.36" y="3768" width="140" height="30" as="geometry" />
        </mxCell>
        <mxCell id="wMxC_MqYFscU2hJ7u7GW-4" value="" style="rounded=0;whiteSpace=wrap;html=1;" parent="1" vertex="1">
          <mxGeometry x="404.22" y="1218" width="120" height="40" as="geometry" />
        </mxCell>
        <mxCell id="wMxC_MqYFscU2hJ7u7GW-9" value="Front end" style="text;html=1;strokeColor=none;fillColor=none;align=center;verticalAlign=middle;whiteSpace=wrap;rounded=0;" parent="1" vertex="1">
          <mxGeometry x="434.22" y="1223" width="60" height="30" as="geometry" />
        </mxCell>
        <mxCell id="wMxC_MqYFscU2hJ7u7GW-10" value="4.7&amp;nbsp; Apply leaves" style="text;html=1;align=center;verticalAlign=middle;whiteSpace=wrap;rounded=0;" parent="1" vertex="1">
          <mxGeometry x="123.75" y="1168" width="130" height="30" as="geometry" />
        </mxCell>
        <mxCell id="wMxC_MqYFscU2hJ7u7GW-11" value="" style="endArrow=none;dashed=1;html=1;rounded=0;" parent="1" source="wMxC_MqYFscU2hJ7u7GW-41" edge="1">
          <mxGeometry width="50" height="50" relative="1" as="geometry">
            <mxPoint x="224.22000000000003" y="1482" as="sourcePoint" />
            <mxPoint x="224.22000000000003" y="1292" as="targetPoint" />
            <Array as="points">
              <mxPoint x="224.22000000000003" y="1242" />
            </Array>
          </mxGeometry>
        </mxCell>
        <mxCell id="wMxC_MqYFscU2hJ7u7GW-14" value="" style="endArrow=none;dashed=1;html=1;rounded=0;" parent="1" source="wMxC_MqYFscU2hJ7u7GW-43" edge="1">
          <mxGeometry width="50" height="50" relative="1" as="geometry">
            <mxPoint x="464.22" y="1482" as="sourcePoint" />
            <mxPoint x="464.22" y="1282" as="targetPoint" />
          </mxGeometry>
        </mxCell>
        <mxCell id="wMxC_MqYFscU2hJ7u7GW-17" value="" style="group" parent="1" vertex="1" connectable="0">
          <mxGeometry x="644.22" y="1012" width="582.89" height="815" as="geometry" />
        </mxCell>
        <mxCell id="wMxC_MqYFscU2hJ7u7GW-18" value="" style="rounded=0;whiteSpace=wrap;html=1;" parent="wMxC_MqYFscU2hJ7u7GW-17" vertex="1">
          <mxGeometry y="206" width="120" height="40" as="geometry" />
        </mxCell>
        <mxCell id="wMxC_MqYFscU2hJ7u7GW-19" value="" style="group" parent="wMxC_MqYFscU2hJ7u7GW-17" vertex="1" connectable="0">
          <mxGeometry x="30" y="5" width="522.89" height="810" as="geometry" />
        </mxCell>
        <mxCell id="wMxC_MqYFscU2hJ7u7GW-20" value="Controller" style="text;html=1;strokeColor=none;fillColor=none;align=center;verticalAlign=middle;whiteSpace=wrap;rounded=0;" parent="wMxC_MqYFscU2hJ7u7GW-19" vertex="1">
          <mxGeometry y="206" width="60" height="30" as="geometry" />
        </mxCell>
        <mxCell id="wMxC_MqYFscU2hJ7u7GW-21" value="" style="endArrow=none;dashed=1;html=1;rounded=0;" parent="wMxC_MqYFscU2hJ7u7GW-19" edge="1">
          <mxGeometry width="50" height="50" relative="1" as="geometry">
            <mxPoint x="25.779999999999973" y="935" as="sourcePoint" />
            <mxPoint x="29.65315068493146" y="265" as="targetPoint" />
          </mxGeometry>
        </mxCell>
        <mxCell id="Zykf1ZHxqBieM8WaJR_5-349" value="else" style="rounded=0;whiteSpace=wrap;html=1;align=left;" parent="wMxC_MqYFscU2hJ7u7GW-19" vertex="1">
          <mxGeometry x="-488.22" y="705" width="1007.11" height="35" as="geometry" />
        </mxCell>
        <mxCell id="wMxC_MqYFscU2hJ7u7GW-23" value="" style="rounded=0;whiteSpace=wrap;html=1;direction=south;" parent="wMxC_MqYFscU2hJ7u7GW-19" vertex="1">
          <mxGeometry x="20" y="370" width="20" height="380" as="geometry" />
        </mxCell>
        <mxCell id="Zykf1ZHxqBieM8WaJR_5-351" value="" style="html=1;verticalAlign=bottom;labelBackgroundColor=none;endArrow=open;endFill=0;dashed=1;rounded=0;" parent="wMxC_MqYFscU2hJ7u7GW-19" edge="1">
          <mxGeometry width="160" relative="1" as="geometry">
            <mxPoint x="250.77999999999997" y="733" as="sourcePoint" />
            <mxPoint x="45.77999999999997" y="733" as="targetPoint" />
            <Array as="points" />
          </mxGeometry>
        </mxCell>
        <object label="Display confermation massage" placeholders="1" id="wMxC_MqYFscU2hJ7u7GW-25">
          <mxCell style="text;html=1;strokeColor=none;fillColor=none;align=center;verticalAlign=middle;whiteSpace=wrap;rounded=0;container=0;" parent="wMxC_MqYFscU2hJ7u7GW-17" vertex="1">
            <mxGeometry x="-154.22000000000003" y="630" width="201.25" height="30" as="geometry" />
          </mxCell>
        </object>
        <mxCell id="wMxC_MqYFscU2hJ7u7GW-26" value="" style="group" parent="1" vertex="1" connectable="0">
          <mxGeometry x="884.22" y="1012" width="120" height="505" as="geometry" />
        </mxCell>
        <mxCell id="wMxC_MqYFscU2hJ7u7GW-27" value="" style="rounded=0;whiteSpace=wrap;html=1;" parent="wMxC_MqYFscU2hJ7u7GW-26" vertex="1">
          <mxGeometry y="206" width="120" height="40" as="geometry" />
        </mxCell>
        <mxCell id="wMxC_MqYFscU2hJ7u7GW-28" value="" style="group" parent="wMxC_MqYFscU2hJ7u7GW-26" vertex="1" connectable="0">
          <mxGeometry x="30" y="5" width="60" height="500" as="geometry" />
        </mxCell>
        <mxCell id="wMxC_MqYFscU2hJ7u7GW-29" value="Database" style="text;html=1;strokeColor=none;fillColor=none;align=center;verticalAlign=middle;whiteSpace=wrap;rounded=0;" parent="wMxC_MqYFscU2hJ7u7GW-28" vertex="1">
          <mxGeometry y="206" width="60" height="30" as="geometry" />
        </mxCell>
        <mxCell id="wMxC_MqYFscU2hJ7u7GW-30" value="" style="endArrow=none;dashed=1;html=1;rounded=0;" parent="wMxC_MqYFscU2hJ7u7GW-28" edge="1">
          <mxGeometry width="50" height="50" relative="1" as="geometry">
            <mxPoint x="25.779999999999973" y="935" as="sourcePoint" />
            <mxPoint x="29.65315068493146" y="265" as="targetPoint" />
          </mxGeometry>
        </mxCell>
        <mxCell id="wMxC_MqYFscU2hJ7u7GW-40" value="" style="endArrow=none;dashed=1;html=1;rounded=0;" parent="1" target="wMxC_MqYFscU2hJ7u7GW-41" edge="1">
          <mxGeometry width="50" height="50" relative="1" as="geometry">
            <mxPoint x="220" y="1962" as="sourcePoint" />
            <mxPoint x="224.22000000000003" y="1342" as="targetPoint" />
            <Array as="points" />
          </mxGeometry>
        </mxCell>
        <mxCell id="wMxC_MqYFscU2hJ7u7GW-41" value="" style="rounded=0;whiteSpace=wrap;html=1;direction=south;" parent="1" vertex="1">
          <mxGeometry x="214.22000000000003" y="1312" width="20" height="590" as="geometry" />
        </mxCell>
        <mxCell id="wMxC_MqYFscU2hJ7u7GW-42" value="" style="endArrow=none;dashed=1;html=1;rounded=0;" parent="1" target="wMxC_MqYFscU2hJ7u7GW-43" edge="1">
          <mxGeometry width="50" height="50" relative="1" as="geometry">
            <mxPoint x="464" y="1962" as="sourcePoint" />
            <mxPoint x="464.22" y="1342" as="targetPoint" />
          </mxGeometry>
        </mxCell>
        <mxCell id="wMxC_MqYFscU2hJ7u7GW-43" value="" style="rounded=0;whiteSpace=wrap;html=1;direction=south;" parent="1" vertex="1">
          <mxGeometry x="454.22" y="1312" width="20" height="590" as="geometry" />
        </mxCell>
        <mxCell id="wMxC_MqYFscU2hJ7u7GW-44" style="edgeStyle=orthogonalEdgeStyle;rounded=0;orthogonalLoop=1;jettySize=auto;html=1;" parent="1" edge="1">
          <mxGeometry relative="1" as="geometry">
            <mxPoint x="244.22000000000003" y="1332" as="sourcePoint" />
            <mxPoint x="444.22" y="1332" as="targetPoint" />
          </mxGeometry>
        </mxCell>
        <mxCell id="wMxC_MqYFscU2hJ7u7GW-45" value="" style="html=1;verticalAlign=bottom;labelBackgroundColor=none;endArrow=open;endFill=0;dashed=1;rounded=0;" parent="1" edge="1">
          <mxGeometry width="160" relative="1" as="geometry">
            <mxPoint x="444.22" y="1372" as="sourcePoint" />
            <mxPoint x="244.22000000000003" y="1372" as="targetPoint" />
            <Array as="points" />
          </mxGeometry>
        </mxCell>
        <mxCell id="wMxC_MqYFscU2hJ7u7GW-46" style="edgeStyle=orthogonalEdgeStyle;rounded=0;orthogonalLoop=1;jettySize=auto;html=1;" parent="1" edge="1">
          <mxGeometry relative="1" as="geometry">
            <mxPoint x="244.22000000000003" y="1402" as="sourcePoint" />
            <mxPoint x="444.22" y="1402" as="targetPoint" />
          </mxGeometry>
        </mxCell>
        <mxCell id="wMxC_MqYFscU2hJ7u7GW-47" style="edgeStyle=orthogonalEdgeStyle;rounded=0;orthogonalLoop=1;jettySize=auto;html=1;exitX=0.167;exitY=0;exitDx=0;exitDy=0;exitPerimeter=0;" parent="1" edge="1">
          <mxGeometry relative="1" as="geometry">
            <mxPoint x="484.22" y="1402" as="sourcePoint" />
            <mxPoint x="684.22" y="1402" as="targetPoint" />
          </mxGeometry>
        </mxCell>
        <mxCell id="wMxC_MqYFscU2hJ7u7GW-48" value="" style="html=1;verticalAlign=bottom;labelBackgroundColor=none;endArrow=open;endFill=0;dashed=1;rounded=0;" parent="1" edge="1">
          <mxGeometry width="160" relative="1" as="geometry">
            <mxPoint x="684.22" y="1442" as="sourcePoint" />
            <mxPoint x="484.22" y="1442" as="targetPoint" />
            <Array as="points" />
          </mxGeometry>
        </mxCell>
        <mxCell id="wMxC_MqYFscU2hJ7u7GW-52" value="Enter apply leave button" style="text;html=1;strokeColor=none;fillColor=none;align=center;verticalAlign=middle;whiteSpace=wrap;rounded=0;" parent="1" vertex="1">
          <mxGeometry x="276.3299999999999" y="1372" width="135.78" height="30" as="geometry" />
        </mxCell>
        <mxCell id="wMxC_MqYFscU2hJ7u7GW-53" value="4. cashier" style="text;html=1;align=center;verticalAlign=middle;whiteSpace=wrap;rounded=0;" parent="1" vertex="1">
          <mxGeometry x="126.82000000000002" y="1151" width="130" height="30" as="geometry" />
        </mxCell>
        <object label="apply leave button selected" placeholders="1" id="wMxC_MqYFscU2hJ7u7GW-58">
          <mxCell style="text;html=1;strokeColor=none;fillColor=none;align=center;verticalAlign=middle;whiteSpace=wrap;rounded=0;" parent="1" vertex="1">
            <mxGeometry x="495" y="1372" width="165.78" height="30" as="geometry" />
          </mxCell>
        </object>
        <object label="Display apply for leaves window" placeholders="1" id="wMxC_MqYFscU2hJ7u7GW-59">
          <mxCell style="text;html=1;strokeColor=none;fillColor=none;align=center;verticalAlign=middle;whiteSpace=wrap;rounded=0;" parent="1" vertex="1">
            <mxGeometry x="491.3299999999999" y="1412" width="185.78" height="30" as="geometry" />
          </mxCell>
        </object>
        <object label="Click leave button" placeholders="1" id="wMxC_MqYFscU2hJ7u7GW-64">
          <mxCell style="text;html=1;strokeColor=none;fillColor=none;align=center;verticalAlign=middle;whiteSpace=wrap;rounded=0;" parent="1" vertex="1">
            <mxGeometry x="267.1099999999999" y="1302" width="135.78" height="35" as="geometry" />
          </mxCell>
        </object>
        <object label="Display leave window" placeholders="1" id="wMxC_MqYFscU2hJ7u7GW-65">
          <mxCell style="text;html=1;strokeColor=none;fillColor=none;align=center;verticalAlign=middle;whiteSpace=wrap;rounded=0;" parent="1" vertex="1">
            <mxGeometry x="266.72" y="1337" width="147.5" height="35" as="geometry" />
          </mxCell>
        </object>
        <mxCell id="wMxC_MqYFscU2hJ7u7GW-67" value="" style="html=1;verticalAlign=bottom;labelBackgroundColor=none;endArrow=open;endFill=0;dashed=1;rounded=0;" parent="1" edge="1">
          <mxGeometry width="160" relative="1" as="geometry">
            <mxPoint x="448.1300000000001" y="1517" as="sourcePoint" />
            <mxPoint x="243.1300000000001" y="1517" as="targetPoint" />
            <Array as="points" />
          </mxGeometry>
        </mxCell>
        <object label="Select date" placeholders="1" id="wMxC_MqYFscU2hJ7u7GW-68">
          <mxCell style="text;html=1;strokeColor=none;fillColor=none;align=center;verticalAlign=middle;whiteSpace=wrap;rounded=0;container=0;" parent="1" vertex="1">
            <mxGeometry x="276.72" y="1451" width="135" height="30" as="geometry" />
          </mxCell>
        </object>
        <object label="Validation" placeholders="1" id="wMxC_MqYFscU2hJ7u7GW-69">
          <mxCell style="text;html=1;strokeColor=none;fillColor=none;align=center;verticalAlign=middle;whiteSpace=wrap;rounded=0;container=0;" parent="1" vertex="1">
            <mxGeometry x="539.22" y="1451" width="100" height="30" as="geometry" />
          </mxCell>
        </object>
        <mxCell id="wMxC_MqYFscU2hJ7u7GW-70" value="" style="html=1;verticalAlign=bottom;labelBackgroundColor=none;endArrow=open;endFill=0;dashed=1;rounded=0;" parent="1" edge="1">
          <mxGeometry width="160" relative="1" as="geometry">
            <mxPoint x="434.22" y="1441" as="sourcePoint" />
            <mxPoint x="234.22000000000003" y="1441" as="targetPoint" />
            <Array as="points" />
          </mxGeometry>
        </mxCell>
        <object label="Display apply for leaves window" placeholders="1" id="wMxC_MqYFscU2hJ7u7GW-71">
          <mxCell style="text;html=1;strokeColor=none;fillColor=none;align=center;verticalAlign=middle;whiteSpace=wrap;rounded=0;" parent="1" vertex="1">
            <mxGeometry x="254.22000000000003" y="1413" width="175.78" height="30" as="geometry" />
          </mxCell>
        </object>
        <mxCell id="wMxC_MqYFscU2hJ7u7GW-72" value="" style="rounded=0;whiteSpace=wrap;html=1;" parent="1" vertex="1">
          <mxGeometry x="401.72" y="2142" width="120" height="40" as="geometry" />
        </mxCell>
        <mxCell id="wMxC_MqYFscU2hJ7u7GW-75" value="" style="endArrow=none;dashed=1;html=1;rounded=0;exitX=0;exitY=0.5;exitDx=0;exitDy=0;" parent="1" edge="1">
          <mxGeometry width="50" height="50" relative="1" as="geometry">
            <mxPoint x="461.72" y="2242" as="sourcePoint" />
            <mxPoint x="461.72" y="2182" as="targetPoint" />
          </mxGeometry>
        </mxCell>
        <mxCell id="wMxC_MqYFscU2hJ7u7GW-76" value="Cashier" style="text;html=1;strokeColor=none;fillColor=none;align=center;verticalAlign=middle;whiteSpace=wrap;rounded=0;" parent="1" vertex="1">
          <mxGeometry x="194.22000000000003" y="2192" width="60" height="30" as="geometry" />
        </mxCell>
        <mxCell id="wMxC_MqYFscU2hJ7u7GW-77" value="Front end" style="text;html=1;strokeColor=none;fillColor=none;align=center;verticalAlign=middle;whiteSpace=wrap;rounded=0;" parent="1" vertex="1">
          <mxGeometry x="431.72" y="2147" width="60" height="30" as="geometry" />
        </mxCell>
        <mxCell id="wMxC_MqYFscU2hJ7u7GW-78" value="4.8&amp;nbsp; Veiw leaves and it&#39;s status" style="text;html=1;align=center;verticalAlign=middle;whiteSpace=wrap;rounded=0;" parent="1" vertex="1">
          <mxGeometry x="120" y="2092" width="170" height="30" as="geometry" />
        </mxCell>
        <mxCell id="wMxC_MqYFscU2hJ7u7GW-79" value="" style="endArrow=none;dashed=1;html=1;rounded=0;" parent="1" source="wMxC_MqYFscU2hJ7u7GW-111" edge="1">
          <mxGeometry width="50" height="50" relative="1" as="geometry">
            <mxPoint x="221.72000000000003" y="2478" as="sourcePoint" />
            <mxPoint x="221.72000000000003" y="2288" as="targetPoint" />
            <Array as="points">
              <mxPoint x="221.72000000000003" y="2238" />
            </Array>
          </mxGeometry>
        </mxCell>
        <mxCell id="wMxC_MqYFscU2hJ7u7GW-82" value="" style="endArrow=none;dashed=1;html=1;rounded=0;" parent="1" source="wMxC_MqYFscU2hJ7u7GW-113" edge="1">
          <mxGeometry width="50" height="50" relative="1" as="geometry">
            <mxPoint x="461.72" y="2418" as="sourcePoint" />
            <mxPoint x="461.72" y="2218" as="targetPoint" />
          </mxGeometry>
        </mxCell>
        <mxCell id="wMxC_MqYFscU2hJ7u7GW-85" value="" style="group" parent="1" vertex="1" connectable="0">
          <mxGeometry x="641.72" y="2068" width="120" height="485" as="geometry" />
        </mxCell>
        <mxCell id="wMxC_MqYFscU2hJ7u7GW-86" value="" style="rounded=0;whiteSpace=wrap;html=1;" parent="wMxC_MqYFscU2hJ7u7GW-85" vertex="1">
          <mxGeometry y="74" width="120" height="40" as="geometry" />
        </mxCell>
        <mxCell id="wMxC_MqYFscU2hJ7u7GW-87" value="" style="group" parent="wMxC_MqYFscU2hJ7u7GW-85" vertex="1" connectable="0">
          <mxGeometry x="30" y="5" width="60" height="480" as="geometry" />
        </mxCell>
        <mxCell id="wMxC_MqYFscU2hJ7u7GW-88" value="Controller" style="text;html=1;strokeColor=none;fillColor=none;align=center;verticalAlign=middle;whiteSpace=wrap;rounded=0;" parent="wMxC_MqYFscU2hJ7u7GW-87" vertex="1">
          <mxGeometry y="74" width="60" height="30" as="geometry" />
        </mxCell>
        <mxCell id="wMxC_MqYFscU2hJ7u7GW-89" value="" style="endArrow=none;dashed=1;html=1;rounded=0;" parent="wMxC_MqYFscU2hJ7u7GW-87" edge="1">
          <mxGeometry width="50" height="50" relative="1" as="geometry">
            <mxPoint x="30" y="435" as="sourcePoint" />
            <mxPoint x="30" y="145" as="targetPoint" />
          </mxGeometry>
        </mxCell>
        <mxCell id="wMxC_MqYFscU2hJ7u7GW-91" value="" style="rounded=0;whiteSpace=wrap;html=1;direction=south;" parent="wMxC_MqYFscU2hJ7u7GW-87" vertex="1">
          <mxGeometry x="20" y="250" width="20" height="110" as="geometry" />
        </mxCell>
        <mxCell id="wMxC_MqYFscU2hJ7u7GW-92" value="" style="endArrow=none;dashed=1;html=1;rounded=0;entryX=0.5;entryY=1;entryDx=0;entryDy=0;" parent="wMxC_MqYFscU2hJ7u7GW-85" target="wMxC_MqYFscU2hJ7u7GW-86" edge="1">
          <mxGeometry width="50" height="50" relative="1" as="geometry">
            <mxPoint x="60" y="224" as="sourcePoint" />
            <mxPoint x="-530.0217391304348" y="59" as="targetPoint" />
          </mxGeometry>
        </mxCell>
        <mxCell id="wMxC_MqYFscU2hJ7u7GW-93" value="" style="group" parent="1" vertex="1" connectable="0">
          <mxGeometry x="881.72" y="2068" width="120" height="505" as="geometry" />
        </mxCell>
        <mxCell id="wMxC_MqYFscU2hJ7u7GW-94" value="" style="rounded=0;whiteSpace=wrap;html=1;" parent="wMxC_MqYFscU2hJ7u7GW-93" vertex="1">
          <mxGeometry y="74" width="120" height="40" as="geometry" />
        </mxCell>
        <mxCell id="wMxC_MqYFscU2hJ7u7GW-95" value="" style="group" parent="wMxC_MqYFscU2hJ7u7GW-93" vertex="1" connectable="0">
          <mxGeometry x="30" y="5" width="60" height="500" as="geometry" />
        </mxCell>
        <mxCell id="wMxC_MqYFscU2hJ7u7GW-96" value="Database" style="text;html=1;strokeColor=none;fillColor=none;align=center;verticalAlign=middle;whiteSpace=wrap;rounded=0;" parent="wMxC_MqYFscU2hJ7u7GW-95" vertex="1">
          <mxGeometry y="74" width="60" height="30" as="geometry" />
        </mxCell>
        <mxCell id="wMxC_MqYFscU2hJ7u7GW-97" value="" style="endArrow=none;dashed=1;html=1;rounded=0;" parent="wMxC_MqYFscU2hJ7u7GW-95" edge="1">
          <mxGeometry width="50" height="50" relative="1" as="geometry">
            <mxPoint x="30" y="425" as="sourcePoint" />
            <mxPoint x="30" y="145" as="targetPoint" />
          </mxGeometry>
        </mxCell>
        <mxCell id="wMxC_MqYFscU2hJ7u7GW-99" value="" style="rounded=0;whiteSpace=wrap;html=1;direction=south;" parent="wMxC_MqYFscU2hJ7u7GW-95" vertex="1">
          <mxGeometry x="20" y="250" width="20" height="110" as="geometry" />
        </mxCell>
        <mxCell id="wMxC_MqYFscU2hJ7u7GW-100" value="" style="endArrow=none;dashed=1;html=1;rounded=0;entryX=0.5;entryY=1;entryDx=0;entryDy=0;" parent="wMxC_MqYFscU2hJ7u7GW-93" target="wMxC_MqYFscU2hJ7u7GW-94" edge="1">
          <mxGeometry width="50" height="50" relative="1" as="geometry">
            <mxPoint x="60" y="224" as="sourcePoint" />
            <mxPoint x="-530.0217391304348" y="59" as="targetPoint" />
          </mxGeometry>
        </mxCell>
        <object label="Send leave and status of leave&amp;nbsp;" placeholders="1" id="wMxC_MqYFscU2hJ7u7GW-101">
          <mxCell style="text;html=1;strokeColor=none;fillColor=none;align=center;verticalAlign=middle;whiteSpace=wrap;rounded=0;" parent="wMxC_MqYFscU2hJ7u7GW-93" vertex="1">
            <mxGeometry x="-161.72000000000003" y="280" width="198.28" height="30" as="geometry" />
          </mxCell>
        </object>
        <mxCell id="wMxC_MqYFscU2hJ7u7GW-102" value="Serch lleave and eave status of that date" style="text;html=1;strokeColor=none;fillColor=none;align=center;verticalAlign=middle;whiteSpace=wrap;rounded=0;" parent="wMxC_MqYFscU2hJ7u7GW-93" vertex="1">
          <mxGeometry x="-171.72000000000003" y="240" width="228.21" height="30" as="geometry" />
        </mxCell>
        <mxCell id="wMxC_MqYFscU2hJ7u7GW-110" value="" style="endArrow=none;dashed=1;html=1;rounded=0;" parent="1" edge="1">
          <mxGeometry width="50" height="50" relative="1" as="geometry">
            <mxPoint x="221.72000000000003" y="2518" as="sourcePoint" />
            <mxPoint x="222" y="2222" as="targetPoint" />
            <Array as="points" />
          </mxGeometry>
        </mxCell>
        <mxCell id="wMxC_MqYFscU2hJ7u7GW-111" value="" style="rounded=0;whiteSpace=wrap;html=1;direction=south;" parent="1" vertex="1">
          <mxGeometry x="211.72000000000003" y="2248" width="20" height="190" as="geometry" />
        </mxCell>
        <mxCell id="wMxC_MqYFscU2hJ7u7GW-112" value="" style="endArrow=none;dashed=1;html=1;rounded=0;" parent="1" target="wMxC_MqYFscU2hJ7u7GW-113" edge="1">
          <mxGeometry width="50" height="50" relative="1" as="geometry">
            <mxPoint x="461.72" y="2518" as="sourcePoint" />
            <mxPoint x="461.72" y="2278" as="targetPoint" />
          </mxGeometry>
        </mxCell>
        <mxCell id="wMxC_MqYFscU2hJ7u7GW-113" value="" style="rounded=0;whiteSpace=wrap;html=1;direction=south;" parent="1" vertex="1">
          <mxGeometry x="451.72" y="2248" width="20" height="190" as="geometry" />
        </mxCell>
        <mxCell id="wMxC_MqYFscU2hJ7u7GW-114" style="edgeStyle=orthogonalEdgeStyle;rounded=0;orthogonalLoop=1;jettySize=auto;html=1;" parent="1" edge="1">
          <mxGeometry relative="1" as="geometry">
            <mxPoint x="241.72000000000003" y="2268" as="sourcePoint" />
            <mxPoint x="441.72" y="2268" as="targetPoint" />
          </mxGeometry>
        </mxCell>
        <mxCell id="wMxC_MqYFscU2hJ7u7GW-115" value="" style="html=1;verticalAlign=bottom;labelBackgroundColor=none;endArrow=open;endFill=0;dashed=1;rounded=0;" parent="1" edge="1">
          <mxGeometry width="160" relative="1" as="geometry">
            <mxPoint x="441.72" y="2308" as="sourcePoint" />
            <mxPoint x="241.72000000000003" y="2308" as="targetPoint" />
            <Array as="points" />
          </mxGeometry>
        </mxCell>
        <mxCell id="wMxC_MqYFscU2hJ7u7GW-116" style="edgeStyle=orthogonalEdgeStyle;rounded=0;orthogonalLoop=1;jettySize=auto;html=1;" parent="1" edge="1">
          <mxGeometry relative="1" as="geometry">
            <mxPoint x="241.72000000000003" y="2338" as="sourcePoint" />
            <mxPoint x="441.72" y="2338" as="targetPoint" />
          </mxGeometry>
        </mxCell>
        <mxCell id="wMxC_MqYFscU2hJ7u7GW-117" style="edgeStyle=orthogonalEdgeStyle;rounded=0;orthogonalLoop=1;jettySize=auto;html=1;exitX=0.167;exitY=0;exitDx=0;exitDy=0;exitPerimeter=0;" parent="1" edge="1">
          <mxGeometry relative="1" as="geometry">
            <mxPoint x="481.72" y="2338" as="sourcePoint" />
            <mxPoint x="681.72" y="2338" as="targetPoint" />
          </mxGeometry>
        </mxCell>
        <mxCell id="wMxC_MqYFscU2hJ7u7GW-118" value="" style="html=1;verticalAlign=bottom;labelBackgroundColor=none;endArrow=open;endFill=0;dashed=1;rounded=0;" parent="1" source="wMxC_MqYFscU2hJ7u7GW-244" edge="1">
          <mxGeometry width="160" relative="1" as="geometry">
            <mxPoint x="681.72" y="2378" as="sourcePoint" />
            <mxPoint x="481.72" y="2378" as="targetPoint" />
            <Array as="points" />
          </mxGeometry>
        </mxCell>
        <mxCell id="wMxC_MqYFscU2hJ7u7GW-122" value="Select date" style="text;html=1;strokeColor=none;fillColor=none;align=center;verticalAlign=middle;whiteSpace=wrap;rounded=0;" parent="1" vertex="1">
          <mxGeometry x="291.72" y="2308" width="80" height="30" as="geometry" />
        </mxCell>
        <mxCell id="wMxC_MqYFscU2hJ7u7GW-123" value="4. cashier" style="text;html=1;align=center;verticalAlign=middle;whiteSpace=wrap;rounded=0;" parent="1" vertex="1">
          <mxGeometry x="121.72000000000003" y="2042" width="130" height="30" as="geometry" />
        </mxCell>
        <mxCell id="wMxC_MqYFscU2hJ7u7GW-128" style="edgeStyle=orthogonalEdgeStyle;rounded=0;orthogonalLoop=1;jettySize=auto;html=1;exitX=0.167;exitY=0;exitDx=0;exitDy=0;exitPerimeter=0;" parent="1" edge="1">
          <mxGeometry relative="1" as="geometry">
            <mxPoint x="721.72" y="2338" as="sourcePoint" />
            <mxPoint x="921.72" y="2338" as="targetPoint" />
          </mxGeometry>
        </mxCell>
        <mxCell id="wMxC_MqYFscU2hJ7u7GW-129" value="" style="html=1;verticalAlign=bottom;labelBackgroundColor=none;endArrow=open;endFill=0;dashed=1;rounded=0;" parent="1" edge="1">
          <mxGeometry width="160" relative="1" as="geometry">
            <mxPoint x="921.72" y="2378" as="sourcePoint" />
            <mxPoint x="721.72" y="2378" as="targetPoint" />
            <Array as="points" />
          </mxGeometry>
        </mxCell>
        <object label="Date selected&amp;nbsp;" placeholders="1" id="wMxC_MqYFscU2hJ7u7GW-130">
          <mxCell style="text;html=1;strokeColor=none;fillColor=none;align=center;verticalAlign=middle;whiteSpace=wrap;rounded=0;" parent="1" vertex="1">
            <mxGeometry x="537.8900000000001" y="2308" width="80" height="30" as="geometry" />
          </mxCell>
        </object>
        <mxCell id="wMxC_MqYFscU2hJ7u7GW-136" value="" style="html=1;verticalAlign=bottom;labelBackgroundColor=none;endArrow=open;endFill=0;dashed=1;rounded=0;" parent="1" edge="1">
          <mxGeometry width="160" relative="1" as="geometry">
            <mxPoint x="681.72" y="2417" as="sourcePoint" />
            <mxPoint x="476.72" y="2417" as="targetPoint" />
            <Array as="points" />
          </mxGeometry>
        </mxCell>
        <mxCell id="wMxC_MqYFscU2hJ7u7GW-137" value="" style="html=1;verticalAlign=bottom;labelBackgroundColor=none;endArrow=open;endFill=0;dashed=1;rounded=0;" parent="1" edge="1">
          <mxGeometry width="160" relative="1" as="geometry">
            <mxPoint x="921.72" y="2417" as="sourcePoint" />
            <mxPoint x="716.72" y="2417" as="targetPoint" />
            <Array as="points" />
          </mxGeometry>
        </mxCell>
        <mxCell id="wMxC_MqYFscU2hJ7u7GW-138" value="" style="html=1;verticalAlign=bottom;labelBackgroundColor=none;endArrow=open;endFill=0;dashed=1;rounded=0;" parent="1" edge="1">
          <mxGeometry width="160" relative="1" as="geometry">
            <mxPoint x="441.72" y="2417" as="sourcePoint" />
            <mxPoint x="236.72000000000003" y="2417" as="targetPoint" />
            <Array as="points" />
          </mxGeometry>
        </mxCell>
        <object label="Display error massage" placeholders="1" id="wMxC_MqYFscU2hJ7u7GW-139">
          <mxCell style="text;html=1;strokeColor=none;fillColor=none;align=center;verticalAlign=middle;whiteSpace=wrap;rounded=0;container=0;" parent="1" vertex="1">
            <mxGeometry x="274.22" y="2387" width="135" height="30" as="geometry" />
          </mxCell>
        </object>
        <object label="error" placeholders="1" id="wMxC_MqYFscU2hJ7u7GW-140">
          <mxCell style="text;html=1;strokeColor=none;fillColor=none;align=center;verticalAlign=middle;whiteSpace=wrap;rounded=0;container=0;" parent="1" vertex="1">
            <mxGeometry x="536.72" y="2387" width="100" height="30" as="geometry" />
          </mxCell>
        </object>
        <object label="error" placeholders="1" id="wMxC_MqYFscU2hJ7u7GW-141">
          <mxCell style="text;html=1;strokeColor=none;fillColor=none;align=center;verticalAlign=middle;whiteSpace=wrap;rounded=0;container=0;" parent="1" vertex="1">
            <mxGeometry x="776.72" y="2387" width="100" height="30" as="geometry" />
          </mxCell>
        </object>
        <mxCell id="wMxC_MqYFscU2hJ7u7GW-142" value="" style="html=1;verticalAlign=bottom;labelBackgroundColor=none;endArrow=open;endFill=0;dashed=1;rounded=0;" parent="1" edge="1">
          <mxGeometry width="160" relative="1" as="geometry">
            <mxPoint x="431.72" y="2377" as="sourcePoint" />
            <mxPoint x="231.72000000000003" y="2377" as="targetPoint" />
            <Array as="points" />
          </mxGeometry>
        </mxCell>
        <object label="Display&amp;nbsp;&amp;nbsp;leave and&amp;nbsp;&amp;nbsp;status of leave&amp;nbsp;" placeholders="1" id="wMxC_MqYFscU2hJ7u7GW-143">
          <mxCell style="text;html=1;strokeColor=none;fillColor=none;align=center;verticalAlign=middle;whiteSpace=wrap;rounded=0;" parent="1" vertex="1">
            <mxGeometry x="240.07999999999993" y="2344" width="234.14" height="30" as="geometry" />
          </mxCell>
        </object>
        <mxCell id="wMxC_MqYFscU2hJ7u7GW-144" value="" style="rounded=0;whiteSpace=wrap;html=1;" parent="1" vertex="1">
          <mxGeometry x="400" y="2657" width="120" height="40" as="geometry" />
        </mxCell>
        <mxCell id="wMxC_MqYFscU2hJ7u7GW-146" value="" style="endArrow=none;dashed=1;html=1;rounded=0;exitX=0;exitY=0.5;exitDx=0;exitDy=0;" parent="1" edge="1">
          <mxGeometry width="50" height="50" relative="1" as="geometry">
            <mxPoint x="220" y="2757" as="sourcePoint" />
            <mxPoint x="220" y="2697" as="targetPoint" />
            <Array as="points" />
          </mxGeometry>
        </mxCell>
        <mxCell id="wMxC_MqYFscU2hJ7u7GW-147" value="" style="endArrow=none;dashed=1;html=1;rounded=0;exitX=0;exitY=0.5;exitDx=0;exitDy=0;" parent="1" edge="1">
          <mxGeometry width="50" height="50" relative="1" as="geometry">
            <mxPoint x="460" y="2757" as="sourcePoint" />
            <mxPoint x="460" y="2697" as="targetPoint" />
          </mxGeometry>
        </mxCell>
        <mxCell id="wMxC_MqYFscU2hJ7u7GW-148" value="Cashier" style="text;html=1;strokeColor=none;fillColor=none;align=center;verticalAlign=middle;whiteSpace=wrap;rounded=0;" parent="1" vertex="1">
          <mxGeometry x="189.22" y="2709" width="60" height="30" as="geometry" />
        </mxCell>
        <mxCell id="wMxC_MqYFscU2hJ7u7GW-149" value="Front end" style="text;html=1;strokeColor=none;fillColor=none;align=center;verticalAlign=middle;whiteSpace=wrap;rounded=0;" parent="1" vertex="1">
          <mxGeometry x="430" y="2662" width="60" height="30" as="geometry" />
        </mxCell>
        <mxCell id="wMxC_MqYFscU2hJ7u7GW-150" value="4.9 Update leaves" style="text;html=1;align=center;verticalAlign=middle;whiteSpace=wrap;rounded=0;" parent="1" vertex="1">
          <mxGeometry x="120" y="2607" width="130" height="30" as="geometry" />
        </mxCell>
        <mxCell id="wMxC_MqYFscU2hJ7u7GW-157" value="" style="group" parent="1" vertex="1" connectable="0">
          <mxGeometry x="640" y="2657" width="120" height="485" as="geometry" />
        </mxCell>
        <mxCell id="wMxC_MqYFscU2hJ7u7GW-158" value="" style="rounded=0;whiteSpace=wrap;html=1;" parent="wMxC_MqYFscU2hJ7u7GW-157" vertex="1">
          <mxGeometry width="120" height="40" as="geometry" />
        </mxCell>
        <mxCell id="wMxC_MqYFscU2hJ7u7GW-159" value="" style="group" parent="wMxC_MqYFscU2hJ7u7GW-157" vertex="1" connectable="0">
          <mxGeometry x="30" y="5" width="60" height="480" as="geometry" />
        </mxCell>
        <mxCell id="wMxC_MqYFscU2hJ7u7GW-160" value="Controller" style="text;html=1;strokeColor=none;fillColor=none;align=center;verticalAlign=middle;whiteSpace=wrap;rounded=0;" parent="wMxC_MqYFscU2hJ7u7GW-159" vertex="1">
          <mxGeometry width="60" height="30" as="geometry" />
        </mxCell>
        <mxCell id="wMxC_MqYFscU2hJ7u7GW-161" value="" style="endArrow=none;dashed=1;html=1;rounded=0;entryX=0.5;entryY=1;entryDx=0;entryDy=0;" parent="wMxC_MqYFscU2hJ7u7GW-159" target="wMxC_MqYFscU2hJ7u7GW-158" edge="1">
          <mxGeometry width="50" height="50" relative="1" as="geometry">
            <mxPoint x="30" y="696" as="sourcePoint" />
            <mxPoint x="30" y="56" as="targetPoint" />
          </mxGeometry>
        </mxCell>
        <mxCell id="wMxC_MqYFscU2hJ7u7GW-164" value="" style="html=1;verticalAlign=bottom;labelBackgroundColor=none;endArrow=open;endFill=0;dashed=1;rounded=0;" parent="wMxC_MqYFscU2hJ7u7GW-157" edge="1">
          <mxGeometry width="160" relative="1" as="geometry">
            <mxPoint x="35" y="231" as="sourcePoint" />
            <mxPoint x="-170" y="231" as="targetPoint" />
            <Array as="points" />
          </mxGeometry>
        </mxCell>
        <mxCell id="wMxC_MqYFscU2hJ7u7GW-165" value="" style="group" parent="1" vertex="1" connectable="0">
          <mxGeometry x="880" y="2657" width="120" height="505" as="geometry" />
        </mxCell>
        <mxCell id="wMxC_MqYFscU2hJ7u7GW-166" value="" style="rounded=0;whiteSpace=wrap;html=1;" parent="wMxC_MqYFscU2hJ7u7GW-165" vertex="1">
          <mxGeometry width="120" height="40" as="geometry" />
        </mxCell>
        <mxCell id="wMxC_MqYFscU2hJ7u7GW-167" value="" style="group" parent="wMxC_MqYFscU2hJ7u7GW-165" vertex="1" connectable="0">
          <mxGeometry x="30" y="5" width="60" height="500" as="geometry" />
        </mxCell>
        <mxCell id="wMxC_MqYFscU2hJ7u7GW-168" value="Database" style="text;html=1;strokeColor=none;fillColor=none;align=center;verticalAlign=middle;whiteSpace=wrap;rounded=0;" parent="wMxC_MqYFscU2hJ7u7GW-167" vertex="1">
          <mxGeometry width="60" height="30" as="geometry" />
        </mxCell>
        <mxCell id="wMxC_MqYFscU2hJ7u7GW-169" value="" style="endArrow=none;dashed=1;html=1;rounded=0;entryX=0.5;entryY=1;entryDx=0;entryDy=0;" parent="wMxC_MqYFscU2hJ7u7GW-167" target="wMxC_MqYFscU2hJ7u7GW-168" edge="1">
          <mxGeometry width="50" height="50" relative="1" as="geometry">
            <mxPoint x="30" y="696" as="sourcePoint" />
            <mxPoint x="30" y="56" as="targetPoint" />
          </mxGeometry>
        </mxCell>
        <mxCell id="wMxC_MqYFscU2hJ7u7GW-182" value="4. cashier" style="text;html=1;align=center;verticalAlign=middle;whiteSpace=wrap;rounded=0;" parent="1" vertex="1">
          <mxGeometry x="120.86" y="2577" width="130" height="30" as="geometry" />
        </mxCell>
        <mxCell id="wMxC_MqYFscU2hJ7u7GW-192" style="edgeStyle=orthogonalEdgeStyle;rounded=0;orthogonalLoop=1;jettySize=auto;html=1;" parent="1" edge="1">
          <mxGeometry relative="1" as="geometry">
            <mxPoint x="244.22000000000003" y="1480" as="sourcePoint" />
            <mxPoint x="444.22" y="1480" as="targetPoint" />
          </mxGeometry>
        </mxCell>
        <object label="error" placeholders="1" id="wMxC_MqYFscU2hJ7u7GW-193">
          <mxCell style="text;html=1;strokeColor=none;fillColor=none;align=center;verticalAlign=middle;whiteSpace=wrap;rounded=0;container=0;" parent="1" vertex="1">
            <mxGeometry x="534.22" y="1487" width="100" height="30" as="geometry" />
          </mxCell>
        </object>
        <object label="Display error massage" placeholders="1" id="wMxC_MqYFscU2hJ7u7GW-194">
          <mxCell style="text;html=1;strokeColor=none;fillColor=none;align=center;verticalAlign=middle;whiteSpace=wrap;rounded=0;container=0;" parent="1" vertex="1">
            <mxGeometry x="267.6500000000001" y="1487" width="138.28" height="30" as="geometry" />
          </mxCell>
        </object>
        <mxCell id="wMxC_MqYFscU2hJ7u7GW-195" value="" style="html=1;verticalAlign=bottom;labelBackgroundColor=none;endArrow=open;endFill=0;dashed=1;rounded=0;" parent="1" edge="1">
          <mxGeometry width="160" relative="1" as="geometry">
            <mxPoint x="688.75" y="1517" as="sourcePoint" />
            <mxPoint x="483.75" y="1517" as="targetPoint" />
            <Array as="points" />
          </mxGeometry>
        </mxCell>
        <mxCell id="wMxC_MqYFscU2hJ7u7GW-196" style="edgeStyle=orthogonalEdgeStyle;rounded=0;orthogonalLoop=1;jettySize=auto;html=1;" parent="1" edge="1">
          <mxGeometry relative="1" as="geometry">
            <mxPoint x="480" y="1482" as="sourcePoint" />
            <mxPoint x="680" y="1482" as="targetPoint" />
          </mxGeometry>
        </mxCell>
        <mxCell id="wMxC_MqYFscU2hJ7u7GW-197" style="edgeStyle=orthogonalEdgeStyle;rounded=0;orthogonalLoop=1;jettySize=auto;html=1;" parent="1" edge="1">
          <mxGeometry relative="1" as="geometry">
            <mxPoint x="480.93000000000006" y="1552" as="sourcePoint" />
            <mxPoint x="680.9300000000001" y="1552" as="targetPoint" />
          </mxGeometry>
        </mxCell>
        <mxCell id="wMxC_MqYFscU2hJ7u7GW-198" style="edgeStyle=orthogonalEdgeStyle;rounded=0;orthogonalLoop=1;jettySize=auto;html=1;" parent="1" edge="1">
          <mxGeometry relative="1" as="geometry">
            <mxPoint x="245" y="1552" as="sourcePoint" />
            <mxPoint x="445" y="1552" as="targetPoint" />
          </mxGeometry>
        </mxCell>
        <mxCell id="wMxC_MqYFscU2hJ7u7GW-199" style="edgeStyle=orthogonalEdgeStyle;rounded=0;orthogonalLoop=1;jettySize=auto;html=1;" parent="1" edge="1">
          <mxGeometry relative="1" as="geometry">
            <mxPoint x="244.22000000000003" y="1592" as="sourcePoint" />
            <mxPoint x="444.22" y="1592" as="targetPoint" />
          </mxGeometry>
        </mxCell>
        <mxCell id="wMxC_MqYFscU2hJ7u7GW-200" style="edgeStyle=orthogonalEdgeStyle;rounded=0;orthogonalLoop=1;jettySize=auto;html=1;" parent="1" edge="1">
          <mxGeometry relative="1" as="geometry">
            <mxPoint x="485" y="1592" as="sourcePoint" />
            <mxPoint x="685" y="1592" as="targetPoint" />
          </mxGeometry>
        </mxCell>
        <mxCell id="wMxC_MqYFscU2hJ7u7GW-201" style="edgeStyle=orthogonalEdgeStyle;rounded=0;orthogonalLoop=1;jettySize=auto;html=1;" parent="1" edge="1">
          <mxGeometry relative="1" as="geometry">
            <mxPoint x="484.22" y="1632" as="sourcePoint" />
            <mxPoint x="684.22" y="1632" as="targetPoint" />
          </mxGeometry>
        </mxCell>
        <mxCell id="wMxC_MqYFscU2hJ7u7GW-202" style="edgeStyle=orthogonalEdgeStyle;rounded=0;orthogonalLoop=1;jettySize=auto;html=1;" parent="1" edge="1">
          <mxGeometry relative="1" as="geometry">
            <mxPoint x="239.22000000000003" y="1632" as="sourcePoint" />
            <mxPoint x="439.22" y="1632" as="targetPoint" />
          </mxGeometry>
        </mxCell>
        <mxCell id="wMxC_MqYFscU2hJ7u7GW-203" value="" style="html=1;verticalAlign=bottom;labelBackgroundColor=none;endArrow=open;endFill=0;dashed=1;rounded=0;" parent="1" edge="1">
          <mxGeometry width="160" relative="1" as="geometry">
            <mxPoint x="690" y="1672" as="sourcePoint" />
            <mxPoint x="485" y="1672" as="targetPoint" />
            <Array as="points" />
          </mxGeometry>
        </mxCell>
        <mxCell id="wMxC_MqYFscU2hJ7u7GW-204" value="" style="html=1;verticalAlign=bottom;labelBackgroundColor=none;endArrow=open;endFill=0;dashed=1;rounded=0;" parent="1" edge="1">
          <mxGeometry width="160" relative="1" as="geometry">
            <mxPoint x="443.75" y="1672" as="sourcePoint" />
            <mxPoint x="238.75" y="1672" as="targetPoint" />
            <Array as="points" />
          </mxGeometry>
        </mxCell>
        <mxCell id="wMxC_MqYFscU2hJ7u7GW-205" style="edgeStyle=orthogonalEdgeStyle;rounded=0;orthogonalLoop=1;jettySize=auto;html=1;" parent="1" edge="1">
          <mxGeometry relative="1" as="geometry">
            <mxPoint x="239.68000000000006" y="1712" as="sourcePoint" />
            <mxPoint x="439.68000000000006" y="1712" as="targetPoint" />
          </mxGeometry>
        </mxCell>
        <mxCell id="wMxC_MqYFscU2hJ7u7GW-206" style="edgeStyle=orthogonalEdgeStyle;rounded=0;orthogonalLoop=1;jettySize=auto;html=1;" parent="1" edge="1">
          <mxGeometry relative="1" as="geometry">
            <mxPoint x="481.72" y="1712" as="sourcePoint" />
            <mxPoint x="681.72" y="1712" as="targetPoint" />
          </mxGeometry>
        </mxCell>
        <mxCell id="wMxC_MqYFscU2hJ7u7GW-207" style="edgeStyle=orthogonalEdgeStyle;rounded=0;orthogonalLoop=1;jettySize=auto;html=1;" parent="1" edge="1">
          <mxGeometry relative="1" as="geometry">
            <mxPoint x="721.72" y="1712" as="sourcePoint" />
            <mxPoint x="921.72" y="1712" as="targetPoint" />
          </mxGeometry>
        </mxCell>
        <mxCell id="wMxC_MqYFscU2hJ7u7GW-209" value="" style="html=1;verticalAlign=bottom;labelBackgroundColor=none;endArrow=open;endFill=0;dashed=1;rounded=0;" parent="1" edge="1">
          <mxGeometry width="160" relative="1" as="geometry">
            <mxPoint x="446.72000000000025" y="1752" as="sourcePoint" />
            <mxPoint x="241.72000000000025" y="1752" as="targetPoint" />
            <Array as="points" />
          </mxGeometry>
        </mxCell>
        <mxCell id="wMxC_MqYFscU2hJ7u7GW-210" value="" style="html=1;verticalAlign=bottom;labelBackgroundColor=none;endArrow=open;endFill=0;dashed=1;rounded=0;" parent="1" edge="1">
          <mxGeometry width="160" relative="1" as="geometry">
            <mxPoint x="681.2400000000002" y="1752" as="sourcePoint" />
            <mxPoint x="476.24000000000024" y="1752" as="targetPoint" />
            <Array as="points" />
          </mxGeometry>
        </mxCell>
        <object label="Select&amp;nbsp; full day leave or half day leave" placeholders="1" id="wMxC_MqYFscU2hJ7u7GW-211">
          <mxCell style="text;html=1;strokeColor=none;fillColor=none;align=center;verticalAlign=middle;whiteSpace=wrap;rounded=0;container=0;" parent="1" vertex="1">
            <mxGeometry x="273.83000000000015" y="1525" width="138.28" height="30" as="geometry" />
          </mxCell>
        </object>
        <object label="Select Apply button&amp;nbsp;" placeholders="1" id="wMxC_MqYFscU2hJ7u7GW-212">
          <mxCell style="text;html=1;strokeColor=none;fillColor=none;align=center;verticalAlign=middle;whiteSpace=wrap;rounded=0;container=0;" parent="1" vertex="1">
            <mxGeometry x="275.08000000000015" y="1602" width="138.28" height="30" as="geometry" />
          </mxCell>
        </object>
        <object label="Display confermation massage" placeholders="1" id="wMxC_MqYFscU2hJ7u7GW-213">
          <mxCell style="text;html=1;strokeColor=none;fillColor=none;align=center;verticalAlign=middle;whiteSpace=wrap;rounded=0;container=0;" parent="1" vertex="1">
            <mxGeometry x="256.72" y="1642" width="175" height="30" as="geometry" />
          </mxCell>
        </object>
        <object label="Yes selected" placeholders="1" id="wMxC_MqYFscU2hJ7u7GW-214">
          <mxCell style="text;html=1;strokeColor=none;fillColor=none;align=center;verticalAlign=middle;whiteSpace=wrap;rounded=0;container=0;" parent="1" vertex="1">
            <mxGeometry x="510" y="1682" width="138.28" height="30" as="geometry" />
          </mxCell>
        </object>
        <object label="Yes select" placeholders="1" id="wMxC_MqYFscU2hJ7u7GW-215">
          <mxCell style="text;html=1;strokeColor=none;fillColor=none;align=center;verticalAlign=middle;whiteSpace=wrap;rounded=0;container=0;" parent="1" vertex="1">
            <mxGeometry x="271.72" y="1682" width="138.28" height="30" as="geometry" />
          </mxCell>
        </object>
        <object label="Error" placeholders="1" id="wMxC_MqYFscU2hJ7u7GW-216">
          <mxCell style="text;html=1;strokeColor=none;fillColor=none;align=center;verticalAlign=middle;whiteSpace=wrap;rounded=0;container=0;" parent="1" vertex="1">
            <mxGeometry x="755.3900000000003" y="1722" width="138.28" height="30" as="geometry" />
          </mxCell>
        </object>
        <object label="Display error massage" placeholders="1" id="wMxC_MqYFscU2hJ7u7GW-217">
          <mxCell style="text;html=1;strokeColor=none;fillColor=none;align=center;verticalAlign=middle;whiteSpace=wrap;rounded=0;container=0;" parent="1" vertex="1">
            <mxGeometry x="505.3900000000003" y="1722" width="138.28" height="30" as="geometry" />
          </mxCell>
        </object>
        <object label="Display error massage" placeholders="1" id="wMxC_MqYFscU2hJ7u7GW-218">
          <mxCell style="text;html=1;strokeColor=none;fillColor=none;align=center;verticalAlign=middle;whiteSpace=wrap;rounded=0;container=0;" parent="1" vertex="1">
            <mxGeometry x="267.0300000000002" y="1722" width="138.28" height="30" as="geometry" />
          </mxCell>
        </object>
        <object label="send reason" placeholders="1" id="wMxC_MqYFscU2hJ7u7GW-219">
          <mxCell style="text;html=1;strokeColor=none;fillColor=none;align=center;verticalAlign=middle;whiteSpace=wrap;rounded=0;container=0;" parent="1" vertex="1">
            <mxGeometry x="510.3100000000002" y="1562" width="138.28" height="30" as="geometry" />
          </mxCell>
        </object>
        <object label="Give reason&amp;nbsp;" placeholders="1" id="wMxC_MqYFscU2hJ7u7GW-220">
          <mxCell style="text;html=1;strokeColor=none;fillColor=none;align=center;verticalAlign=middle;whiteSpace=wrap;rounded=0;container=0;" parent="1" vertex="1">
            <mxGeometry x="272.5" y="1562" width="138.28" height="30" as="geometry" />
          </mxCell>
        </object>
        <object label="leave type selected" placeholders="1" id="wMxC_MqYFscU2hJ7u7GW-221">
          <mxCell style="text;html=1;strokeColor=none;fillColor=none;align=center;verticalAlign=middle;whiteSpace=wrap;rounded=0;container=0;" parent="1" vertex="1">
            <mxGeometry x="513.6700000000001" y="1527" width="138.28" height="30" as="geometry" />
          </mxCell>
        </object>
        <object label="Apply button selected" placeholders="1" id="wMxC_MqYFscU2hJ7u7GW-222">
          <mxCell style="text;html=1;strokeColor=none;fillColor=none;align=center;verticalAlign=middle;whiteSpace=wrap;rounded=0;container=0;" parent="1" vertex="1">
            <mxGeometry x="510.08000000000015" y="1602" width="138.28" height="30" as="geometry" />
          </mxCell>
        </object>
        <mxCell id="wMxC_MqYFscU2hJ7u7GW-223" value="" style="rounded=0;whiteSpace=wrap;html=1;direction=south;" parent="1" vertex="1">
          <mxGeometry x="931.7199999999998" y="1692" width="20" height="110" as="geometry" />
        </mxCell>
        <object label="Save leave" placeholders="1" id="wMxC_MqYFscU2hJ7u7GW-224">
          <mxCell style="text;html=1;strokeColor=none;fillColor=none;align=center;verticalAlign=middle;whiteSpace=wrap;rounded=0;container=0;" parent="1" vertex="1">
            <mxGeometry x="748.4300000000001" y="1682" width="138.28" height="30" as="geometry" />
          </mxCell>
        </object>
        <object label="No select&amp;nbsp;" placeholders="1" id="wMxC_MqYFscU2hJ7u7GW-225">
          <mxCell style="text;html=1;strokeColor=none;fillColor=none;align=center;verticalAlign=middle;whiteSpace=wrap;rounded=0;container=0;" parent="1" vertex="1">
            <mxGeometry x="267.4200000000003" y="1802" width="138.28" height="30" as="geometry" />
          </mxCell>
        </object>
        <mxCell id="wMxC_MqYFscU2hJ7u7GW-226" value="" style="html=1;verticalAlign=bottom;labelBackgroundColor=none;endArrow=open;endFill=0;dashed=1;rounded=0;" parent="1" edge="1">
          <mxGeometry width="160" relative="1" as="geometry">
            <mxPoint x="449.9200000000003" y="1862" as="sourcePoint" />
            <mxPoint x="244.9200000000003" y="1862" as="targetPoint" />
            <Array as="points" />
          </mxGeometry>
        </mxCell>
        <mxCell id="wMxC_MqYFscU2hJ7u7GW-227" style="edgeStyle=orthogonalEdgeStyle;rounded=0;orthogonalLoop=1;jettySize=auto;html=1;" parent="1" edge="1">
          <mxGeometry relative="1" as="geometry">
            <mxPoint x="242.4200000000003" y="1832" as="sourcePoint" />
            <mxPoint x="442.4200000000003" y="1832" as="targetPoint" />
          </mxGeometry>
        </mxCell>
        <object label="Available for edit" placeholders="1" id="wMxC_MqYFscU2hJ7u7GW-228">
          <mxCell style="text;html=1;strokeColor=none;fillColor=none;align=center;verticalAlign=middle;whiteSpace=wrap;rounded=0;container=0;" parent="1" vertex="1">
            <mxGeometry x="266.5600000000002" y="1842" width="138.28" height="25" as="geometry" />
          </mxCell>
        </object>
        <mxCell id="wMxC_MqYFscU2hJ7u7GW-229" value="" style="rounded=0;whiteSpace=wrap;html=1;" parent="1" vertex="1">
          <mxGeometry x="1120" y="1223" width="120" height="40" as="geometry" />
        </mxCell>
        <mxCell id="wMxC_MqYFscU2hJ7u7GW-230" value="Owner" style="text;html=1;strokeColor=none;fillColor=none;align=center;verticalAlign=middle;whiteSpace=wrap;rounded=0;" parent="1" vertex="1">
          <mxGeometry x="1150" y="1223" width="60" height="30" as="geometry" />
        </mxCell>
        <mxCell id="wMxC_MqYFscU2hJ7u7GW-231" value="" style="endArrow=none;dashed=1;html=1;rounded=0;" parent="1" edge="1">
          <mxGeometry width="50" height="50" relative="1" as="geometry">
            <mxPoint x="1180" y="1964" as="sourcePoint" />
            <mxPoint x="1180" y="1272" as="targetPoint" />
          </mxGeometry>
        </mxCell>
        <mxCell id="wMxC_MqYFscU2hJ7u7GW-232" style="edgeStyle=orthogonalEdgeStyle;rounded=0;orthogonalLoop=1;jettySize=auto;html=1;" parent="1" edge="1">
          <mxGeometry relative="1" as="geometry">
            <mxPoint x="960" y="1711" as="sourcePoint" />
            <mxPoint x="1160.0000000000005" y="1711" as="targetPoint" />
          </mxGeometry>
        </mxCell>
        <mxCell id="wMxC_MqYFscU2hJ7u7GW-233" value="" style="rounded=0;whiteSpace=wrap;html=1;direction=south;" parent="1" vertex="1">
          <mxGeometry x="1170" y="1692" width="20" height="50" as="geometry" />
        </mxCell>
        <object label="Send request" placeholders="1" id="wMxC_MqYFscU2hJ7u7GW-234">
          <mxCell style="text;html=1;strokeColor=none;fillColor=none;align=center;verticalAlign=middle;whiteSpace=wrap;rounded=0;container=0;" parent="1" vertex="1">
            <mxGeometry x="981.7199999999998" y="1682" width="138.28" height="30" as="geometry" />
          </mxCell>
        </object>
        <mxCell id="wMxC_MqYFscU2hJ7u7GW-235" value="" style="rounded=0;whiteSpace=wrap;html=1;" parent="1" vertex="1">
          <mxGeometry x="1120" y="2657" width="120" height="40" as="geometry" />
        </mxCell>
        <mxCell id="wMxC_MqYFscU2hJ7u7GW-236" value="Owner" style="text;html=1;strokeColor=none;fillColor=none;align=center;verticalAlign=middle;whiteSpace=wrap;rounded=0;" parent="1" vertex="1">
          <mxGeometry x="1150" y="2662" width="60" height="30" as="geometry" />
        </mxCell>
        <mxCell id="wMxC_MqYFscU2hJ7u7GW-237" value="" style="endArrow=none;dashed=1;html=1;rounded=0;" parent="1" edge="1">
          <mxGeometry width="50" height="50" relative="1" as="geometry">
            <mxPoint x="1180" y="3577" as="sourcePoint" />
            <mxPoint x="1180" y="2700" as="targetPoint" />
          </mxGeometry>
        </mxCell>
        <object label="Click leave button" placeholders="1" id="wMxC_MqYFscU2hJ7u7GW-238">
          <mxCell style="text;html=1;strokeColor=none;fillColor=none;align=center;verticalAlign=middle;whiteSpace=wrap;rounded=0;" parent="1" vertex="1">
            <mxGeometry x="273.8299999999999" y="2238" width="135.78" height="35" as="geometry" />
          </mxCell>
        </object>
        <object label="Display leave window" placeholders="1" id="wMxC_MqYFscU2hJ7u7GW-239">
          <mxCell style="text;html=1;strokeColor=none;fillColor=none;align=center;verticalAlign=middle;whiteSpace=wrap;rounded=0;" parent="1" vertex="1">
            <mxGeometry x="267.97000000000025" y="2273" width="147.5" height="35" as="geometry" />
          </mxCell>
        </object>
        <mxCell id="wMxC_MqYFscU2hJ7u7GW-240" value="" style="rounded=0;whiteSpace=wrap;html=1;direction=south;" parent="1" vertex="1">
          <mxGeometry x="1170" y="1772" width="20" height="50" as="geometry" />
        </mxCell>
        <mxCell id="wMxC_MqYFscU2hJ7u7GW-241" value="" style="html=1;verticalAlign=bottom;labelBackgroundColor=none;endArrow=open;endFill=0;dashed=1;rounded=0;" parent="1" edge="1">
          <mxGeometry width="160" relative="1" as="geometry">
            <mxPoint x="1165" y="1792" as="sourcePoint" />
            <mxPoint x="960" y="1792" as="targetPoint" />
            <Array as="points" />
          </mxGeometry>
        </mxCell>
        <object label="Update leave status to accept or reject" placeholders="1" id="wMxC_MqYFscU2hJ7u7GW-242">
          <mxCell style="text;html=1;strokeColor=none;fillColor=none;align=center;verticalAlign=middle;whiteSpace=wrap;rounded=0;container=0;" parent="1" vertex="1">
            <mxGeometry x="991.7199999999998" y="1758" width="138.28" height="30" as="geometry" />
          </mxCell>
        </object>
        <mxCell id="wMxC_MqYFscU2hJ7u7GW-243" value="" style="html=1;verticalAlign=bottom;labelBackgroundColor=none;endArrow=open;endFill=0;dashed=1;rounded=0;" parent="1" target="wMxC_MqYFscU2hJ7u7GW-244" edge="1">
          <mxGeometry width="160" relative="1" as="geometry">
            <mxPoint x="681.72" y="2378" as="sourcePoint" />
            <mxPoint x="481.72" y="2378" as="targetPoint" />
            <Array as="points" />
          </mxGeometry>
        </mxCell>
        <object label="Send&amp;nbsp;leave and status of leave&amp;nbsp;" placeholders="1" id="wMxC_MqYFscU2hJ7u7GW-244">
          <mxCell style="text;html=1;strokeColor=none;fillColor=none;align=center;verticalAlign=middle;whiteSpace=wrap;rounded=0;" parent="1" vertex="1">
            <mxGeometry x="482.5799999999999" y="2348" width="237.42" height="30" as="geometry" />
          </mxCell>
        </object>
        <mxCell id="wMxC_MqYFscU2hJ7u7GW-245" value="" style="rounded=0;whiteSpace=wrap;html=1;direction=south;" parent="1" vertex="1">
          <mxGeometry x="689.45" y="2832" width="20" height="336" as="geometry" />
        </mxCell>
        <mxCell id="wMxC_MqYFscU2hJ7u7GW-246" value="" style="rounded=0;whiteSpace=wrap;html=1;direction=south;" parent="1" vertex="1">
          <mxGeometry x="929.4500000000003" y="2832" width="20" height="110" as="geometry" />
        </mxCell>
        <object label="Send leave and status of leave&amp;nbsp;" placeholders="1" id="wMxC_MqYFscU2hJ7u7GW-247">
          <mxCell style="text;html=1;strokeColor=none;fillColor=none;align=center;verticalAlign=middle;whiteSpace=wrap;rounded=0;" parent="1" vertex="1">
            <mxGeometry x="717.73" y="2857" width="198.28" height="30" as="geometry" />
          </mxCell>
        </object>
        <mxCell id="wMxC_MqYFscU2hJ7u7GW-248" value="Serch lleave and eave status of that date" style="text;html=1;strokeColor=none;fillColor=none;align=center;verticalAlign=middle;whiteSpace=wrap;rounded=0;" parent="1" vertex="1">
          <mxGeometry x="707.73" y="2817" width="228.21" height="30" as="geometry" />
        </mxCell>
        <mxCell id="wMxC_MqYFscU2hJ7u7GW-249" value="" style="rounded=0;whiteSpace=wrap;html=1;direction=south;" parent="1" vertex="1">
          <mxGeometry x="209.45000000000005" y="2757" width="20" height="551" as="geometry" />
        </mxCell>
        <mxCell id="wMxC_MqYFscU2hJ7u7GW-250" value="" style="rounded=0;whiteSpace=wrap;html=1;direction=south;" parent="1" vertex="1">
          <mxGeometry x="449.45000000000005" y="2757" width="20" height="541" as="geometry" />
        </mxCell>
        <mxCell id="wMxC_MqYFscU2hJ7u7GW-251" style="edgeStyle=orthogonalEdgeStyle;rounded=0;orthogonalLoop=1;jettySize=auto;html=1;" parent="1" edge="1">
          <mxGeometry relative="1" as="geometry">
            <mxPoint x="239.45000000000005" y="2777" as="sourcePoint" />
            <mxPoint x="439.45000000000005" y="2777" as="targetPoint" />
          </mxGeometry>
        </mxCell>
        <mxCell id="wMxC_MqYFscU2hJ7u7GW-252" value="" style="html=1;verticalAlign=bottom;labelBackgroundColor=none;endArrow=open;endFill=0;dashed=1;rounded=0;" parent="1" edge="1">
          <mxGeometry width="160" relative="1" as="geometry">
            <mxPoint x="439.45000000000005" y="2817" as="sourcePoint" />
            <mxPoint x="239.45000000000005" y="2817" as="targetPoint" />
            <Array as="points" />
          </mxGeometry>
        </mxCell>
        <mxCell id="wMxC_MqYFscU2hJ7u7GW-253" style="edgeStyle=orthogonalEdgeStyle;rounded=0;orthogonalLoop=1;jettySize=auto;html=1;" parent="1" edge="1">
          <mxGeometry relative="1" as="geometry">
            <mxPoint x="239.45000000000005" y="2847" as="sourcePoint" />
            <mxPoint x="439.45000000000005" y="2847" as="targetPoint" />
          </mxGeometry>
        </mxCell>
        <mxCell id="wMxC_MqYFscU2hJ7u7GW-254" style="edgeStyle=orthogonalEdgeStyle;rounded=0;orthogonalLoop=1;jettySize=auto;html=1;exitX=0.167;exitY=0;exitDx=0;exitDy=0;exitPerimeter=0;" parent="1" edge="1">
          <mxGeometry relative="1" as="geometry">
            <mxPoint x="479.45000000000005" y="2847" as="sourcePoint" />
            <mxPoint x="679.45" y="2847" as="targetPoint" />
          </mxGeometry>
        </mxCell>
        <mxCell id="wMxC_MqYFscU2hJ7u7GW-255" value="" style="html=1;verticalAlign=bottom;labelBackgroundColor=none;endArrow=open;endFill=0;dashed=1;rounded=0;" parent="1" source="wMxC_MqYFscU2hJ7u7GW-271" edge="1">
          <mxGeometry width="160" relative="1" as="geometry">
            <mxPoint x="679.45" y="2887" as="sourcePoint" />
            <mxPoint x="479.45000000000005" y="2887" as="targetPoint" />
            <Array as="points" />
          </mxGeometry>
        </mxCell>
        <mxCell id="wMxC_MqYFscU2hJ7u7GW-256" value="Select date" style="text;html=1;strokeColor=none;fillColor=none;align=center;verticalAlign=middle;whiteSpace=wrap;rounded=0;" parent="1" vertex="1">
          <mxGeometry x="289.45000000000005" y="2817" width="80" height="30" as="geometry" />
        </mxCell>
        <mxCell id="wMxC_MqYFscU2hJ7u7GW-257" style="edgeStyle=orthogonalEdgeStyle;rounded=0;orthogonalLoop=1;jettySize=auto;html=1;exitX=0.167;exitY=0;exitDx=0;exitDy=0;exitPerimeter=0;" parent="1" edge="1">
          <mxGeometry relative="1" as="geometry">
            <mxPoint x="719.45" y="2847" as="sourcePoint" />
            <mxPoint x="919.4500000000003" y="2847" as="targetPoint" />
          </mxGeometry>
        </mxCell>
        <mxCell id="wMxC_MqYFscU2hJ7u7GW-258" value="" style="html=1;verticalAlign=bottom;labelBackgroundColor=none;endArrow=open;endFill=0;dashed=1;rounded=0;" parent="1" edge="1">
          <mxGeometry width="160" relative="1" as="geometry">
            <mxPoint x="919.4500000000003" y="2887" as="sourcePoint" />
            <mxPoint x="719.45" y="2887" as="targetPoint" />
            <Array as="points" />
          </mxGeometry>
        </mxCell>
        <object label="Date selected&amp;nbsp;" placeholders="1" id="wMxC_MqYFscU2hJ7u7GW-259">
          <mxCell style="text;html=1;strokeColor=none;fillColor=none;align=center;verticalAlign=middle;whiteSpace=wrap;rounded=0;" parent="1" vertex="1">
            <mxGeometry x="535.6200000000001" y="2817" width="80" height="30" as="geometry" />
          </mxCell>
        </object>
        <mxCell id="wMxC_MqYFscU2hJ7u7GW-260" value="" style="html=1;verticalAlign=bottom;labelBackgroundColor=none;endArrow=open;endFill=0;dashed=1;rounded=0;" parent="1" edge="1">
          <mxGeometry width="160" relative="1" as="geometry">
            <mxPoint x="679.45" y="2926" as="sourcePoint" />
            <mxPoint x="474.45000000000005" y="2926" as="targetPoint" />
            <Array as="points" />
          </mxGeometry>
        </mxCell>
        <mxCell id="wMxC_MqYFscU2hJ7u7GW-261" value="" style="html=1;verticalAlign=bottom;labelBackgroundColor=none;endArrow=open;endFill=0;dashed=1;rounded=0;" parent="1" edge="1">
          <mxGeometry width="160" relative="1" as="geometry">
            <mxPoint x="919.4500000000003" y="2926" as="sourcePoint" />
            <mxPoint x="714.45" y="2926" as="targetPoint" />
            <Array as="points" />
          </mxGeometry>
        </mxCell>
        <mxCell id="wMxC_MqYFscU2hJ7u7GW-262" value="" style="html=1;verticalAlign=bottom;labelBackgroundColor=none;endArrow=open;endFill=0;dashed=1;rounded=0;" parent="1" edge="1">
          <mxGeometry width="160" relative="1" as="geometry">
            <mxPoint x="439.45000000000005" y="2926" as="sourcePoint" />
            <mxPoint x="234.45000000000005" y="2926" as="targetPoint" />
            <Array as="points" />
          </mxGeometry>
        </mxCell>
        <object label="Display error massage" placeholders="1" id="wMxC_MqYFscU2hJ7u7GW-263">
          <mxCell style="text;html=1;strokeColor=none;fillColor=none;align=center;verticalAlign=middle;whiteSpace=wrap;rounded=0;container=0;" parent="1" vertex="1">
            <mxGeometry x="271.95000000000005" y="2896" width="135" height="30" as="geometry" />
          </mxCell>
        </object>
        <object label="error" placeholders="1" id="wMxC_MqYFscU2hJ7u7GW-264">
          <mxCell style="text;html=1;strokeColor=none;fillColor=none;align=center;verticalAlign=middle;whiteSpace=wrap;rounded=0;container=0;" parent="1" vertex="1">
            <mxGeometry x="534.45" y="2896" width="100" height="30" as="geometry" />
          </mxCell>
        </object>
        <object label="error" placeholders="1" id="wMxC_MqYFscU2hJ7u7GW-265">
          <mxCell style="text;html=1;strokeColor=none;fillColor=none;align=center;verticalAlign=middle;whiteSpace=wrap;rounded=0;container=0;" parent="1" vertex="1">
            <mxGeometry x="774.45" y="2896" width="100" height="30" as="geometry" />
          </mxCell>
        </object>
        <mxCell id="wMxC_MqYFscU2hJ7u7GW-266" value="" style="html=1;verticalAlign=bottom;labelBackgroundColor=none;endArrow=open;endFill=0;dashed=1;rounded=0;exitX=0.237;exitY=1.072;exitDx=0;exitDy=0;exitPerimeter=0;" parent="1" source="wMxC_MqYFscU2hJ7u7GW-250" edge="1">
          <mxGeometry width="160" relative="1" as="geometry">
            <mxPoint x="429.45000000000005" y="2886" as="sourcePoint" />
            <mxPoint x="229.45000000000005" y="2886" as="targetPoint" />
            <Array as="points" />
          </mxGeometry>
        </mxCell>
        <object label="Display&amp;nbsp;&amp;nbsp;leave and&amp;nbsp;&amp;nbsp;status of leave&amp;nbsp;" placeholders="1" id="wMxC_MqYFscU2hJ7u7GW-267">
          <mxCell style="text;html=1;strokeColor=none;fillColor=none;align=center;verticalAlign=middle;whiteSpace=wrap;rounded=0;" parent="1" vertex="1">
            <mxGeometry x="237.80999999999995" y="2858" width="234.14" height="30" as="geometry" />
          </mxCell>
        </object>
        <object label="Click leave button" placeholders="1" id="wMxC_MqYFscU2hJ7u7GW-268">
          <mxCell style="text;html=1;strokeColor=none;fillColor=none;align=center;verticalAlign=middle;whiteSpace=wrap;rounded=0;" parent="1" vertex="1">
            <mxGeometry x="271.55999999999995" y="2747" width="135.78" height="35" as="geometry" />
          </mxCell>
        </object>
        <object label="Display leave window" placeholders="1" id="wMxC_MqYFscU2hJ7u7GW-269">
          <mxCell style="text;html=1;strokeColor=none;fillColor=none;align=center;verticalAlign=middle;whiteSpace=wrap;rounded=0;" parent="1" vertex="1">
            <mxGeometry x="265.7000000000003" y="2782" width="147.5" height="35" as="geometry" />
          </mxCell>
        </object>
        <mxCell id="wMxC_MqYFscU2hJ7u7GW-270" value="" style="html=1;verticalAlign=bottom;labelBackgroundColor=none;endArrow=open;endFill=0;dashed=1;rounded=0;" parent="1" target="wMxC_MqYFscU2hJ7u7GW-271" edge="1">
          <mxGeometry width="160" relative="1" as="geometry">
            <mxPoint x="679.45" y="2887" as="sourcePoint" />
            <mxPoint x="479.45000000000005" y="2887" as="targetPoint" />
            <Array as="points" />
          </mxGeometry>
        </mxCell>
        <object label="Send&amp;nbsp;leave and status of leave&amp;nbsp;" placeholders="1" id="wMxC_MqYFscU2hJ7u7GW-271">
          <mxCell style="text;html=1;strokeColor=none;fillColor=none;align=center;verticalAlign=middle;whiteSpace=wrap;rounded=0;" parent="1" vertex="1">
            <mxGeometry x="480.30999999999995" y="2857" width="237.42" height="30" as="geometry" />
          </mxCell>
        </object>
        <object label="Display confermation massage" placeholders="1" id="wMxC_MqYFscU2hJ7u7GW-272">
          <mxCell style="text;html=1;strokeColor=none;fillColor=none;align=center;verticalAlign=middle;whiteSpace=wrap;rounded=0;container=0;" parent="1" vertex="1">
            <mxGeometry x="486.72" y="3051" width="201.25" height="30" as="geometry" />
          </mxCell>
        </object>
        <mxCell id="wMxC_MqYFscU2hJ7u7GW-273" value="" style="endArrow=none;dashed=1;html=1;rounded=0;" parent="1" edge="1">
          <mxGeometry width="50" height="50" relative="1" as="geometry">
            <mxPoint x="216.72000000000003" y="3371" as="sourcePoint" />
            <mxPoint x="217.72000000000003" y="3311" as="targetPoint" />
            <Array as="points" />
          </mxGeometry>
        </mxCell>
        <mxCell id="wMxC_MqYFscU2hJ7u7GW-274" value="" style="endArrow=none;dashed=1;html=1;rounded=0;" parent="1" edge="1">
          <mxGeometry width="50" height="50" relative="1" as="geometry">
            <mxPoint x="458.95000000000005" y="3360" as="sourcePoint" />
            <mxPoint x="458.95000000000005" y="3300" as="targetPoint" />
          </mxGeometry>
        </mxCell>
        <mxCell id="wMxC_MqYFscU2hJ7u7GW-275" style="edgeStyle=orthogonalEdgeStyle;rounded=0;orthogonalLoop=1;jettySize=auto;html=1;" parent="1" edge="1">
          <mxGeometry relative="1" as="geometry">
            <mxPoint x="477.6500000000001" y="2961" as="sourcePoint" />
            <mxPoint x="677.6500000000001" y="2961" as="targetPoint" />
          </mxGeometry>
        </mxCell>
        <mxCell id="wMxC_MqYFscU2hJ7u7GW-276" style="edgeStyle=orthogonalEdgeStyle;rounded=0;orthogonalLoop=1;jettySize=auto;html=1;" parent="1" edge="1">
          <mxGeometry relative="1" as="geometry">
            <mxPoint x="241.72000000000003" y="2961" as="sourcePoint" />
            <mxPoint x="441.72" y="2961" as="targetPoint" />
          </mxGeometry>
        </mxCell>
        <mxCell id="wMxC_MqYFscU2hJ7u7GW-277" style="edgeStyle=orthogonalEdgeStyle;rounded=0;orthogonalLoop=1;jettySize=auto;html=1;" parent="1" edge="1">
          <mxGeometry relative="1" as="geometry">
            <mxPoint x="240.94000000000005" y="3001" as="sourcePoint" />
            <mxPoint x="440.94000000000005" y="3001" as="targetPoint" />
          </mxGeometry>
        </mxCell>
        <mxCell id="wMxC_MqYFscU2hJ7u7GW-278" style="edgeStyle=orthogonalEdgeStyle;rounded=0;orthogonalLoop=1;jettySize=auto;html=1;" parent="1" edge="1">
          <mxGeometry relative="1" as="geometry">
            <mxPoint x="481.72" y="3001" as="sourcePoint" />
            <mxPoint x="681.72" y="3001" as="targetPoint" />
          </mxGeometry>
        </mxCell>
        <mxCell id="wMxC_MqYFscU2hJ7u7GW-279" style="edgeStyle=orthogonalEdgeStyle;rounded=0;orthogonalLoop=1;jettySize=auto;html=1;" parent="1" edge="1">
          <mxGeometry relative="1" as="geometry">
            <mxPoint x="480.94000000000005" y="3041" as="sourcePoint" />
            <mxPoint x="680.94" y="3041" as="targetPoint" />
          </mxGeometry>
        </mxCell>
        <mxCell id="wMxC_MqYFscU2hJ7u7GW-280" style="edgeStyle=orthogonalEdgeStyle;rounded=0;orthogonalLoop=1;jettySize=auto;html=1;" parent="1" edge="1">
          <mxGeometry relative="1" as="geometry">
            <mxPoint x="235.94000000000005" y="3041" as="sourcePoint" />
            <mxPoint x="435.94000000000005" y="3041" as="targetPoint" />
          </mxGeometry>
        </mxCell>
        <mxCell id="wMxC_MqYFscU2hJ7u7GW-281" value="" style="html=1;verticalAlign=bottom;labelBackgroundColor=none;endArrow=open;endFill=0;dashed=1;rounded=0;" parent="1" edge="1">
          <mxGeometry width="160" relative="1" as="geometry">
            <mxPoint x="686.72" y="3081" as="sourcePoint" />
            <mxPoint x="481.72" y="3081" as="targetPoint" />
            <Array as="points" />
          </mxGeometry>
        </mxCell>
        <mxCell id="wMxC_MqYFscU2hJ7u7GW-282" value="" style="html=1;verticalAlign=bottom;labelBackgroundColor=none;endArrow=open;endFill=0;dashed=1;rounded=0;" parent="1" edge="1">
          <mxGeometry width="160" relative="1" as="geometry">
            <mxPoint x="440.47" y="3081" as="sourcePoint" />
            <mxPoint x="235.47000000000003" y="3081" as="targetPoint" />
            <Array as="points" />
          </mxGeometry>
        </mxCell>
        <mxCell id="wMxC_MqYFscU2hJ7u7GW-283" style="edgeStyle=orthogonalEdgeStyle;rounded=0;orthogonalLoop=1;jettySize=auto;html=1;" parent="1" edge="1">
          <mxGeometry relative="1" as="geometry">
            <mxPoint x="236.4000000000001" y="3121" as="sourcePoint" />
            <mxPoint x="436.4000000000001" y="3121" as="targetPoint" />
          </mxGeometry>
        </mxCell>
        <mxCell id="wMxC_MqYFscU2hJ7u7GW-284" style="edgeStyle=orthogonalEdgeStyle;rounded=0;orthogonalLoop=1;jettySize=auto;html=1;" parent="1" edge="1">
          <mxGeometry relative="1" as="geometry">
            <mxPoint x="478.44000000000005" y="3121" as="sourcePoint" />
            <mxPoint x="678.44" y="3121" as="targetPoint" />
          </mxGeometry>
        </mxCell>
        <mxCell id="wMxC_MqYFscU2hJ7u7GW-285" style="edgeStyle=orthogonalEdgeStyle;rounded=0;orthogonalLoop=1;jettySize=auto;html=1;" parent="1" edge="1">
          <mxGeometry relative="1" as="geometry">
            <mxPoint x="718.44" y="3121" as="sourcePoint" />
            <mxPoint x="918.4400000000003" y="3121" as="targetPoint" />
          </mxGeometry>
        </mxCell>
        <mxCell id="wMxC_MqYFscU2hJ7u7GW-286" value="" style="html=1;verticalAlign=bottom;labelBackgroundColor=none;endArrow=open;endFill=0;dashed=1;rounded=0;" parent="1" edge="1">
          <mxGeometry width="160" relative="1" as="geometry">
            <mxPoint x="920" y="3161" as="sourcePoint" />
            <mxPoint x="714.5300000000002" y="3161" as="targetPoint" />
            <Array as="points" />
          </mxGeometry>
        </mxCell>
        <mxCell id="wMxC_MqYFscU2hJ7u7GW-287" value="" style="html=1;verticalAlign=bottom;labelBackgroundColor=none;endArrow=open;endFill=0;dashed=1;rounded=0;" parent="1" edge="1">
          <mxGeometry width="160" relative="1" as="geometry">
            <mxPoint x="443.4400000000003" y="3161" as="sourcePoint" />
            <mxPoint x="238.44000000000028" y="3161" as="targetPoint" />
            <Array as="points" />
          </mxGeometry>
        </mxCell>
        <mxCell id="wMxC_MqYFscU2hJ7u7GW-288" value="" style="html=1;verticalAlign=bottom;labelBackgroundColor=none;endArrow=open;endFill=0;dashed=1;rounded=0;" parent="1" edge="1">
          <mxGeometry width="160" relative="1" as="geometry">
            <mxPoint x="677.9600000000003" y="3161" as="sourcePoint" />
            <mxPoint x="472.96000000000026" y="3161" as="targetPoint" />
            <Array as="points" />
          </mxGeometry>
        </mxCell>
        <object label="Select&amp;nbsp;options" placeholders="1" id="wMxC_MqYFscU2hJ7u7GW-289">
          <mxCell style="text;html=1;strokeColor=none;fillColor=none;align=center;verticalAlign=middle;whiteSpace=wrap;rounded=0;container=0;" parent="1" vertex="1">
            <mxGeometry x="270.5500000000002" y="2926" width="138.28" height="30" as="geometry" />
          </mxCell>
        </object>
        <object label="Select Send request button&amp;nbsp;" placeholders="1" id="wMxC_MqYFscU2hJ7u7GW-290">
          <mxCell style="text;html=1;strokeColor=none;fillColor=none;align=center;verticalAlign=middle;whiteSpace=wrap;rounded=0;container=0;" parent="1" vertex="1">
            <mxGeometry x="250" y="3011" width="169.07" height="30" as="geometry" />
          </mxCell>
        </object>
        <object label="Display confermation massage" placeholders="1" id="wMxC_MqYFscU2hJ7u7GW-291">
          <mxCell style="text;html=1;strokeColor=none;fillColor=none;align=center;verticalAlign=middle;whiteSpace=wrap;rounded=0;container=0;" parent="1" vertex="1">
            <mxGeometry x="253.44000000000005" y="3051" width="175" height="30" as="geometry" />
          </mxCell>
        </object>
        <object label="Yes selected" placeholders="1" id="wMxC_MqYFscU2hJ7u7GW-292">
          <mxCell style="text;html=1;strokeColor=none;fillColor=none;align=center;verticalAlign=middle;whiteSpace=wrap;rounded=0;container=0;" parent="1" vertex="1">
            <mxGeometry x="506.72" y="3091" width="138.28" height="30" as="geometry" />
          </mxCell>
        </object>
        <object label="Yes select" placeholders="1" id="wMxC_MqYFscU2hJ7u7GW-293">
          <mxCell style="text;html=1;strokeColor=none;fillColor=none;align=center;verticalAlign=middle;whiteSpace=wrap;rounded=0;container=0;" parent="1" vertex="1">
            <mxGeometry x="268.44000000000005" y="3091" width="138.28" height="30" as="geometry" />
          </mxCell>
        </object>
        <object label="Error" placeholders="1" id="wMxC_MqYFscU2hJ7u7GW-294">
          <mxCell style="text;html=1;strokeColor=none;fillColor=none;align=center;verticalAlign=middle;whiteSpace=wrap;rounded=0;container=0;" parent="1" vertex="1">
            <mxGeometry x="752.1100000000004" y="3131" width="138.28" height="30" as="geometry" />
          </mxCell>
        </object>
        <object label="Display error massage" placeholders="1" id="wMxC_MqYFscU2hJ7u7GW-295">
          <mxCell style="text;html=1;strokeColor=none;fillColor=none;align=center;verticalAlign=middle;whiteSpace=wrap;rounded=0;container=0;" parent="1" vertex="1">
            <mxGeometry x="502.11000000000035" y="3131" width="138.28" height="30" as="geometry" />
          </mxCell>
        </object>
        <object label="Display error massage" placeholders="1" id="wMxC_MqYFscU2hJ7u7GW-296">
          <mxCell style="text;html=1;strokeColor=none;fillColor=none;align=center;verticalAlign=middle;whiteSpace=wrap;rounded=0;container=0;" parent="1" vertex="1">
            <mxGeometry x="263.7500000000002" y="3131" width="138.28" height="30" as="geometry" />
          </mxCell>
        </object>
        <object label="send reason" placeholders="1" id="wMxC_MqYFscU2hJ7u7GW-297">
          <mxCell style="text;html=1;strokeColor=none;fillColor=none;align=center;verticalAlign=middle;whiteSpace=wrap;rounded=0;container=0;" parent="1" vertex="1">
            <mxGeometry x="507.0300000000002" y="2971" width="138.28" height="30" as="geometry" />
          </mxCell>
        </object>
        <object label="Give reason&amp;nbsp;" placeholders="1" id="wMxC_MqYFscU2hJ7u7GW-298">
          <mxCell style="text;html=1;strokeColor=none;fillColor=none;align=center;verticalAlign=middle;whiteSpace=wrap;rounded=0;container=0;" parent="1" vertex="1">
            <mxGeometry x="269.22" y="2971" width="138.28" height="30" as="geometry" />
          </mxCell>
        </object>
        <object label="Option selected" placeholders="1" id="wMxC_MqYFscU2hJ7u7GW-299">
          <mxCell style="text;html=1;strokeColor=none;fillColor=none;align=center;verticalAlign=middle;whiteSpace=wrap;rounded=0;container=0;" parent="1" vertex="1">
            <mxGeometry x="510.3900000000001" y="2936" width="138.28" height="30" as="geometry" />
          </mxCell>
        </object>
        <object label="Send request button selected" placeholders="1" id="wMxC_MqYFscU2hJ7u7GW-300">
          <mxCell style="text;html=1;strokeColor=none;fillColor=none;align=center;verticalAlign=middle;whiteSpace=wrap;rounded=0;container=0;" parent="1" vertex="1">
            <mxGeometry x="497.8499999999999" y="3011" width="173.2" height="30" as="geometry" />
          </mxCell>
        </object>
        <mxCell id="wMxC_MqYFscU2hJ7u7GW-301" value="" style="rounded=0;whiteSpace=wrap;html=1;direction=south;" parent="1" vertex="1">
          <mxGeometry x="928.4399999999996" y="3101" width="20" height="110" as="geometry" />
        </mxCell>
        <object label="update leave" placeholders="1" id="wMxC_MqYFscU2hJ7u7GW-302">
          <mxCell style="text;html=1;strokeColor=none;fillColor=none;align=center;verticalAlign=middle;whiteSpace=wrap;rounded=0;container=0;" parent="1" vertex="1">
            <mxGeometry x="745.1500000000001" y="3091" width="138.28" height="30" as="geometry" />
          </mxCell>
        </object>
        <object label="No select select" placeholders="1" id="wMxC_MqYFscU2hJ7u7GW-303">
          <mxCell style="text;html=1;strokeColor=none;fillColor=none;align=center;verticalAlign=middle;whiteSpace=wrap;rounded=0;container=0;" parent="1" vertex="1">
            <mxGeometry x="264.1400000000003" y="3211" width="138.28" height="30" as="geometry" />
          </mxCell>
        </object>
        <mxCell id="wMxC_MqYFscU2hJ7u7GW-304" value="" style="html=1;verticalAlign=bottom;labelBackgroundColor=none;endArrow=open;endFill=0;dashed=1;rounded=0;" parent="1" edge="1">
          <mxGeometry width="160" relative="1" as="geometry">
            <mxPoint x="446.6400000000003" y="3271" as="sourcePoint" />
            <mxPoint x="241.64000000000033" y="3271" as="targetPoint" />
            <Array as="points" />
          </mxGeometry>
        </mxCell>
        <mxCell id="wMxC_MqYFscU2hJ7u7GW-305" style="edgeStyle=orthogonalEdgeStyle;rounded=0;orthogonalLoop=1;jettySize=auto;html=1;" parent="1" edge="1">
          <mxGeometry relative="1" as="geometry">
            <mxPoint x="239.14000000000033" y="3241" as="sourcePoint" />
            <mxPoint x="439.1400000000003" y="3241" as="targetPoint" />
          </mxGeometry>
        </mxCell>
        <object label="Available for edit" placeholders="1" id="wMxC_MqYFscU2hJ7u7GW-306">
          <mxCell style="text;html=1;strokeColor=none;fillColor=none;align=center;verticalAlign=middle;whiteSpace=wrap;rounded=0;container=0;" parent="1" vertex="1">
            <mxGeometry x="263.2800000000002" y="3251" width="138.28" height="25" as="geometry" />
          </mxCell>
        </object>
        <mxCell id="wMxC_MqYFscU2hJ7u7GW-307" style="edgeStyle=orthogonalEdgeStyle;rounded=0;orthogonalLoop=1;jettySize=auto;html=1;" parent="1" edge="1">
          <mxGeometry relative="1" as="geometry">
            <mxPoint x="956.7199999999998" y="3120" as="sourcePoint" />
            <mxPoint x="1156.7200000000003" y="3120" as="targetPoint" />
          </mxGeometry>
        </mxCell>
        <mxCell id="wMxC_MqYFscU2hJ7u7GW-308" value="" style="rounded=0;whiteSpace=wrap;html=1;direction=south;" parent="1" vertex="1">
          <mxGeometry x="1166.7199999999998" y="3101" width="20" height="50" as="geometry" />
        </mxCell>
        <object label="Send request" placeholders="1" id="wMxC_MqYFscU2hJ7u7GW-309">
          <mxCell style="text;html=1;strokeColor=none;fillColor=none;align=center;verticalAlign=middle;whiteSpace=wrap;rounded=0;container=0;" parent="1" vertex="1">
            <mxGeometry x="978.4399999999996" y="3091" width="138.28" height="30" as="geometry" />
          </mxCell>
        </object>
        <mxCell id="wMxC_MqYFscU2hJ7u7GW-310" value="" style="rounded=0;whiteSpace=wrap;html=1;direction=south;" parent="1" vertex="1">
          <mxGeometry x="1166.7199999999998" y="3181" width="20" height="50" as="geometry" />
        </mxCell>
        <mxCell id="wMxC_MqYFscU2hJ7u7GW-311" value="" style="html=1;verticalAlign=bottom;labelBackgroundColor=none;endArrow=open;endFill=0;dashed=1;rounded=0;" parent="1" edge="1">
          <mxGeometry width="160" relative="1" as="geometry">
            <mxPoint x="1161.7199999999998" y="3201" as="sourcePoint" />
            <mxPoint x="956.7199999999998" y="3201" as="targetPoint" />
            <Array as="points" />
          </mxGeometry>
        </mxCell>
        <object label="Update leave status to accept or reject" placeholders="1" id="wMxC_MqYFscU2hJ7u7GW-312">
          <mxCell style="text;html=1;strokeColor=none;fillColor=none;align=center;verticalAlign=middle;whiteSpace=wrap;rounded=0;container=0;" parent="1" vertex="1">
            <mxGeometry x="988.4399999999996" y="3166" width="138.28" height="30" as="geometry" />
          </mxCell>
        </object>
        <mxCell id="lNXAA8ya85KhI0WRaUo5-1" value="" style="html=1;verticalAlign=bottom;labelBackgroundColor=none;endArrow=open;endFill=0;dashed=1;rounded=0;entryX=0;entryY=1;entryDx=0;entryDy=0;" parent="1" edge="1">
          <mxGeometry width="160" relative="1" as="geometry">
            <mxPoint x="680" y="2380" as="sourcePoint" />
            <mxPoint x="482.58000000000015" y="2380" as="targetPoint" />
            <Array as="points" />
          </mxGeometry>
        </mxCell>
        <mxCell id="Zykf1ZHxqBieM8WaJR_5-1" value="" style="rounded=0;whiteSpace=wrap;html=1;" parent="1" vertex="1">
          <mxGeometry x="321.72" y="-1901" width="120" height="40" as="geometry" />
        </mxCell>
        <mxCell id="Zykf1ZHxqBieM8WaJR_5-3" value="" style="endArrow=none;dashed=1;html=1;rounded=0;" parent="1" edge="1">
          <mxGeometry width="50" height="50" relative="1" as="geometry">
            <mxPoint x="140" y="-1566" as="sourcePoint" />
            <mxPoint x="141.32" y="-1866" as="targetPoint" />
            <Array as="points" />
          </mxGeometry>
        </mxCell>
        <mxCell id="Zykf1ZHxqBieM8WaJR_5-4" value="" style="endArrow=none;dashed=1;html=1;rounded=0;" parent="1" edge="1">
          <mxGeometry width="50" height="50" relative="1" as="geometry">
            <mxPoint x="380" y="-1566" as="sourcePoint" />
            <mxPoint x="381.72" y="-1861" as="targetPoint" />
          </mxGeometry>
        </mxCell>
        <mxCell id="Zykf1ZHxqBieM8WaJR_5-5" value="Cashier" style="text;html=1;strokeColor=none;fillColor=none;align=center;verticalAlign=middle;whiteSpace=wrap;rounded=0;" parent="1" vertex="1">
          <mxGeometry x="111.72" y="-1896" width="60" height="30" as="geometry" />
        </mxCell>
        <mxCell id="Zykf1ZHxqBieM8WaJR_5-6" value="Front end" style="text;html=1;strokeColor=none;fillColor=none;align=center;verticalAlign=middle;whiteSpace=wrap;rounded=0;" parent="1" vertex="1">
          <mxGeometry x="351.72" y="-1896" width="60" height="30" as="geometry" />
        </mxCell>
        <mxCell id="Zykf1ZHxqBieM8WaJR_5-9" value="" style="rounded=0;whiteSpace=wrap;html=1;" parent="1" vertex="1">
          <mxGeometry x="561.72" y="-1901" width="120" height="40" as="geometry" />
        </mxCell>
        <mxCell id="Zykf1ZHxqBieM8WaJR_5-10" value="Controller" style="text;html=1;strokeColor=none;fillColor=none;align=center;verticalAlign=middle;whiteSpace=wrap;rounded=0;" parent="1" vertex="1">
          <mxGeometry x="591.72" y="-1896" width="60" height="30" as="geometry" />
        </mxCell>
        <mxCell id="Zykf1ZHxqBieM8WaJR_5-13" value="" style="rounded=0;whiteSpace=wrap;html=1;" parent="1" vertex="1">
          <mxGeometry x="801.72" y="-1901" width="120" height="40" as="geometry" />
        </mxCell>
        <mxCell id="Zykf1ZHxqBieM8WaJR_5-14" value="Database" style="text;html=1;strokeColor=none;fillColor=none;align=center;verticalAlign=middle;whiteSpace=wrap;rounded=0;" parent="1" vertex="1">
          <mxGeometry x="831.72" y="-1896" width="60" height="30" as="geometry" />
        </mxCell>
        <mxCell id="Zykf1ZHxqBieM8WaJR_5-15" value="" style="endArrow=none;dashed=1;html=1;rounded=0;" parent="1" edge="1">
          <mxGeometry width="50" height="50" relative="1" as="geometry">
            <mxPoint x="862.22" y="-1596" as="sourcePoint" />
            <mxPoint x="861.72" y="-1641" as="targetPoint" />
          </mxGeometry>
        </mxCell>
        <mxCell id="Zykf1ZHxqBieM8WaJR_5-54" value="" style="endArrow=none;dashed=1;html=1;rounded=0;entryX=0.5;entryY=1;entryDx=0;entryDy=0;" parent="1" target="Zykf1ZHxqBieM8WaJR_5-9" edge="1">
          <mxGeometry width="50" height="50" relative="1" as="geometry">
            <mxPoint x="622" y="-1566" as="sourcePoint" />
            <mxPoint x="31.698260869565246" y="-1916" as="targetPoint" />
          </mxGeometry>
        </mxCell>
        <mxCell id="Zykf1ZHxqBieM8WaJR_5-55" value="" style="endArrow=none;dashed=1;html=1;rounded=0;entryX=0.5;entryY=1;entryDx=0;entryDy=0;" parent="1" target="Zykf1ZHxqBieM8WaJR_5-13" edge="1">
          <mxGeometry width="50" height="50" relative="1" as="geometry">
            <mxPoint x="862" y="-1566" as="sourcePoint" />
            <mxPoint x="271.6982608695653" y="-1916" as="targetPoint" />
          </mxGeometry>
        </mxCell>
        <mxCell id="Zykf1ZHxqBieM8WaJR_5-73" value="4.1&amp;nbsp; Log in" style="text;html=1;align=center;verticalAlign=middle;whiteSpace=wrap;rounded=0;" parent="1" vertex="1">
          <mxGeometry x="81.72" y="-2026" width="120" height="30" as="geometry" />
        </mxCell>
        <mxCell id="Zykf1ZHxqBieM8WaJR_5-74" value="4. cashier" style="text;html=1;align=center;verticalAlign=middle;whiteSpace=wrap;rounded=0;" parent="1" vertex="1">
          <mxGeometry x="79.45" y="-2066" width="130" height="30" as="geometry" />
        </mxCell>
        <mxCell id="Zykf1ZHxqBieM8WaJR_5-75" value="" style="shape=umlActor;verticalLabelPosition=bottom;verticalAlign=top;html=1;outlineConnect=0;" parent="1" vertex="1">
          <mxGeometry x="122.5" y="-1956" width="30" height="60" as="geometry" />
        </mxCell>
        <mxCell id="Zykf1ZHxqBieM8WaJR_5-107" value="else" style="html=1;whiteSpace=wrap;align=left;" parent="1" vertex="1">
          <mxGeometry x="110.43" y="-1656" width="770" height="40" as="geometry" />
        </mxCell>
        <mxCell id="Zykf1ZHxqBieM8WaJR_5-108" value="&amp;nbsp;if" style="html=1;whiteSpace=wrap;align=left;" parent="1" vertex="1">
          <mxGeometry x="110.43" y="-1696" width="770" height="40" as="geometry" />
        </mxCell>
        <mxCell id="Zykf1ZHxqBieM8WaJR_5-109" style="edgeStyle=orthogonalEdgeStyle;rounded=0;orthogonalLoop=1;jettySize=auto;html=1;" parent="1" edge="1">
          <mxGeometry relative="1" as="geometry">
            <mxPoint x="161.82" y="-1716" as="sourcePoint" />
            <mxPoint x="361.81999999999994" y="-1716" as="targetPoint" />
          </mxGeometry>
        </mxCell>
        <mxCell id="Zykf1ZHxqBieM8WaJR_5-110" value="" style="rounded=0;whiteSpace=wrap;html=1;direction=south;" parent="1" vertex="1">
          <mxGeometry x="131.82" y="-1776" width="20" height="170" as="geometry" />
        </mxCell>
        <mxCell id="Zykf1ZHxqBieM8WaJR_5-111" style="edgeStyle=orthogonalEdgeStyle;rounded=0;orthogonalLoop=1;jettySize=auto;html=1;entryX=0.2;entryY=1.16;entryDx=0;entryDy=0;entryPerimeter=0;" parent="1" target="Zykf1ZHxqBieM8WaJR_5-113" edge="1">
          <mxGeometry relative="1" as="geometry">
            <mxPoint x="401.81999999999994" y="-1712" as="sourcePoint" />
          </mxGeometry>
        </mxCell>
        <mxCell id="Zykf1ZHxqBieM8WaJR_5-112" value="" style="rounded=0;whiteSpace=wrap;html=1;direction=south;" parent="1" vertex="1">
          <mxGeometry x="371.81999999999994" y="-1776" width="20" height="170" as="geometry" />
        </mxCell>
        <mxCell id="Zykf1ZHxqBieM8WaJR_5-113" value="" style="rounded=0;whiteSpace=wrap;html=1;direction=south;" parent="1" vertex="1">
          <mxGeometry x="614.8199999999999" y="-1737" width="20" height="130" as="geometry" />
        </mxCell>
        <mxCell id="Zykf1ZHxqBieM8WaJR_5-114" value="" style="rounded=0;whiteSpace=wrap;html=1;direction=south;" parent="1" vertex="1">
          <mxGeometry x="850.8199999999999" y="-1736" width="20" height="130" as="geometry" />
        </mxCell>
        <mxCell id="Zykf1ZHxqBieM8WaJR_5-115" style="edgeStyle=orthogonalEdgeStyle;rounded=0;orthogonalLoop=1;jettySize=auto;html=1;" parent="1" edge="1">
          <mxGeometry relative="1" as="geometry">
            <mxPoint x="641.8199999999999" y="-1715" as="sourcePoint" />
            <mxPoint x="841.8199999999999" y="-1715" as="targetPoint" />
          </mxGeometry>
        </mxCell>
        <mxCell id="Zykf1ZHxqBieM8WaJR_5-116" value="" style="html=1;verticalAlign=bottom;labelBackgroundColor=none;endArrow=open;endFill=0;dashed=1;rounded=0;" parent="1" edge="1">
          <mxGeometry width="160" relative="1" as="geometry">
            <mxPoint x="601.8199999999999" y="-1676" as="sourcePoint" />
            <mxPoint x="401.81999999999994" y="-1676" as="targetPoint" />
          </mxGeometry>
        </mxCell>
        <mxCell id="Zykf1ZHxqBieM8WaJR_5-117" value="" style="html=1;verticalAlign=bottom;labelBackgroundColor=none;endArrow=open;endFill=0;dashed=1;rounded=0;" parent="1" edge="1">
          <mxGeometry width="160" relative="1" as="geometry">
            <mxPoint x="841.8199999999999" y="-1676" as="sourcePoint" />
            <mxPoint x="641.8199999999999" y="-1676" as="targetPoint" />
          </mxGeometry>
        </mxCell>
        <mxCell id="Zykf1ZHxqBieM8WaJR_5-118" value="" style="html=1;verticalAlign=bottom;labelBackgroundColor=none;endArrow=open;endFill=0;dashed=1;rounded=0;" parent="1" edge="1">
          <mxGeometry width="160" relative="1" as="geometry">
            <mxPoint x="361.81999999999994" y="-1676" as="sourcePoint" />
            <mxPoint x="161.82" y="-1676" as="targetPoint" />
            <Array as="points" />
          </mxGeometry>
        </mxCell>
        <mxCell id="Zykf1ZHxqBieM8WaJR_5-119" value="" style="html=1;verticalAlign=bottom;labelBackgroundColor=none;endArrow=open;endFill=0;dashed=1;rounded=0;" parent="1" edge="1">
          <mxGeometry width="160" relative="1" as="geometry">
            <mxPoint x="361.81999999999994" y="-1636" as="sourcePoint" />
            <mxPoint x="161.82" y="-1636" as="targetPoint" />
            <Array as="points" />
          </mxGeometry>
        </mxCell>
        <mxCell id="Zykf1ZHxqBieM8WaJR_5-120" value="" style="html=1;verticalAlign=bottom;labelBackgroundColor=none;endArrow=open;endFill=0;dashed=1;rounded=0;" parent="1" edge="1">
          <mxGeometry width="160" relative="1" as="geometry">
            <mxPoint x="601.8199999999999" y="-1636" as="sourcePoint" />
            <mxPoint x="401.81999999999994" y="-1636" as="targetPoint" />
          </mxGeometry>
        </mxCell>
        <mxCell id="Zykf1ZHxqBieM8WaJR_5-121" value="" style="html=1;verticalAlign=bottom;labelBackgroundColor=none;endArrow=open;endFill=0;dashed=1;rounded=0;" parent="1" edge="1">
          <mxGeometry width="160" relative="1" as="geometry">
            <mxPoint x="841.8199999999999" y="-1636" as="sourcePoint" />
            <mxPoint x="641.8199999999999" y="-1636" as="targetPoint" />
          </mxGeometry>
        </mxCell>
        <mxCell id="Zykf1ZHxqBieM8WaJR_5-122" value="" style="group" parent="1" vertex="1" connectable="0">
          <mxGeometry x="711.8199999999999" y="-1746" width="110" height="120" as="geometry" />
        </mxCell>
        <object label="invalid login" placeholders="1" id="Zykf1ZHxqBieM8WaJR_5-123">
          <mxCell style="text;html=1;strokeColor=none;fillColor=none;align=center;verticalAlign=middle;whiteSpace=wrap;rounded=0;" parent="Zykf1ZHxqBieM8WaJR_5-122" vertex="1">
            <mxGeometry x="-5" y="80" width="70" height="40" as="geometry" />
          </mxCell>
        </object>
        <object label="Verified" placeholders="1" id="Zykf1ZHxqBieM8WaJR_5-124">
          <mxCell style="text;html=1;strokeColor=none;fillColor=none;align=center;verticalAlign=middle;whiteSpace=wrap;rounded=0;" parent="Zykf1ZHxqBieM8WaJR_5-122" vertex="1">
            <mxGeometry y="40" width="60" height="40" as="geometry" />
          </mxCell>
        </object>
        <mxCell id="Zykf1ZHxqBieM8WaJR_5-125" style="edgeStyle=orthogonalEdgeStyle;rounded=0;orthogonalLoop=1;jettySize=auto;html=1;" parent="1" edge="1">
          <mxGeometry relative="1" as="geometry">
            <mxPoint x="361.81999999999994" y="-1756" as="sourcePoint" />
            <mxPoint x="161.82" y="-1756" as="targetPoint" />
          </mxGeometry>
        </mxCell>
        <mxCell id="Zykf1ZHxqBieM8WaJR_5-126" value="" style="group" parent="1" vertex="1" connectable="0">
          <mxGeometry x="231.82" y="-1796" width="220" height="120" as="geometry" />
        </mxCell>
        <object label="Display login page" placeholders="1" id="Zykf1ZHxqBieM8WaJR_5-127">
          <mxCell style="text;html=1;strokeColor=none;fillColor=none;align=center;verticalAlign=middle;whiteSpace=wrap;rounded=0;" parent="Zykf1ZHxqBieM8WaJR_5-126" vertex="1">
            <mxGeometry x="-30" y="10" width="120" height="40" as="geometry" />
          </mxCell>
        </object>
        <object label="Enter user name and password" placeholders="1" id="Zykf1ZHxqBieM8WaJR_5-129">
          <mxCell style="text;html=1;strokeColor=none;fillColor=none;align=center;verticalAlign=middle;whiteSpace=wrap;rounded=0;" parent="Zykf1ZHxqBieM8WaJR_5-126" vertex="1">
            <mxGeometry x="-73.91" y="50" width="190" height="40" as="geometry" />
          </mxCell>
        </object>
        <object label="Send user name and password" placeholders="1" id="Zykf1ZHxqBieM8WaJR_5-130">
          <mxCell style="text;html=1;strokeColor=none;fillColor=none;align=center;verticalAlign=middle;whiteSpace=wrap;rounded=0;" parent="1" vertex="1">
            <mxGeometry x="411.81999999999994" y="-1746" width="170" height="40" as="geometry" />
          </mxCell>
        </object>
        <object label="Invalid" placeholders="1" id="Zykf1ZHxqBieM8WaJR_5-131">
          <mxCell style="text;html=1;strokeColor=none;fillColor=none;align=center;verticalAlign=middle;whiteSpace=wrap;rounded=0;" parent="1" vertex="1">
            <mxGeometry x="471.81999999999994" y="-1666" width="60" height="40" as="geometry" />
          </mxCell>
        </object>
        <object label="Verification" placeholders="1" id="Zykf1ZHxqBieM8WaJR_5-132">
          <mxCell style="text;html=1;strokeColor=none;fillColor=none;align=center;verticalAlign=middle;whiteSpace=wrap;rounded=0;" parent="1" vertex="1">
            <mxGeometry x="471.81999999999994" y="-1706" width="60" height="40" as="geometry" />
          </mxCell>
        </object>
        <object label="Verify user name and password detect Employee type" placeholders="1" id="Zykf1ZHxqBieM8WaJR_5-133">
          <mxCell style="text;html=1;strokeColor=none;fillColor=none;align=center;verticalAlign=middle;whiteSpace=wrap;rounded=0;" parent="1" vertex="1">
            <mxGeometry x="641.8199999999999" y="-1756" width="180" height="40" as="geometry" />
          </mxCell>
        </object>
        <object label="Display error massage" placeholders="1" id="Zykf1ZHxqBieM8WaJR_5-134">
          <mxCell style="text;html=1;strokeColor=none;fillColor=none;align=center;verticalAlign=middle;whiteSpace=wrap;rounded=0;" parent="1" vertex="1">
            <mxGeometry x="187.91" y="-1666" width="140" height="40" as="geometry" />
          </mxCell>
        </object>
        <object label="Display relevent home page" placeholders="1" id="Zykf1ZHxqBieM8WaJR_5-135">
          <mxCell style="text;html=1;strokeColor=none;fillColor=none;align=center;verticalAlign=middle;whiteSpace=wrap;rounded=0;" parent="1" vertex="1">
            <mxGeometry x="157.90999999999997" y="-1703" width="200" height="40" as="geometry" />
          </mxCell>
        </object>
        <mxCell id="Zykf1ZHxqBieM8WaJR_5-136" value="" style="shape=umlActor;verticalLabelPosition=bottom;verticalAlign=top;html=1;outlineConnect=0;" parent="1" vertex="1">
          <mxGeometry x="121.82" y="-950" width="30" height="60" as="geometry" />
        </mxCell>
        <mxCell id="Zykf1ZHxqBieM8WaJR_5-137" value="" style="rounded=0;whiteSpace=wrap;html=1;" parent="1" vertex="1">
          <mxGeometry x="333.59" y="-1350" width="120" height="40" as="geometry" />
        </mxCell>
        <mxCell id="Zykf1ZHxqBieM8WaJR_5-138" value="" style="endArrow=none;dashed=1;html=1;rounded=0;" parent="1" edge="1">
          <mxGeometry width="50" height="50" relative="1" as="geometry">
            <mxPoint x="150" y="-1110" as="sourcePoint" />
            <mxPoint x="151.59" y="-1310" as="targetPoint" />
            <Array as="points" />
          </mxGeometry>
        </mxCell>
        <mxCell id="Zykf1ZHxqBieM8WaJR_5-139" value="" style="endArrow=none;dashed=1;html=1;rounded=0;" parent="1" edge="1">
          <mxGeometry width="50" height="50" relative="1" as="geometry">
            <mxPoint x="394" y="-1110" as="sourcePoint" />
            <mxPoint x="393.59" y="-1310" as="targetPoint" />
          </mxGeometry>
        </mxCell>
        <mxCell id="Zykf1ZHxqBieM8WaJR_5-140" value="Cashier" style="text;html=1;strokeColor=none;fillColor=none;align=center;verticalAlign=middle;whiteSpace=wrap;rounded=0;" parent="1" vertex="1">
          <mxGeometry x="121.59" y="-1345" width="60" height="35" as="geometry" />
        </mxCell>
        <mxCell id="Zykf1ZHxqBieM8WaJR_5-141" value="Front end" style="text;html=1;strokeColor=none;fillColor=none;align=center;verticalAlign=middle;whiteSpace=wrap;rounded=0;" parent="1" vertex="1">
          <mxGeometry x="361.59" y="-1345" width="60" height="30" as="geometry" />
        </mxCell>
        <mxCell id="Zykf1ZHxqBieM8WaJR_5-142" value="4.2&amp;nbsp; view order" style="text;html=1;align=center;verticalAlign=middle;whiteSpace=wrap;rounded=0;" parent="1" vertex="1">
          <mxGeometry x="96.04" y="-1480" width="120" height="30" as="geometry" />
        </mxCell>
        <mxCell id="Zykf1ZHxqBieM8WaJR_5-143" value="" style="rounded=0;whiteSpace=wrap;html=1;" parent="1" vertex="1">
          <mxGeometry x="571.59" y="-1350" width="120" height="40" as="geometry" />
        </mxCell>
        <mxCell id="Zykf1ZHxqBieM8WaJR_5-144" value="Controller" style="text;html=1;strokeColor=none;fillColor=none;align=center;verticalAlign=middle;whiteSpace=wrap;rounded=0;" parent="1" vertex="1">
          <mxGeometry x="601.59" y="-1345" width="60" height="30" as="geometry" />
        </mxCell>
        <mxCell id="Zykf1ZHxqBieM8WaJR_5-145" value="" style="rounded=0;whiteSpace=wrap;html=1;" parent="1" vertex="1">
          <mxGeometry x="811.59" y="-1350" width="120" height="40" as="geometry" />
        </mxCell>
        <mxCell id="Zykf1ZHxqBieM8WaJR_5-146" value="Database" style="text;html=1;strokeColor=none;fillColor=none;align=center;verticalAlign=middle;whiteSpace=wrap;rounded=0;" parent="1" vertex="1">
          <mxGeometry x="841.59" y="-1345" width="60" height="30" as="geometry" />
        </mxCell>
        <mxCell id="Zykf1ZHxqBieM8WaJR_5-147" value="" style="endArrow=none;dashed=1;html=1;rounded=0;entryX=0.5;entryY=1;entryDx=0;entryDy=0;" parent="1" target="Zykf1ZHxqBieM8WaJR_5-143" edge="1">
          <mxGeometry width="50" height="50" relative="1" as="geometry">
            <mxPoint x="632" y="-1120" as="sourcePoint" />
            <mxPoint x="41.56826086956525" y="-1365" as="targetPoint" />
          </mxGeometry>
        </mxCell>
        <mxCell id="Zykf1ZHxqBieM8WaJR_5-148" value="" style="endArrow=none;dashed=1;html=1;rounded=0;entryX=0.5;entryY=1;entryDx=0;entryDy=0;" parent="1" target="Zykf1ZHxqBieM8WaJR_5-145" edge="1">
          <mxGeometry width="50" height="50" relative="1" as="geometry">
            <mxPoint x="872" y="-1120" as="sourcePoint" />
            <mxPoint x="281.5682608695652" y="-1365" as="targetPoint" />
          </mxGeometry>
        </mxCell>
        <mxCell id="Zykf1ZHxqBieM8WaJR_5-149" value="4. cashier" style="text;html=1;align=center;verticalAlign=middle;whiteSpace=wrap;rounded=0;" parent="1" vertex="1">
          <mxGeometry x="88.41" y="-1520" width="130" height="30" as="geometry" />
        </mxCell>
        <mxCell id="Zykf1ZHxqBieM8WaJR_5-150" value="" style="shape=umlActor;verticalLabelPosition=bottom;verticalAlign=top;html=1;outlineConnect=0;" parent="1" vertex="1">
          <mxGeometry x="133.41" y="-1400" width="30" height="60" as="geometry" />
        </mxCell>
        <mxCell id="Zykf1ZHxqBieM8WaJR_5-170" value="" style="rounded=0;whiteSpace=wrap;html=1;direction=south;" parent="1" vertex="1">
          <mxGeometry x="624.22" y="-1265" width="20" height="115" as="geometry" />
        </mxCell>
        <mxCell id="Zykf1ZHxqBieM8WaJR_5-172" value="" style="endArrow=none;dashed=1;html=1;rounded=0;" parent="1" target="Zykf1ZHxqBieM8WaJR_5-171" edge="1">
          <mxGeometry width="50" height="50" relative="1" as="geometry">
            <mxPoint x="390" y="-1160" as="sourcePoint" />
            <mxPoint x="391.59" y="-1310" as="targetPoint" />
          </mxGeometry>
        </mxCell>
        <mxCell id="Zykf1ZHxqBieM8WaJR_5-171" value="" style="rounded=0;whiteSpace=wrap;html=1;direction=south;" parent="1" vertex="1">
          <mxGeometry x="384.84000000000003" y="-1265" width="20" height="115" as="geometry" />
        </mxCell>
        <mxCell id="Zykf1ZHxqBieM8WaJR_5-174" value="" style="endArrow=none;dashed=1;html=1;rounded=0;" parent="1" target="Zykf1ZHxqBieM8WaJR_5-173" edge="1">
          <mxGeometry width="50" height="50" relative="1" as="geometry">
            <mxPoint x="150" y="-1160" as="sourcePoint" />
            <mxPoint x="151.59" y="-1310" as="targetPoint" />
            <Array as="points" />
          </mxGeometry>
        </mxCell>
        <mxCell id="Zykf1ZHxqBieM8WaJR_5-173" value="" style="rounded=0;whiteSpace=wrap;html=1;direction=south;" parent="1" vertex="1">
          <mxGeometry x="140.00000000000003" y="-1265" width="20" height="115" as="geometry" />
        </mxCell>
        <mxCell id="3dBxJELoftxvtEzv0rye-18" value="" style="rounded=0;whiteSpace=wrap;html=1;direction=south;" parent="1" vertex="1">
          <mxGeometry x="861.5" y="-1265" width="20" height="115" as="geometry" />
        </mxCell>
        <mxCell id="Zykf1ZHxqBieM8WaJR_5-175" value="" style="shape=umlActor;verticalLabelPosition=bottom;verticalAlign=top;html=1;outlineConnect=0;" parent="1" vertex="1">
          <mxGeometry x="204.22" y="2132" width="30" height="60" as="geometry" />
        </mxCell>
        <mxCell id="3dBxJELoftxvtEzv0rye-74" value="Cashier" style="text;html=1;strokeColor=none;fillColor=none;align=center;verticalAlign=middle;whiteSpace=wrap;rounded=0;" parent="1" vertex="1">
          <mxGeometry x="110" y="789" width="60" height="30" as="geometry" />
        </mxCell>
        <mxCell id="Zykf1ZHxqBieM8WaJR_5-181" value="" style="shape=umlActor;verticalLabelPosition=bottom;verticalAlign=top;html=1;outlineConnect=0;" parent="1" vertex="1">
          <mxGeometry x="124.22000000000003" y="739" width="30" height="60" as="geometry" />
        </mxCell>
        <mxCell id="Zykf1ZHxqBieM8WaJR_5-182" value="" style="html=1;verticalAlign=bottom;labelBackgroundColor=none;endArrow=open;endFill=0;dashed=1;rounded=0;exitX=0.5;exitY=1;exitDx=0;exitDy=0;" parent="1" edge="1">
          <mxGeometry width="160" relative="1" as="geometry">
            <mxPoint x="372.5" y="-760" as="sourcePoint" />
            <mxPoint x="152.5" y="-760" as="targetPoint" />
            <Array as="points" />
          </mxGeometry>
        </mxCell>
        <mxCell id="Zykf1ZHxqBieM8WaJR_5-183" value="Display invoice including grand total and employee id" style="text;html=1;strokeColor=none;fillColor=none;align=center;verticalAlign=middle;whiteSpace=wrap;rounded=0;" parent="1" vertex="1">
          <mxGeometry x="181.5" y="-790" width="160" height="30" as="geometry" />
        </mxCell>
        <mxCell id="Zykf1ZHxqBieM8WaJR_5-184" style="edgeStyle=orthogonalEdgeStyle;rounded=0;orthogonalLoop=1;jettySize=auto;html=1;entryX=0.167;entryY=1;entryDx=0;entryDy=0;entryPerimeter=0;exitX=0.167;exitY=0;exitDx=0;exitDy=0;exitPerimeter=0;" parent="1" edge="1">
          <mxGeometry relative="1" as="geometry">
            <mxPoint x="154.22" y="-720" as="sourcePoint" />
            <mxPoint x="374.22" y="-720" as="targetPoint" />
          </mxGeometry>
        </mxCell>
        <object label="Enter paid amount" placeholders="1" id="Zykf1ZHxqBieM8WaJR_5-185">
          <mxCell style="text;html=1;strokeColor=none;fillColor=none;align=center;verticalAlign=middle;whiteSpace=wrap;rounded=0;container=0;" parent="1" vertex="1">
            <mxGeometry x="189.22" y="-750" width="140" height="30" as="geometry" />
          </mxCell>
        </object>
        <mxCell id="Zykf1ZHxqBieM8WaJR_5-186" value="" style="html=1;verticalAlign=bottom;labelBackgroundColor=none;endArrow=open;endFill=0;dashed=1;rounded=0;exitX=0.5;exitY=1;exitDx=0;exitDy=0;" parent="1" edge="1">
          <mxGeometry width="160" relative="1" as="geometry">
            <mxPoint x="371.82" y="-680" as="sourcePoint" />
            <mxPoint x="151.82" y="-680" as="targetPoint" />
            <Array as="points" />
          </mxGeometry>
        </mxCell>
        <mxCell id="Zykf1ZHxqBieM8WaJR_5-187" value="Calculate balance amount&amp;nbsp;" style="text;html=1;strokeColor=none;fillColor=none;align=center;verticalAlign=middle;whiteSpace=wrap;rounded=0;" parent="1" vertex="1">
          <mxGeometry x="180.82" y="-710" width="160" height="30" as="geometry" />
        </mxCell>
        <object label="Insert invoice" placeholders="1" id="Zykf1ZHxqBieM8WaJR_5-188">
          <mxCell style="text;html=1;strokeColor=none;fillColor=none;align=center;verticalAlign=middle;whiteSpace=wrap;rounded=0;container=0;" parent="1" vertex="1">
            <mxGeometry x="670.7" y="-672.5" width="145" height="30" as="geometry" />
          </mxCell>
        </object>
        <mxCell id="Zykf1ZHxqBieM8WaJR_5-189" value="" style="html=1;verticalAlign=bottom;labelBackgroundColor=none;endArrow=open;endFill=0;dashed=1;rounded=0;" parent="1" edge="1">
          <mxGeometry width="160" relative="1" as="geometry">
            <mxPoint x="850.7" y="-605.5" as="sourcePoint" />
            <mxPoint x="645.7" y="-605.5" as="targetPoint" />
            <Array as="points" />
          </mxGeometry>
        </mxCell>
        <mxCell id="Zykf1ZHxqBieM8WaJR_5-190" value="" style="html=1;verticalAlign=bottom;labelBackgroundColor=none;endArrow=open;endFill=0;dashed=1;rounded=0;" parent="1" edge="1">
          <mxGeometry width="160" relative="1" as="geometry">
            <mxPoint x="850.7" y="-566.5" as="sourcePoint" />
            <mxPoint x="645.7" y="-566.5" as="targetPoint" />
            <Array as="points">
              <mxPoint x="746.95" y="-566.5" />
            </Array>
          </mxGeometry>
        </mxCell>
        <object label="error" placeholders="1" id="Zykf1ZHxqBieM8WaJR_5-191">
          <mxCell style="text;html=1;strokeColor=none;fillColor=none;align=center;verticalAlign=middle;whiteSpace=wrap;rounded=0;container=0;" parent="1" vertex="1">
            <mxGeometry x="670.7" y="-602.5" width="145" height="30" as="geometry" />
          </mxCell>
        </object>
        <object label="Item insert successfuly" placeholders="1" id="Zykf1ZHxqBieM8WaJR_5-192">
          <mxCell style="text;html=1;strokeColor=none;fillColor=none;align=center;verticalAlign=middle;whiteSpace=wrap;rounded=0;container=0;" parent="1" vertex="1">
            <mxGeometry x="660.7" y="-642.5" width="165" height="30" as="geometry" />
          </mxCell>
        </object>
        <mxCell id="Zykf1ZHxqBieM8WaJR_5-193" style="edgeStyle=orthogonalEdgeStyle;rounded=0;orthogonalLoop=1;jettySize=auto;html=1;entryX=0.167;entryY=1;entryDx=0;entryDy=0;entryPerimeter=0;" parent="1" edge="1">
          <mxGeometry relative="1" as="geometry">
            <mxPoint x="643.2" y="-645.5" as="sourcePoint" />
            <mxPoint x="853.2" y="-645.5" as="targetPoint" />
            <Array as="points">
              <mxPoint x="730.7" y="-645.5" />
              <mxPoint x="730.7" y="-645.5" />
            </Array>
          </mxGeometry>
        </mxCell>
        <mxCell id="Zykf1ZHxqBieM8WaJR_5-194" style="edgeStyle=orthogonalEdgeStyle;rounded=0;orthogonalLoop=1;jettySize=auto;html=1;entryX=0.167;entryY=1;entryDx=0;entryDy=0;entryPerimeter=0;exitX=0.167;exitY=0;exitDx=0;exitDy=0;exitPerimeter=0;" parent="1" edge="1">
          <mxGeometry relative="1" as="geometry">
            <mxPoint x="394.45000000000005" y="-645.5" as="sourcePoint" />
            <mxPoint x="614.45" y="-645.5" as="targetPoint" />
          </mxGeometry>
        </mxCell>
        <mxCell id="Zykf1ZHxqBieM8WaJR_5-195" value="" style="html=1;verticalAlign=bottom;labelBackgroundColor=none;endArrow=open;endFill=0;dashed=1;rounded=0;" parent="1" edge="1">
          <mxGeometry width="160" relative="1" as="geometry">
            <mxPoint x="366.9500000000003" y="-566.5" as="sourcePoint" />
            <mxPoint x="161.95000000000027" y="-566.5" as="targetPoint" />
            <Array as="points" />
          </mxGeometry>
        </mxCell>
        <object label="error massages" placeholders="1" id="Zykf1ZHxqBieM8WaJR_5-196">
          <mxCell style="text;html=1;strokeColor=none;fillColor=none;align=center;verticalAlign=middle;whiteSpace=wrap;rounded=0;container=0;" parent="1" vertex="1">
            <mxGeometry x="432.5800000000004" y="-595.5" width="145" height="30" as="geometry" />
          </mxCell>
        </object>
        <object label="Display error massages" placeholders="1" id="Zykf1ZHxqBieM8WaJR_5-197">
          <mxCell style="text;html=1;strokeColor=none;fillColor=none;align=center;verticalAlign=middle;whiteSpace=wrap;rounded=0;container=0;" parent="1" vertex="1">
            <mxGeometry x="189.45000000000027" y="-595.5" width="145" height="30" as="geometry" />
          </mxCell>
        </object>
        <mxCell id="Zykf1ZHxqBieM8WaJR_5-198" value="" style="endArrow=none;dashed=1;html=1;rounded=0;" parent="1" target="Zykf1ZHxqBieM8WaJR_5-199" edge="1">
          <mxGeometry width="50" height="50" relative="1" as="geometry">
            <mxPoint x="862.5700000000002" y="-586.5" as="sourcePoint" />
            <mxPoint x="863.0700000000002" y="-981" as="targetPoint" />
            <Array as="points" />
          </mxGeometry>
        </mxCell>
        <mxCell id="Zykf1ZHxqBieM8WaJR_5-199" value="" style="rounded=0;whiteSpace=wrap;html=1;direction=south;" parent="1" vertex="1">
          <mxGeometry x="851.7200000000003" y="-670" width="20" height="120" as="geometry" />
        </mxCell>
        <mxCell id="Zykf1ZHxqBieM8WaJR_5-200" value="" style="html=1;verticalAlign=bottom;labelBackgroundColor=none;endArrow=open;endFill=0;dashed=1;rounded=0;" parent="1" edge="1">
          <mxGeometry width="160" relative="1" as="geometry">
            <mxPoint x="366.9500000000003" y="-605.5" as="sourcePoint" />
            <mxPoint x="161.95000000000027" y="-605.5" as="targetPoint" />
            <Array as="points" />
          </mxGeometry>
        </mxCell>
        <mxCell id="Zykf1ZHxqBieM8WaJR_5-201" value="" style="html=1;verticalAlign=bottom;labelBackgroundColor=none;endArrow=open;endFill=0;dashed=1;rounded=0;" parent="1" edge="1">
          <mxGeometry width="160" relative="1" as="geometry">
            <mxPoint x="612.5800000000004" y="-605.5" as="sourcePoint" />
            <mxPoint x="407.5800000000004" y="-605.5" as="targetPoint" />
            <Array as="points" />
          </mxGeometry>
        </mxCell>
        <object label="successful massage" placeholders="1" id="Zykf1ZHxqBieM8WaJR_5-202">
          <mxCell style="text;html=1;strokeColor=none;fillColor=none;align=center;verticalAlign=middle;whiteSpace=wrap;rounded=0;container=0;" parent="1" vertex="1">
            <mxGeometry x="430.7000000000003" y="-645.5" width="145" height="30" as="geometry" />
          </mxCell>
        </object>
        <object label="Display successful massage" placeholders="1" id="Zykf1ZHxqBieM8WaJR_5-203">
          <mxCell style="text;html=1;strokeColor=none;fillColor=none;align=center;verticalAlign=middle;whiteSpace=wrap;rounded=0;container=0;" parent="1" vertex="1">
            <mxGeometry x="185.08000000000038" y="-645.5" width="155" height="30" as="geometry" />
          </mxCell>
        </object>
        <mxCell id="Zykf1ZHxqBieM8WaJR_5-206" style="edgeStyle=orthogonalEdgeStyle;rounded=0;orthogonalLoop=1;jettySize=auto;html=1;entryX=0.167;entryY=1;entryDx=0;entryDy=0;entryPerimeter=0;exitX=0.167;exitY=0;exitDx=0;exitDy=0;exitPerimeter=0;" parent="1" edge="1">
          <mxGeometry relative="1" as="geometry">
            <mxPoint x="158.20000000000027" y="-645.5" as="sourcePoint" />
            <mxPoint x="378.2000000000003" y="-645.5" as="targetPoint" />
          </mxGeometry>
        </mxCell>
        <object label="Enter paid button" placeholders="1" id="Zykf1ZHxqBieM8WaJR_5-207">
          <mxCell style="text;html=1;strokeColor=none;fillColor=none;align=center;verticalAlign=middle;whiteSpace=wrap;rounded=0;container=0;" parent="1" vertex="1">
            <mxGeometry x="183.20000000000027" y="-675.5" width="145" height="30" as="geometry" />
          </mxCell>
        </object>
        <object label="Send invoice data" placeholders="1" id="Zykf1ZHxqBieM8WaJR_5-208">
          <mxCell style="text;html=1;strokeColor=none;fillColor=none;align=center;verticalAlign=middle;whiteSpace=wrap;rounded=0;container=0;" parent="1" vertex="1">
            <mxGeometry x="432.5800000000004" y="-680" width="145" height="30" as="geometry" />
          </mxCell>
        </object>
        <mxCell id="Zykf1ZHxqBieM8WaJR_5-209" value="" style="html=1;verticalAlign=bottom;labelBackgroundColor=none;endArrow=open;endFill=0;dashed=1;rounded=0;" parent="1" edge="1">
          <mxGeometry width="160" relative="1" as="geometry">
            <mxPoint x="609.4500000000003" y="-565.5" as="sourcePoint" />
            <mxPoint x="404.4500000000003" y="-565.5" as="targetPoint" />
            <Array as="points" />
          </mxGeometry>
        </mxCell>
        <mxCell id="Zykf1ZHxqBieM8WaJR_5-212" value="" style="rounded=0;whiteSpace=wrap;html=1;direction=south;" parent="1" vertex="1">
          <mxGeometry x="129.22" y="-820" width="20" height="270" as="geometry" />
        </mxCell>
        <mxCell id="Zykf1ZHxqBieM8WaJR_5-213" value="" style="rounded=0;whiteSpace=wrap;html=1;direction=south;" parent="1" vertex="1">
          <mxGeometry x="375" y="-820" width="20" height="270" as="geometry" />
        </mxCell>
        <mxCell id="Zykf1ZHxqBieM8WaJR_5-214" value="" style="rounded=0;whiteSpace=wrap;html=1;direction=south;" parent="1" vertex="1">
          <mxGeometry x="617.89" y="-676.5" width="20" height="126.5" as="geometry" />
        </mxCell>
        <mxCell id="Zykf1ZHxqBieM8WaJR_5-220" value="" style="endArrow=none;dashed=1;html=1;rounded=0;" parent="1" edge="1">
          <mxGeometry width="50" height="50" relative="1" as="geometry">
            <mxPoint x="1340" y="30" as="sourcePoint" />
            <mxPoint x="1338" y="-278" as="targetPoint" />
          </mxGeometry>
        </mxCell>
        <mxCell id="Zykf1ZHxqBieM8WaJR_5-222" value="" style="rounded=0;whiteSpace=wrap;html=1;" parent="1" vertex="1">
          <mxGeometry x="325" y="-288" width="120" height="40" as="geometry" />
        </mxCell>
        <mxCell id="Zykf1ZHxqBieM8WaJR_5-223" value="Cashier" style="text;html=1;strokeColor=none;fillColor=none;align=center;verticalAlign=middle;whiteSpace=wrap;rounded=0;" parent="1" vertex="1">
          <mxGeometry x="115" y="-283" width="60" height="35" as="geometry" />
        </mxCell>
        <mxCell id="Zykf1ZHxqBieM8WaJR_5-224" value="Front end" style="text;html=1;strokeColor=none;fillColor=none;align=center;verticalAlign=middle;whiteSpace=wrap;rounded=0;" parent="1" vertex="1">
          <mxGeometry x="355" y="-283" width="60" height="30" as="geometry" />
        </mxCell>
        <mxCell id="Zykf1ZHxqBieM8WaJR_5-225" value="" style="rounded=0;whiteSpace=wrap;html=1;" parent="1" vertex="1">
          <mxGeometry x="565" y="-288" width="120" height="40" as="geometry" />
        </mxCell>
        <mxCell id="Zykf1ZHxqBieM8WaJR_5-226" value="Controller" style="text;html=1;strokeColor=none;fillColor=none;align=center;verticalAlign=middle;whiteSpace=wrap;rounded=0;" parent="1" vertex="1">
          <mxGeometry x="595" y="-283" width="60" height="30" as="geometry" />
        </mxCell>
        <mxCell id="Zykf1ZHxqBieM8WaJR_5-227" value="" style="shape=umlActor;verticalLabelPosition=bottom;verticalAlign=top;html=1;outlineConnect=0;" parent="1" vertex="1">
          <mxGeometry x="126.82" y="-338" width="30" height="60" as="geometry" />
        </mxCell>
        <mxCell id="Zykf1ZHxqBieM8WaJR_5-228" value="" style="endArrow=none;dashed=1;html=1;rounded=0;" parent="1" source="3dBxJELoftxvtEzv0rye-89" edge="1">
          <mxGeometry width="50" height="50" relative="1" as="geometry">
            <mxPoint x="390" y="850" as="sourcePoint" />
            <mxPoint x="140" y="810" as="targetPoint" />
          </mxGeometry>
        </mxCell>
        <mxCell id="Zykf1ZHxqBieM8WaJR_5-229" value="" style="endArrow=none;dashed=1;html=1;rounded=0;" parent="1" edge="1">
          <mxGeometry width="50" height="50" relative="1" as="geometry">
            <mxPoint x="1579" y="10" as="sourcePoint" />
            <mxPoint x="1579" y="-278.8" as="targetPoint" />
          </mxGeometry>
        </mxCell>
        <mxCell id="Zykf1ZHxqBieM8WaJR_5-230" value="4.4 Send invoice" style="text;html=1;align=center;verticalAlign=middle;whiteSpace=wrap;rounded=0;" parent="1" vertex="1">
          <mxGeometry x="98.67" y="-400" width="120" height="30" as="geometry" />
        </mxCell>
        <mxCell id="Zykf1ZHxqBieM8WaJR_5-231" value="4. cashier" style="text;html=1;align=center;verticalAlign=middle;whiteSpace=wrap;rounded=0;" parent="1" vertex="1">
          <mxGeometry x="91.03999999999999" y="-440" width="130" height="30" as="geometry" />
        </mxCell>
        <mxCell id="Zykf1ZHxqBieM8WaJR_5-237" value="" style="endArrow=none;dashed=1;html=1;rounded=0;" parent="1" source="Zykf1ZHxqBieM8WaJR_5-238" edge="1">
          <mxGeometry width="50" height="50" relative="1" as="geometry">
            <mxPoint x="225" y="1332" as="sourcePoint" />
            <mxPoint x="225" y="1272" as="targetPoint" />
            <Array as="points" />
          </mxGeometry>
        </mxCell>
        <mxCell id="Zykf1ZHxqBieM8WaJR_5-238" value="Cashier" style="text;html=1;strokeColor=none;fillColor=none;align=center;verticalAlign=middle;whiteSpace=wrap;rounded=0;" parent="1" vertex="1">
          <mxGeometry x="195" y="1262" width="60" height="30" as="geometry" />
        </mxCell>
        <mxCell id="Zykf1ZHxqBieM8WaJR_5-239" value="" style="shape=umlActor;verticalLabelPosition=bottom;verticalAlign=top;html=1;outlineConnect=0;" parent="1" vertex="1">
          <mxGeometry x="209.22000000000003" y="1212" width="30" height="60" as="geometry" />
        </mxCell>
        <mxCell id="Zykf1ZHxqBieM8WaJR_5-288" value="&amp;nbsp; if" style="html=1;whiteSpace=wrap;align=left;" parent="1" vertex="1">
          <mxGeometry x="144" y="350" width="610.78" height="132" as="geometry" />
        </mxCell>
        <mxCell id="Zykf1ZHxqBieM8WaJR_5-289" value="else" style="html=1;whiteSpace=wrap;align=left;" parent="1" vertex="1">
          <mxGeometry x="144.77999999999997" y="487" width="610" height="90" as="geometry" />
        </mxCell>
        <mxCell id="Zykf1ZHxqBieM8WaJR_5-290" value="4.5 View&amp;nbsp; invoices&amp;nbsp;&amp;nbsp;" style="text;html=1;strokeColor=none;fillColor=none;align=center;verticalAlign=middle;whiteSpace=wrap;rounded=0;" parent="1" vertex="1">
          <mxGeometry x="80" y="122" width="185" height="30" as="geometry" />
        </mxCell>
        <mxCell id="Zykf1ZHxqBieM8WaJR_5-291" value="Data base" style="shape=umlLifeline;perimeter=lifelinePerimeter;whiteSpace=wrap;html=1;container=0;dropTarget=0;collapsible=0;recursiveResize=0;outlineConnect=0;portConstraint=eastwest;newEdgeStyle={&quot;edgeStyle&quot;:&quot;elbowEdgeStyle&quot;,&quot;elbow&quot;:&quot;vertical&quot;,&quot;curved&quot;:0,&quot;rounded&quot;:0};" parent="1" vertex="1">
          <mxGeometry x="686.4099999999999" y="181" width="100" height="436" as="geometry" />
        </mxCell>
        <mxCell id="Zykf1ZHxqBieM8WaJR_5-292" value="Controller" style="shape=umlLifeline;perimeter=lifelinePerimeter;whiteSpace=wrap;html=1;container=0;dropTarget=0;collapsible=0;recursiveResize=0;outlineConnect=0;portConstraint=eastwest;newEdgeStyle={&quot;edgeStyle&quot;:&quot;elbowEdgeStyle&quot;,&quot;elbow&quot;:&quot;vertical&quot;,&quot;curved&quot;:0,&quot;rounded&quot;:0};" parent="1" vertex="1">
          <mxGeometry x="503.90999999999985" y="181" width="100" height="436" as="geometry" />
        </mxCell>
        <mxCell id="Zykf1ZHxqBieM8WaJR_5-293" value="" style="html=1;verticalAlign=bottom;labelBackgroundColor=none;endArrow=open;endFill=0;dashed=1;rounded=0;" parent="1" edge="1">
          <mxGeometry width="160" relative="1" as="geometry">
            <mxPoint x="546" y="382" as="sourcePoint" />
            <mxPoint x="376" y="382" as="targetPoint" />
            <Array as="points" />
          </mxGeometry>
        </mxCell>
        <mxCell id="Zykf1ZHxqBieM8WaJR_5-294" value="Send&amp;nbsp; orders" style="text;html=1;strokeColor=none;fillColor=none;align=center;verticalAlign=middle;whiteSpace=wrap;rounded=0;" parent="1" vertex="1">
          <mxGeometry x="386" y="352" width="170" height="30" as="geometry" />
        </mxCell>
        <mxCell id="Zykf1ZHxqBieM8WaJR_5-295" value="" style="endArrow=classic;html=1;rounded=0;" parent="1" edge="1">
          <mxGeometry width="50" height="50" relative="1" as="geometry">
            <mxPoint x="376.6700000000001" y="342" as="sourcePoint" />
            <mxPoint x="546.6700000000001" y="342" as="targetPoint" />
          </mxGeometry>
        </mxCell>
        <mxCell id="Zykf1ZHxqBieM8WaJR_5-296" value="" style="group" parent="1" vertex="1" connectable="0">
          <mxGeometry x="376" y="382" width="170" height="30" as="geometry" />
        </mxCell>
        <mxCell id="Zykf1ZHxqBieM8WaJR_5-297" value="" style="endArrow=classic;html=1;rounded=0;" parent="Zykf1ZHxqBieM8WaJR_5-296" edge="1">
          <mxGeometry width="50" height="50" relative="1" as="geometry">
            <mxPoint y="30" as="sourcePoint" />
            <mxPoint x="170" y="30" as="targetPoint" />
          </mxGeometry>
        </mxCell>
        <mxCell id="Zykf1ZHxqBieM8WaJR_5-298" value="Reqest&amp;nbsp; items" style="text;html=1;strokeColor=none;fillColor=none;align=center;verticalAlign=middle;whiteSpace=wrap;rounded=0;" parent="Zykf1ZHxqBieM8WaJR_5-296" vertex="1">
          <mxGeometry width="170" height="30" as="geometry" />
        </mxCell>
        <mxCell id="Zykf1ZHxqBieM8WaJR_5-299" value="" style="group" parent="1" vertex="1" connectable="0">
          <mxGeometry x="558.1399999999999" y="477" width="170" height="30" as="geometry" />
        </mxCell>
        <mxCell id="Zykf1ZHxqBieM8WaJR_5-300" value="" style="endArrow=classic;html=1;rounded=0;" parent="Zykf1ZHxqBieM8WaJR_5-299" edge="1">
          <mxGeometry width="50" height="50" relative="1" as="geometry">
            <mxPoint y="30" as="sourcePoint" />
            <mxPoint x="170" y="30" as="targetPoint" />
          </mxGeometry>
        </mxCell>
        <mxCell id="Zykf1ZHxqBieM8WaJR_5-301" value="error" style="text;html=1;strokeColor=none;fillColor=none;align=center;verticalAlign=middle;whiteSpace=wrap;rounded=0;" parent="Zykf1ZHxqBieM8WaJR_5-299" vertex="1">
          <mxGeometry width="170" height="30" as="geometry" />
        </mxCell>
        <mxCell id="Zykf1ZHxqBieM8WaJR_5-302" value="" style="html=1;verticalAlign=bottom;labelBackgroundColor=none;endArrow=open;endFill=0;dashed=1;rounded=0;" parent="1" edge="1">
          <mxGeometry width="160" relative="1" as="geometry">
            <mxPoint x="540.3499999999999" y="548.5" as="sourcePoint" />
            <mxPoint x="370.3499999999999" y="548.5" as="targetPoint" />
            <Array as="points" />
          </mxGeometry>
        </mxCell>
        <mxCell id="Zykf1ZHxqBieM8WaJR_5-303" value="" style="html=1;verticalAlign=bottom;labelBackgroundColor=none;endArrow=open;endFill=0;dashed=1;rounded=0;" parent="1" edge="1">
          <mxGeometry width="160" relative="1" as="geometry">
            <mxPoint x="355.3499999999999" y="548.5" as="sourcePoint" />
            <mxPoint x="185.3499999999999" y="548.5" as="targetPoint" />
            <Array as="points" />
          </mxGeometry>
        </mxCell>
        <mxCell id="Zykf1ZHxqBieM8WaJR_5-304" value="Display error massage" style="text;html=1;strokeColor=none;fillColor=none;align=center;verticalAlign=middle;whiteSpace=wrap;rounded=0;" parent="1" vertex="1">
          <mxGeometry x="190.3499999999999" y="515.5" width="170" height="30" as="geometry" />
        </mxCell>
        <mxCell id="Zykf1ZHxqBieM8WaJR_5-305" value="Display error massage" style="text;html=1;strokeColor=none;fillColor=none;align=center;verticalAlign=middle;whiteSpace=wrap;rounded=0;" parent="1" vertex="1">
          <mxGeometry x="370.3499999999999" y="515.5" width="170" height="30" as="geometry" />
        </mxCell>
        <mxCell id="Zykf1ZHxqBieM8WaJR_5-306" value="" style="html=1;verticalAlign=bottom;labelBackgroundColor=none;endArrow=open;endFill=0;dashed=1;rounded=0;" parent="1" edge="1">
          <mxGeometry width="160" relative="1" as="geometry">
            <mxPoint x="729.5699999999997" y="548" as="sourcePoint" />
            <mxPoint x="559.5699999999997" y="548" as="targetPoint" />
            <Array as="points" />
          </mxGeometry>
        </mxCell>
        <mxCell id="Zykf1ZHxqBieM8WaJR_5-307" value="Display error massage" style="text;html=1;strokeColor=none;fillColor=none;align=center;verticalAlign=middle;whiteSpace=wrap;rounded=0;" parent="1" vertex="1">
          <mxGeometry x="559.5699999999997" y="515" width="170" height="30" as="geometry" />
        </mxCell>
        <mxCell id="Zykf1ZHxqBieM8WaJR_5-308" value="" style="rounded=0;whiteSpace=wrap;html=1;direction=south;" parent="1" vertex="1">
          <mxGeometry x="546" y="282" width="10.39" height="310" as="geometry" />
        </mxCell>
        <mxCell id="Zykf1ZHxqBieM8WaJR_5-309" value="" style="group" parent="1" vertex="1" connectable="0">
          <mxGeometry x="376" y="422" width="170" height="30" as="geometry" />
        </mxCell>
        <mxCell id="Zykf1ZHxqBieM8WaJR_5-310" value="" style="html=1;verticalAlign=bottom;labelBackgroundColor=none;endArrow=open;endFill=0;dashed=1;rounded=0;" parent="Zykf1ZHxqBieM8WaJR_5-309" edge="1">
          <mxGeometry width="160" relative="1" as="geometry">
            <mxPoint x="170" y="30" as="sourcePoint" />
            <mxPoint y="30" as="targetPoint" />
            <Array as="points" />
          </mxGeometry>
        </mxCell>
        <mxCell id="Zykf1ZHxqBieM8WaJR_5-311" value="Send items" style="text;html=1;strokeColor=none;fillColor=none;align=center;verticalAlign=middle;whiteSpace=wrap;rounded=0;" parent="Zykf1ZHxqBieM8WaJR_5-309" vertex="1">
          <mxGeometry x="10" width="170" height="30" as="geometry" />
        </mxCell>
        <mxCell id="Zykf1ZHxqBieM8WaJR_5-312" value="" style="group" parent="1" vertex="1" connectable="0">
          <mxGeometry x="563.9099999999999" y="419" width="170" height="30" as="geometry" />
        </mxCell>
        <mxCell id="Zykf1ZHxqBieM8WaJR_5-313" value="" style="html=1;verticalAlign=bottom;labelBackgroundColor=none;endArrow=open;endFill=0;dashed=1;rounded=0;" parent="Zykf1ZHxqBieM8WaJR_5-312" edge="1">
          <mxGeometry width="160" relative="1" as="geometry">
            <mxPoint x="170" y="30" as="sourcePoint" />
            <mxPoint y="30" as="targetPoint" />
            <Array as="points" />
          </mxGeometry>
        </mxCell>
        <mxCell id="Zykf1ZHxqBieM8WaJR_5-314" value="Send items" style="text;html=1;strokeColor=none;fillColor=none;align=center;verticalAlign=middle;whiteSpace=wrap;rounded=0;" parent="Zykf1ZHxqBieM8WaJR_5-312" vertex="1">
          <mxGeometry x="10" width="170" height="30" as="geometry" />
        </mxCell>
        <mxCell id="Zykf1ZHxqBieM8WaJR_5-315" value="cashier" style="shape=umlActor;verticalLabelPosition=bottom;verticalAlign=top;html=1;outlineConnect=0;" parent="1" vertex="1">
          <mxGeometry x="160.61" y="172" width="29.39" height="58" as="geometry" />
        </mxCell>
        <mxCell id="Zykf1ZHxqBieM8WaJR_5-316" value="Front end" style="shape=umlLifeline;perimeter=lifelinePerimeter;whiteSpace=wrap;html=1;container=0;dropTarget=0;collapsible=0;recursiveResize=0;outlineConnect=0;portConstraint=eastwest;newEdgeStyle={&quot;edgeStyle&quot;:&quot;elbowEdgeStyle&quot;,&quot;elbow&quot;:&quot;vertical&quot;,&quot;curved&quot;:0,&quot;rounded&quot;:0};" parent="1" vertex="1">
          <mxGeometry x="313.5899999999999" y="181" width="100" height="436" as="geometry" />
        </mxCell>
        <mxCell id="Zykf1ZHxqBieM8WaJR_5-317" value="" style="rounded=0;whiteSpace=wrap;html=1;direction=south;" parent="1" vertex="1">
          <mxGeometry x="360" y="282" width="10.39" height="305" as="geometry" />
        </mxCell>
        <mxCell id="Zykf1ZHxqBieM8WaJR_5-318" value="" style="endArrow=none;dashed=1;html=1;rounded=0;" parent="1" source="Zykf1ZHxqBieM8WaJR_5-320" edge="1">
          <mxGeometry width="50" height="50" relative="1" as="geometry">
            <mxPoint x="173.31999999999994" y="552" as="sourcePoint" />
            <mxPoint x="173.71000000000004" y="252" as="targetPoint" />
          </mxGeometry>
        </mxCell>
        <mxCell id="Zykf1ZHxqBieM8WaJR_5-320" value="" style="rounded=0;whiteSpace=wrap;html=1;direction=south;" parent="1" vertex="1">
          <mxGeometry x="167.30999999999995" y="292" width="10.39" height="295" as="geometry" />
        </mxCell>
        <mxCell id="Zykf1ZHxqBieM8WaJR_5-321" value="" style="group" parent="1" vertex="1" connectable="0">
          <mxGeometry x="185" y="312" width="170" height="30" as="geometry" />
        </mxCell>
        <mxCell id="Zykf1ZHxqBieM8WaJR_5-322" value="" style="endArrow=classic;html=1;rounded=0;" parent="Zykf1ZHxqBieM8WaJR_5-321" edge="1">
          <mxGeometry width="50" height="50" relative="1" as="geometry">
            <mxPoint y="30" as="sourcePoint" />
            <mxPoint x="170" y="30" as="targetPoint" />
          </mxGeometry>
        </mxCell>
        <mxCell id="Zykf1ZHxqBieM8WaJR_5-323" value="Click manage invoices button" style="text;html=1;strokeColor=none;fillColor=none;align=center;verticalAlign=middle;whiteSpace=wrap;rounded=0;" parent="Zykf1ZHxqBieM8WaJR_5-321" vertex="1">
          <mxGeometry width="170" height="30" as="geometry" />
        </mxCell>
        <mxCell id="Zykf1ZHxqBieM8WaJR_5-324" value="Reqest invoices" style="text;html=1;strokeColor=none;fillColor=none;align=center;verticalAlign=middle;whiteSpace=wrap;rounded=0;" parent="1" vertex="1">
          <mxGeometry x="378.22" y="310" width="170" height="30" as="geometry" />
        </mxCell>
        <mxCell id="Zykf1ZHxqBieM8WaJR_5-325" value="" style="group" parent="1" vertex="1" connectable="0">
          <mxGeometry x="560" y="309" width="180.39" height="280" as="geometry" />
        </mxCell>
        <mxCell id="Zykf1ZHxqBieM8WaJR_5-326" value="" style="endArrow=classic;html=1;rounded=0;" parent="Zykf1ZHxqBieM8WaJR_5-325" edge="1">
          <mxGeometry width="50" height="50" relative="1" as="geometry">
            <mxPoint y="30" as="sourcePoint" />
            <mxPoint x="170" y="30" as="targetPoint" />
          </mxGeometry>
        </mxCell>
        <mxCell id="Zykf1ZHxqBieM8WaJR_5-327" value="Reqest invoices" style="text;html=1;strokeColor=none;fillColor=none;align=center;verticalAlign=middle;whiteSpace=wrap;rounded=0;" parent="Zykf1ZHxqBieM8WaJR_5-325" vertex="1">
          <mxGeometry width="170" height="30" as="geometry" />
        </mxCell>
        <mxCell id="Zykf1ZHxqBieM8WaJR_5-328" value="" style="group" parent="Zykf1ZHxqBieM8WaJR_5-325" vertex="1" connectable="0">
          <mxGeometry y="40" width="180.39" height="240" as="geometry" />
        </mxCell>
        <mxCell id="Zykf1ZHxqBieM8WaJR_5-329" value="" style="html=1;verticalAlign=bottom;labelBackgroundColor=none;endArrow=open;endFill=0;dashed=1;rounded=0;" parent="Zykf1ZHxqBieM8WaJR_5-328" edge="1">
          <mxGeometry width="160" relative="1" as="geometry">
            <mxPoint x="170" y="30" as="sourcePoint" />
            <mxPoint y="30" as="targetPoint" />
            <Array as="points" />
          </mxGeometry>
        </mxCell>
        <mxCell id="Zykf1ZHxqBieM8WaJR_5-330" value="Send&amp;nbsp; orders" style="text;html=1;strokeColor=none;fillColor=none;align=center;verticalAlign=middle;whiteSpace=wrap;rounded=0;" parent="Zykf1ZHxqBieM8WaJR_5-328" vertex="1">
          <mxGeometry x="10" width="170" height="30" as="geometry" />
        </mxCell>
        <mxCell id="Zykf1ZHxqBieM8WaJR_5-331" value="" style="rounded=0;whiteSpace=wrap;html=1;direction=south;" parent="Zykf1ZHxqBieM8WaJR_5-328" vertex="1">
          <mxGeometry x="170" y="-66" width="10.39" height="306" as="geometry" />
        </mxCell>
        <mxCell id="Zykf1ZHxqBieM8WaJR_5-332" value="" style="group" parent="Zykf1ZHxqBieM8WaJR_5-325" vertex="1" connectable="0">
          <mxGeometry y="70" width="170" height="30" as="geometry" />
        </mxCell>
        <mxCell id="Zykf1ZHxqBieM8WaJR_5-333" value="" style="endArrow=classic;html=1;rounded=0;" parent="Zykf1ZHxqBieM8WaJR_5-332" edge="1">
          <mxGeometry width="50" height="50" relative="1" as="geometry">
            <mxPoint y="30" as="sourcePoint" />
            <mxPoint x="170" y="30" as="targetPoint" />
          </mxGeometry>
        </mxCell>
        <mxCell id="Zykf1ZHxqBieM8WaJR_5-334" value="Reqest&amp;nbsp; items" style="text;html=1;strokeColor=none;fillColor=none;align=center;verticalAlign=middle;whiteSpace=wrap;rounded=0;" parent="Zykf1ZHxqBieM8WaJR_5-332" vertex="1">
          <mxGeometry x="-6" width="170" height="30" as="geometry" />
        </mxCell>
        <mxCell id="Zykf1ZHxqBieM8WaJR_5-335" value="Display&amp;nbsp; manage orders window" style="text;html=1;strokeColor=none;fillColor=none;align=center;verticalAlign=middle;whiteSpace=wrap;rounded=0;" parent="1" vertex="1">
          <mxGeometry x="187.5" y="352" width="170" height="30" as="geometry" />
        </mxCell>
        <mxCell id="Zykf1ZHxqBieM8WaJR_5-336" value="" style="html=1;verticalAlign=bottom;labelBackgroundColor=none;endArrow=open;endFill=0;dashed=1;rounded=0;" parent="1" edge="1">
          <mxGeometry width="160" relative="1" as="geometry">
            <mxPoint x="360.8299999999999" y="381.40999999999985" as="sourcePoint" />
            <mxPoint x="190.82999999999993" y="381.40999999999985" as="targetPoint" />
            <Array as="points" />
          </mxGeometry>
        </mxCell>
        <mxCell id="Zykf1ZHxqBieM8WaJR_5-337" value="" style="group" parent="1" vertex="1" connectable="0">
          <mxGeometry x="200" y="382" width="539" height="55" as="geometry" />
        </mxCell>
        <mxCell id="Zykf1ZHxqBieM8WaJR_5-338" value="" style="endArrow=classic;html=1;rounded=0;exitX=0;exitY=1;exitDx=0;exitDy=0;" parent="Zykf1ZHxqBieM8WaJR_5-337" edge="1">
          <mxGeometry width="50" height="50" relative="1" as="geometry">
            <mxPoint x="-5" y="30" as="sourcePoint" />
            <mxPoint x="160" y="30" as="targetPoint" />
          </mxGeometry>
        </mxCell>
        <mxCell id="Zykf1ZHxqBieM8WaJR_5-339" value="Click view button" style="text;html=1;strokeColor=none;fillColor=none;align=center;verticalAlign=middle;whiteSpace=wrap;rounded=0;" parent="Zykf1ZHxqBieM8WaJR_5-337" vertex="1">
          <mxGeometry x="-10" width="165" height="30" as="geometry" />
        </mxCell>
        <mxCell id="Zykf1ZHxqBieM8WaJR_5-340" value="" style="group" parent="1" vertex="1" connectable="0">
          <mxGeometry x="183.54999999999995" y="419" width="190.19" height="60" as="geometry" />
        </mxCell>
        <mxCell id="Zykf1ZHxqBieM8WaJR_5-341" value="" style="html=1;verticalAlign=bottom;labelBackgroundColor=none;endArrow=open;endFill=0;dashed=1;rounded=0;" parent="Zykf1ZHxqBieM8WaJR_5-340" edge="1">
          <mxGeometry width="160" relative="1" as="geometry">
            <mxPoint x="167.5" y="30" as="sourcePoint" />
            <mxPoint x="-2.5" y="30" as="targetPoint" />
            <Array as="points" />
          </mxGeometry>
        </mxCell>
        <mxCell id="Zykf1ZHxqBieM8WaJR_5-342" value="Display order item window" style="text;html=1;strokeColor=none;fillColor=none;align=center;verticalAlign=middle;whiteSpace=wrap;rounded=0;" parent="1" vertex="1">
          <mxGeometry x="175" y="422" width="170" height="30" as="geometry" />
        </mxCell>
        <mxCell id="Zykf1ZHxqBieM8WaJR_5-343" value="4. cashier" style="text;html=1;align=center;verticalAlign=middle;whiteSpace=wrap;rounded=0;" parent="1" vertex="1">
          <mxGeometry x="99.99999999999999" y="80" width="130" height="30" as="geometry" />
        </mxCell>
        <mxCell id="Zykf1ZHxqBieM8WaJR_5-354" value="" style="shape=umlActor;verticalLabelPosition=bottom;verticalAlign=top;html=1;outlineConnect=0;" parent="1" vertex="1">
          <mxGeometry x="207.81000000000003" y="2649" width="30" height="60" as="geometry" />
        </mxCell>
        <mxCell id="Zykf1ZHxqBieM8WaJR_5-368" value="" style="shape=umlActor;verticalLabelPosition=bottom;verticalAlign=top;html=1;outlineConnect=0;" parent="1" vertex="1">
          <mxGeometry x="235.08000000000004" y="3498" width="30" height="60" as="geometry" />
        </mxCell>
        <mxCell id="Zykf1ZHxqBieM8WaJR_5-371" style="edgeStyle=orthogonalEdgeStyle;rounded=0;orthogonalLoop=1;jettySize=auto;html=1;entryX=0.167;entryY=1;entryDx=0;entryDy=0;entryPerimeter=0;exitX=0.167;exitY=0;exitDx=0;exitDy=0;exitPerimeter=0;" parent="1" edge="1">
          <mxGeometry relative="1" as="geometry">
            <mxPoint x="256.72" y="3680" as="sourcePoint" />
            <mxPoint x="476.72" y="3680" as="targetPoint" />
          </mxGeometry>
        </mxCell>
      </root>
    </mxGraphModel>
  </diagram>
</mxfile>
